<?xml version="1.0" encoding="utf-8"?>
<!-- Generator: Adobe Illustrator 15.0.2, SVG Export Plug-In . SVG Version: 6.00 Build 0)  -->
<!DOCTYPE svg PUBLIC "-//W3C//DTD SVG 1.1//EN" "http://www.w3.org/Graphics/SVG/1.1/DTD/svg11.dtd">
<svg version="1.1" id="hiroshima_map_svg" xmlns="http://www.w3.org/2000/svg" xmlns:xlink="http://www.w3.org/1999/xlink" x="0px"
	 y="0px" width="595" height="842" viewBox="0 0 595.22 842" enable-background="new 0 0 595.22 842" xml:space="preserve">
<path fill="#8ABF22" d="M377.104,257.774c-0.157-0.211-0.771-0.481-0.925-0.732c-0.652-1.056-0.857-2.072-1.379-2.594
	c-0.307-0.537-0.805-0.609-0.914-1.183c-0.075-0.401-0.542-1.702-0.245-2.641c0.188-0.597,0.914-1.012,0.965-1.275
	c0.115-0.594-0.06-1.287-0.04-1.896c0.01-0.229,0.943-1.247,0.809-1.743c-0.104-0.39-1.405-1.579-1.477-2.006
	c-0.101-0.619,0.572-1.026,0.817-1.463c0.147-0.261-0.079-1.54,0.212-1.902c0.57-0.713,1.779-1.492,1.855-2.063
	c0.073-0.562,0.01-2.203-0.135-3.249c-0.105-0.153-1.632-1.061-1.756-1.26c-0.511-0.819-1.398-2.495-1.993-3.28
	c-0.498-0.654-1.895-1.131-2.577-1.83c-0.332-0.338-0.182-1.162-0.186-1.387c-0.141-0.069-1.887-3.081-2.329-3.188
	c-0.728-0.174-1.62-0.314-1.882-0.136c-0.315,0.212-0.592,1.571-0.967,1.571c-0.482,0-1.728-0.908-2.145-0.922
	c-0.922,0.029-3.232,0.936-4.986,1.03c-0.801,0.043-1.108-0.728-1.5-0.813c-1.162-0.252-2.039,1.3-2.469,1.138
	c-0.375-0.109-0.861-1.242-0.861-1.242s-0.748-0.142-1.229-0.464c-0.054-0.037-0.126-1.074-0.788-1.125
	c-0.584-0.044-1.238,0.163-2.072,0.209c-0.246,0.013-0.859-0.302-1.113-0.283c-0.471,0.035-0.979,0.726-1.441,0.699
	c-0.705-0.042-2.91-0.003-2.91-0.003c-0.507,0.234-0.65,1.061-1.126,1.478c-0.358,0.316-1.831,0.303-2.252,0.243
	c-0.28-0.04-0.323-0.468-1.005-1.178c-0.346-0.361-0.972-0.16-1.327-0.487c-0.151-0.139-0.286-1.119-0.442-1.26
	c-0.726-0.651-2.113-1.999-3.103-2.092c-1.245,0.166-1.264,1.968-1.562,2.418c-0.442,0.666-3.004,1.45-3.78,1.381
	c-0.709-0.064-1.21-1.139-1.974-0.986c-0.637,0.127-2.275,0.141-2.936-0.354c-0.584-0.438-0.724-1.746-1.097-2.298
	c-0.124-0.184-0.681-0.832-1.017-0.845c-1.265,0.182-2.082,0.297-2.813,0.65c-0.655,0.316-1.015,0.983-1.593,1.382
	c-0.448,0.65-1.758,2.09-2.189,2.649c-0.436,0.565-1.861,1.597-1.941,2.298c0.104,0.424,1.385,1.634,1.194,1.949
	c-0.172,0.287-0.965,0.417-1.294,0.599c-0.327,0.182-1.365,0.806-1.592,1.068c-0.368,0.426-0.444,1.238-0.896,1.864
	c-0.523,0.728-2.074,1.055-2.438,1.565c-0.439,0.615,0.05,1.399-0.249,1.799c-0.468,0.625-2.103,0.399-2.638,0.98
	c-0.076,0.083-0.037,0.383,0.02,0.739l0.891,0.04c0.191-0.234,1.431-0.571,2.211-0.447c0.483,0.076,0.436,0.753,0.765,0.771
	c0.542,0.029,1.885,0.29,2.252,0.122c0.442-0.203,1.278-1.63,1.953-1.937c0.204-0.092,1.876-0.342,1.868-0.053
	c-0.008,0.278-0.26,2.314-0.402,2.965c-0.111,0.509-0.9,0.696-1.005,1.097c-0.195,0.74,0.628,2.547,0.655,3.127
	c0.016,0.306-0.523,0.736-0.348,1.003c0.227,0.34,0.84,1.038,1.221,1.272c0.381,0.235,0.494-0.441,0.845-0.284
	c0.167,0.075,0.225,0.5,0.276,1.016c0.08,0.827-0.801,1.38-0.72,1.949c0.03,0.215,0.341,0.503,0.804,0.653
	c0.362,0.119,0.604-0.125,1.086-0.125c0.313,0,1.427,1.082,1.569,1.3c0.407,0.625,0.377,2.727,0.563,3.412
	c0.104,0.381,1.89,0,1.929,0.447c0.026,0.282,0.101,1.414-0.24,1.99c-0.224,0.376-0.888,0.24-0.952,0.43
	c-0.131,0.382-0.058,1.982,0.027,2.373c-0.037,0.867,1.012,1.802,1.486,2.152c0.711,0.521,1.791,1.042,2.264,1.531
	c0.571,0.592,1.464,1.277,2.178,1.839c0.225,0.179,0.495,1.227,0.717,1.411c0.578,0.476,1.426,0.339,1.863,0.888
	c0.202,0.252,0.25,1.431,0.27,1.734c0.638-0.136,1.34-0.64,1.591-1.006c0.522-0.757,1.405-2.88,1.854-3.187
	c0.168-0.116,0.381,1.703,0.43,1.798c0.129,0.254,1.494,0.622,2.129,1.099c0.994,0.748,2.652,3.271,4.017,3.474
	c-0.006,0.416-0.022,1.405-0.463,1.969c-0.272,0.349-0.985,0.255-1.126,0.597c-0.17,0.411,0.061,0.849,0.268,1.138
	c0,0,1.619-0.05,1.823,0.217c0.203,0.265,0.234,1.25,0.483,1.246c0.247-0.004,2.298-0.539,2.572-0.541
	c0.076-0.246,0.526-1,0.482-1.355c-0.066-0.549-0.432-1.506-0.105-1.625c0.317-0.116,1.117,1.029,1.554,1.084
	c0.188,0.023,1.297-0.725,1.501-0.76c0.689-0.111,0.912,0.76,1.234,0.76c0.701,0,1.998,0.505,2.09,0.975
	c0.129,0.639-0.248,3.364-0.428,3.846c0.422,0.186,1.188,0.221,1.662-0.055c0.33-0.193,1.178-2.156,1.394-2.221
	c0.347-0.102,0.747-0.424,1.046-0.541c0.881-0.342,2.884-0.277,3.727-0.107c0,0,0.246-1.354,0.215-1.734
	c-0.054-0.65-3.183-2.817-3.86-3.574c-0.731-0.818,0.858-2.816,0.858-3.521c0-0.259-0.814-1.514-0.944-1.742
	c-0.162-0.284,0.311-0.722,0.534-1.133c0.261-0.474,0.271-1.198,0.517-1.512c0.821-0.129,1.638-2.003,2.253-2.24
	c0.383-0.147,1.057,0.565,1.49,0.708c0.212,0.071,0.748-0.084,0.894-0.165c0.294-0.162,2.196-0.387,2.524-0.578
	c0.378-0.219,1.253-1.442,1.663-1.083c0.446,0.392,1.243,1.855,1.394,2.546c0.073,0.332,1.045,1.053,1.096,1.408
	c0.098,0.682-0.136,1.072-0.213,1.733c-0.015,0.11,0.551,0.357,0.75,0.433c0.252,0.099,0.834,1.197,1.192,1.084
	c-0.069-0.389-0.14-0.97,0.04-1.138c0.193-0.18,0.945-0.485,1.207-0.609c0.572-0.272,1.564-1.103,2.01-1.341
	c0.168-0.089,0.332-1.193,0.299-1.706c-0.029-0.426-0.465-0.815-0.24-1.015c0.336-0.303,1.199-0.33,1.93-0.162
	c0.834,0.19,1.785,0.925,2.372,0.934c0.915,0.013,2.286-0.836,3.057-0.853C378.008,259.175,377.379,258.142,377.104,257.774"/>
<path fill="#0080FF" d="M383.985,265.518c-0.111-0.383-1.865-1.356-2.226-1.649c-0.214-0.174-0.554-1.118-0.78-1.275
	c-0.293-0.202-0.588,0.234-0.88,0.027c-0.408-0.289-1.696-1.053-1.754-1.565c-0.033-0.289-0.002-1.111-0.24-1.562
	c-0.771,0.017-2.141,0.865-3.056,0.852c-0.588-0.008-1.539-0.743-2.374-0.934c-0.729-0.167-1.593-0.14-1.929,0.163
	c-0.225,0.2,0.213,0.588,0.24,1.015c0.034,0.513-0.131,1.617-0.299,1.706c-0.445,0.237-1.438,1.069-2.01,1.341
	c-0.262,0.123-1.014,0.429-1.207,0.609c-0.18,0.168-0.109,0.748-0.04,1.137c-0.356,0.114-0.94-0.984-1.192-1.083
	c-0.197-0.077-0.765-0.323-0.752-0.433c0.079-0.661,0.313-1.052,0.215-1.734c-0.051-0.354-1.022-1.076-1.096-1.408
	c-0.15-0.69-0.947-2.154-1.394-2.545c-0.41-0.359-1.285,0.864-1.663,1.083c-0.328,0.191-2.23,0.415-2.523,0.578
	c-0.146,0.08-0.683,0.235-0.895,0.165c-0.434-0.144-1.107-0.856-1.49-0.709c-0.613,0.237-1.432,2.112-2.253,2.24
	c-0.244,0.314-0.256,1.039-0.517,1.513c-0.224,0.409-0.696,0.849-0.534,1.132c0.13,0.229,0.944,1.482,0.944,1.743
	c0,0.704-1.59,2.703-0.858,3.521c0.678,0.758,3.807,2.924,3.86,3.574c0.031,0.381-0.215,1.732-0.215,1.732
	c-0.08,0.293-0.002,1.433-0.16,2.492c-0.142,0.947-0.709,1.24-0.59,1.57c0.172,0.48,0.61,1.623,1.18,2.112
	c0.125,0.108,0.636,0.004,0.725,0.058c0.447,0.422,1.419,1.074,2.01,1.242c0.508,0.145,1.311,1.544,1.311,2.199
	c0,0.65-1.127,1.029-1.609,1.57c-0.102,0.113-0.609,1.055-0.428,1.3c0.146,0.198,1.141,0.245,1.179,0.434
	c0.085,0.421-0.678,0.722-0.696,1.082c0.678,0.048,2.446,1.907,2.926,2.167c0.459,0.25,1.533-0.091,2.305,0.163
	c0.542,0.177,0.843,0.896,1.072,1.245c0.563-0.798,2.285-1.281,2.843-1.896c0.47-0.518,0.856-2.111,1.394-2.22
	c0.314-0.063,1.121,1.005,1.502,0.812c0.213-0.107,0.479-1.34,0.858-1.082c0.224,0.152,0.101,2.533,0.106,3.466
	c0.002,0.196,0.791,0.177,0.791,0.177c0.148,0.088,0.533-0.202,0.845-0.041c0.681,0.352,1.086,1.301,1.729,1.178
	c0.431-0.082,0.147-1.75,0.482-2.355s2.024-1.732,2.493-2.275c0.139-0.158-0.198-1.205-0.079-1.422c0.184-0.336,0.827,0.163,1.147,0
	c0.443-0.222,0.641-1.281,1.088-1.502c0.563-0.281,1.323-0.23,1.527-0.488c0.322-0.406-0.936-2.42-1.109-3.146
	c0.213-0.002,1.213-0.001,1.512-0.004c-0.094-0.535-0.176-1.039-0.252-1.409c-0.104-0.509-0.834-0.888-1.147-1.392
	c-0.366-0.588,1.31-2.527,1.296-2.881c-0.014-0.314-0.98-0.977-1.006-1.179c-0.119-0.175,0.4-0.83,0.443-1.178
	c0.082-0.673-0.047-1.095,0.32-1.869c0.187-0.392,0.789-0.868,0.885-1.138c0.113-0.311-0.741-0.449-0.705-0.937
	c0.035-0.452,0.57-1.231,0.865-1.825C384.388,267.245,384.112,265.95,383.985,265.518"/>
<path fill="#00B1F7" d="M396.773,343.357c-0.056-0.168-0.237-0.26-0.348-0.385c-0.111-0.126-1.188-0.06-1.276,0.012
	s0.037,1.006,0.148,1.119c0.109,0.112,0.559-0.423,0.662-0.428c0.105-0.008,0.629,0.24,0.629,0.24S396.803,343.447,396.773,343.357
	 M393.337,313.661c-0.114-0.271,0.33-1.697,0.328-1.967c0-0.236-0.215-0.441-0.166-0.787c0.072-0.524,0.886-1.47,0.945-1.877
	c0.039-0.271-0.102-0.523-0.283-0.77c-0.268-0.362-0.623-0.706-0.627-1.064c-0.063-0.412-0.121-1.416-0.444-1.912
	c-0.278-0.428-2.114-1.291-2.263-1.652c-0.246-0.494-0.642-2.582-0.928-2.775c-0.335-0.225-1.893-0.488-2.451-0.975
	c-0.43-0.376-0.67-1.573-0.964-2.174c-0.342-0.697-1.393-1.661-1.393-2.223c0-0.443,0.925-1.098,0.983-1.828
	c0.041-0.422-0.566-0.662-0.519-1.086c0.112-1.021,1.403-2.123,1.762-2.931c0.278-0.624,0.388-1.753,0.187-2.362
	c0,0-1.727-0.009-2.116-0.562c-0.164-0.233,0.063-0.815-0.037-1.388c-0.078-0.437-1.142-1.232-1.226-1.424
	c-0.256-0.586-0.641-1.438-0.805-2.377c-0.298,0.004-1.299,0.002-1.511,0.004c0.174,0.728,1.431,2.74,1.108,3.147
	c-0.203,0.257-0.963,0.206-1.527,0.487c-0.445,0.222-0.643,1.279-1.086,1.502c-0.321,0.164-0.965-0.336-1.148,0
	c-0.119,0.217,0.217,1.264,0.08,1.423c-0.471,0.542-2.16,1.669-2.494,2.274s-0.052,2.274-0.482,2.356
	c-0.643,0.121-1.049-0.826-1.729-1.179c-0.312-0.161-0.697,0.13-0.845,0.041c0,0-0.79,0.02-0.792-0.176
	c-0.006-0.934,0.117-3.314-0.105-3.467c-0.381-0.258-0.645,0.975-0.859,1.084c-0.38,0.191-1.188-0.877-1.501-0.813
	c-0.537,0.107-0.924,1.701-1.394,2.221c-0.558,0.614-2.28,1.096-2.844,1.895c-0.084,0.18-0.724,0.688-1.018,1.246
	c-0.326,0.617,0.855,1.479,0.912,1.679c0.08,0.284-0.627,1.118-0.43,1.409c0.479,0.701,0.569,1.701,0.858,2.381
	c0.341,0.809,2.513,2.865,3.163,3.521c0.249,0.252-0.128,1.122-0.055,1.733c0.055,0.442,0.594,0.567,0.592,1.083
	c-0.003,0.559-0.417,1.326-0.805,1.679c-0.313,0.202-1.242,0.278-1.556,0.487c-0.229,0.154-1.483,2.32-1.692,2.492
	c-0.695,0.567-1.77,0.217-1.77,0.217c-0.363,0.458-1.104,1.674-1.607,1.895c0.146,0.266,0.549,1.463,0.767,1.42
	c0.497-0.097,1.979-1.344,2.504-0.933c0.347,0.272,0.394,1.028,0.321,1.409c-0.006,0.031-0.213,0.381-0.449,0.779
	c-0.32,0.541-0.557,2.804-1.053,3.607c-0.229,0.37-1.93,0.064-1.984,0.541c0.034,0.633,1.107,1.836,2.253,2.438
	c0.193,0.102,0.798-0.483,0.963-0.375c0.446,0.291,0.755,0.607,0.752,0.971c-0.002,0.425-1.608,0.217-1.715,0.867
	c-0.108,0.132,0.479,0.521,0.925,1.084c0.65,0.818,1.271,1.865,1.271,1.865c-0.038-0.496-0.105-1.014-0.105-1.014l0.523,0.203
	c0,0,0.279,1.615,0.563,1.666c0.241,0.043,0.121-2.803,0.121-2.803c0.221,0.179,1.82,1.129,2.172,1.584
	c0.281,0.365,0.086,1.371,0.08,1.544c-0.003,0.065,0.316,1.239,0.321,1.34c0.433,0.218,1.364-0.163,1.972,0.081
	c0.336,0.136,0.747,1.523,0.952,1.675c-0.303,0.56-1.282,2.131-1.436,2.468c0.52,0.297,2.36-0.049,2.694,0.041
	c0.668,0.182,1.613,0.949,2.092,1.219c0.646,0.365,2.941-0.491,3.297,0.285c0.111,0.239-0.202,1.366-0.08,1.543
	c0.123,0.176,0.757-0.256,1.126-0.324c0.271,0.045,0.987-0.129,1.286-0.203c0.92-0.229,1.753-1.84,2.494-2.356
	c0.041-0.546-0.385-0.809-0.455-1.394c-0.036-0.303,0.418-4.081,0.576-4.252c0.287-0.314,2.959-1.404,2.959-1.404l-0.041-1.421
	l2.856,1.909l1.165-1.504c-0.473-0.351-4.221-3.664-4.264-3.979c-0.098-0.769,0.578-1.26,0.604-1.585
	c0.026-0.316-0.081-1.271-0.081-1.271l0.725-0.354c0,0-0.196,2.86,0.162,3.331c0.355,0.472,2.918,2.365,3.27,2.302l0.563-1.029
	c-0.063-0.475-0.026-2.816-0.026-3.33c0-0.129-0.421-0.728-0.482-1.381c-0.024-0.256,0.294-0.568,0.294-0.568
	s1.073-1.523,1.152-1.924c0.072-0.365,0.32-1.053,0.136-1.258C394.34,313.454,393.337,313.661,393.337,313.661z M387.206,331.959
	c-0.58-0.109-1.366,0.504-1.187,0.812c0.24,0.413,1.58,0.925,1.829,0.833C388.292,333.442,387.517,332.018,387.206,331.959z
	 M393.513,339.188c-0.082-0.048-0.596-1.334-0.947-1.408c-0.35-0.074-1.277,0.75-1.365,0.82s0.194,0.735,0.203,0.894
	c0.008,0.158,1.758,0.539,1.864,0.56c0.05,0.01,0.552-0.284,0.664-0.298c0.147-0.02,0.646,0.093,0.627-0.037
	C394.54,339.587,393.593,339.237,393.513,339.188z"/>
<path fill="#00B1F7" d="M349.417,277.758c0.18-0.48,0.558-3.206,0.43-3.846c-0.094-0.469-1.391-0.975-2.092-0.975
	c-0.321,0-0.545-0.869-1.232-0.759c-0.206,0.034-1.314,0.782-1.503,0.759c-0.435-0.055-1.235-1.199-1.554-1.083
	c-0.325,0.118,0.041,1.076,0.107,1.624c0.043,0.355-0.408,1.11-0.482,1.354c-0.276,0.004-2.327,0.539-2.574,0.543
	c-0.249,0.004-0.279-0.98-0.482-1.246s-1.824-0.217-1.824-0.217c-0.207-0.291-0.438-0.727-0.268-1.137
	c0.141-0.342,0.854-0.248,1.127-0.597c0.441-0.563,0.457-1.554,0.463-1.97c-1.365-0.201-3.022-2.725-4.017-3.473
	c-0.634-0.477-2.001-0.846-2.129-1.099c-0.048-0.095-0.263-1.914-0.431-1.798c-0.449,0.307-1.332,2.429-1.854,3.186
	c-0.252,0.365-0.954,0.871-1.589,1.006c-0.021-0.303-0.069-1.481-0.271-1.734c-0.438-0.547-1.287-0.411-1.865-0.887
	c-0.221-0.183-0.49-1.232-0.717-1.41c-0.713-0.563-1.605-1.248-2.178-1.839c-0.472-0.49-1.552-1.01-2.262-1.531
	c-0.477-0.35-1.525-1.285-1.488-2.153c-0.085-0.391-0.156-1.991-0.027-2.372c0.065-0.191,0.729-0.055,0.953-0.43
	c0.342-0.577,0.267-1.708,0.241-1.991c-0.041-0.447-1.827-0.065-1.931-0.447c-0.186-0.684-0.155-2.787-0.563-3.411
	c-0.142-0.218-1.256-1.301-1.568-1.301c-0.483,0-0.725,0.244-1.088,0.126c-0.461-0.15-0.772-0.439-0.803-0.654
	c-0.08-0.569,0.801-1.122,0.719-1.948c-0.051-0.516-0.108-0.941-0.276-1.017c-0.351-0.157-0.464,0.519-0.844,0.285
	c-0.382-0.235-0.995-0.932-1.22-1.274c-0.178-0.266,0.363-0.697,0.349-1.001c-0.03-0.581-0.853-2.387-0.658-3.128
	c0.106-0.4,0.894-0.588,1.006-1.096c0.142-0.651,0.394-2.687,0.401-2.966c0.009-0.289-1.662-0.039-1.867,0.054
	c-0.675,0.306-1.51,1.734-1.953,1.936c-0.365,0.169-1.71-0.092-2.251-0.121c-0.331-0.018-0.282-0.696-0.764-0.772
	c-0.782-0.124-2.021,0.213-2.214,0.446l-0.889-0.039c0.09,0.567,0.231,1.273,0.029,1.46c-0.273,0.253-2.119,0.58-2.238,0.699
	c-0.475,0.475,0.547,2.214,0.323,2.836c-0.201,0.564-1.817,0.147-2.313,0.397c-0.101,0.049-1.106,1.393-1.408,1.398
	c-0.43,0.007-1.153-0.671-1.471-0.628c-0.75,0.1-1.762,0.016-2.863,0.328c-0.482,0.251-0.699,2.054-1.206,2.649
	c-0.567,0.663-2.078,1.174-2.664,1.713c-0.378,0.348-0.808,1.311-1.081,1.696c-0.316,0.445-1.434,1.302-1.784,1.625
	c-0.151,0.427,2.528,0.39,3.013,0.536c0.151,0.044,0.183,0.997,0.707,1.19c0.461,0.17,1.418-0.416,1.608-0.4
	c0.26,0.023,0.42,0.828,1.104,1.299c0.778,0.534,1.707,0.424,2.078,0.55c0.395,0.942,1.229,4.626,1.188,5.317
	c0,0,0.92,0.941,1.303,1.131c0.542,0.267,0.249,1.654,0.054,1.843c-0.619,0.596-2.35,0.387-3.041,0.902
	c-0.24,0.178,0.188,1.173,0.485,1.277c0.549,0.19,1.353-0.351,2.08-0.361c0.274-0.005,1.839,0.652,2.108,0.699
	c1.73,0.297,3.436,0.542,5.129,0.507c0.523,0.44,1.104,1.028,0.99,1.634c-0.192,1.033,0.037,3.002-0.24,3.648
	c-0.215,0.498-0.922,1.162-1.139,1.684c-0.218,0.522-0.187,1.747-0.067,2.549c0,0,1.206-0.028,1.837,0.166
	c0.425,0.131,0.361,0.849,0.361,1.139c0,0.486-1.496,3.392-1.944,4.77c-0.177,0.543-0.181,1.489,0.457,1.811
	c0.913,0.459,2.61,0.744,3.362,0.771c0.313,0.4,1.037,0.822,1.084,1.219c0.058,0.479-0.621,0.92-0.889,1.224
	c-0.099,0.112,0.049,1.221-0.035,1.376c-0.551,1.011-1.592,1.508-1.932,2.561c-0.188,0.584-0.587,1.813-0.48,2.477
	c0.25,0.166,1.724,0.955,1.875,1.232c0.217,0.398,0.157,1.113,0.215,1.463c0.518-0.022,1.005-0.187,1.608,0.053
	c1.661,0.66,3.222,2.359,4.128,2.492c0.543,0.078,0.584-0.739,1.225-0.84c0.672-0.107,2.342-0.203,2.885-0.418
	c-0.186-0.357-0.932-0.871-0.852-1.213c0.135-0.572,1.465-1.378,1.354-1.917c-0.085-0.416-0.944-1.237-0.656-1.542
	c0.265-0.279,0.661-0.805,0.739-1.127c0.129-0.521-0.184-1.078-0.029-1.718c0.145-0.601,0.749-1.283,1.026-1.735
	c0.118-0.193,0.26-0.914,0.313-1.188c0.166-0.034,0.764-0.488,0.965-0.488c0.591,0,0.752,0.379,1.287,0.433
	c0.146,0.016,2.162,0.813,2.307,0.813c0.322,0,1.716-0.922,1.716-0.922c0.172,0.491,0.498,0.897,0.603,1.345
	c0.158,0.688,0.494,2.082,0.77,2.629c0.059,0.115,0.621,0.514,0.818,0.444c0.267-0.095,0.4-0.733,0.49-1.06
	c0.084-0.301,1.24,0.551,1.448,0.596c-0.03-0.438-0.233-1.362,0.054-1.732c0.431-0.558,1.348-0.847,1.666-1.268
	c0.451-0.602,2.748-0.073,3.562-0.309c0.596,0.327,1.909,1.103,2.674,1.416c0.392,0.16,0.997,0.541,1.226,0.645
	c0.396,0.121,1.768,0.599,2.187,0.652c0.446,0.057,0.429,0.926,0.858,0.92c0.529-0.004,2.063-1.264,2.658-1.477
	c-0.078-0.65-0.193-1.559,0.184-2.042c0.436-0.56,1.542-1.924,1.769-2.547c0.134-0.365-0.591-0.894-0.612-1.408
	c-0.026-0.649,0.438-1.312,0.375-1.948c-0.059-0.59-0.578-1.134-0.358-1.559C348.646,279.375,349.444,277.829,349.417,277.758"/>
<path fill="#F3FF00" d="M369.798,304.188c-0.074-0.609,0.303-1.482,0.054-1.732c-0.649-0.656-2.821-2.713-3.163-3.521
	c-0.289-0.682-0.381-1.681-0.859-2.383c-0.196-0.289,0.511-1.125,0.43-1.408c-0.057-0.2-1.236-1.062-0.912-1.679
	c0.295-0.559,0.936-1.066,1.02-1.246c-0.229-0.35-0.531-1.068-1.072-1.246c-0.772-0.254-1.846,0.088-2.307-0.162
	c-0.477-0.26-2.248-2.12-2.926-2.166c0.018-0.361,0.783-0.663,0.698-1.084c-0.039-0.188-1.034-0.236-1.181-0.433
	c-0.183-0.245,0.328-1.187,0.429-1.3c0.483-0.541,1.608-0.922,1.608-1.571c0-0.653-0.801-2.054-1.31-2.198
	c-0.591-0.168-1.562-0.82-2.009-1.243c-0.09-0.053-0.6,0.052-0.727-0.057c-0.568-0.489-1.006-1.632-1.179-2.113
	c-0.118-0.329,0.448-0.622,0.59-1.569c0.157-1.06,0.08-2.199,0.16-2.492c-0.842-0.168-2.844-0.232-3.726,0.109
	c-0.299,0.116-0.7,0.438-1.047,0.541c-0.215,0.063-1.063,2.028-1.394,2.221c-0.472,0.275-1.239,0.24-1.662,0.054
	c0.026,0.069-0.772,1.618-0.948,1.963c-0.22,0.425,0.299,0.968,0.358,1.558c0.063,0.637-0.401,1.299-0.375,1.949
	c0.021,0.516,0.747,1.043,0.614,1.408c-0.229,0.623-1.336,1.986-1.771,2.547c-0.377,0.482-0.261,1.393-0.184,2.042
	c0.529,0.257,1.816,0.367,2.744,0.813c0.527,0.254,1.682,1.711,1.932,1.951c0.321,0.307,0.182,1.189,0.281,1.178
	c0.318-0.04,1.854,0.01,2.332,0.021c0.554,0.015,1.109,0.087,1.421,0.277c0.024,0.39,0.634,1.547,0.751,2.22
	c0.132,0.762-0.196,1.961-0.268,2.438c-0.08,0.531-0.59,1.488-0.912,1.949c-0.383,0.547-1.903,1.006-2.037,1.625
	c-0.072,0.33,0.785,0.437,1.018,0.65c0.17,0.155-0.044,0.948,0,1.191c0.63,0.065,1.967,0.558,2.52,1.354
	c0.322,0.463,0.521,1.353,0.537,1.765c0.002,0.051,0.691,0.24,1.193,0.746c0.954,0.959,2.082,2.514,2.508,2.612
	c0,0,0.096-1.202,0.696-1.462c0.601-0.262,2.002,0.534,2.627,0.703c0.242,0.066,0.215,1.138,0.215,1.138s1.074,0.353,1.769-0.217
	c0.209-0.17,1.464-2.337,1.693-2.491c0.314-0.21,1.243-0.285,1.555-0.488c0.389-0.353,0.803-1.119,0.804-1.678
	C370.39,304.755,369.852,304.629,369.798,304.188"/>
<path fill="#0080FF" d="M356.596,295.472c-0.117-0.675-0.726-1.831-0.75-2.222c-0.312-0.19-0.867-0.262-1.422-0.275
	c-0.479-0.011-2.013-0.063-2.331-0.021c-0.1,0.012,0.039-0.871-0.282-1.178c-0.25-0.24-1.403-1.697-1.931-1.951
	c-0.928-0.446-2.215-0.557-2.744-0.813c-0.594,0.214-2.128,1.474-2.658,1.478c-0.428,0.004-0.412-0.865-0.857-0.92
	c-0.418-0.054-1.791-0.531-2.186-0.652c-0.23-0.104-0.834-0.485-1.227-0.646c-0.764-0.313-2.078-1.088-2.674-1.417
	c-0.813,0.237-3.11-0.291-3.563,0.309c-0.316,0.422-1.236,0.711-1.666,1.268c-0.286,0.372-0.084,1.296-0.053,1.734
	c-0.209-0.045-1.364-0.897-1.448-0.596c-0.09,0.325-0.226,0.965-0.492,1.059c-0.196,0.07-0.759-0.329-0.817-0.443
	c-0.275-0.548-0.61-1.941-0.771-2.63c-0.104-0.448-0.429-0.853-0.601-1.345c0,0-1.395,0.922-1.715,0.922
	c-0.146,0-2.162-0.799-2.307-0.813c-0.537-0.055-0.697-0.434-1.287-0.434c-0.201,0-0.8,0.454-0.965,0.488
	c-0.055,0.274-0.195,0.994-0.314,1.188c-0.278,0.454-0.883,1.137-1.026,1.736c-0.154,0.64,0.157,1.197,0.03,1.719
	c-0.078,0.321-0.476,0.846-0.74,1.126c-0.289,0.304,0.572,1.126,0.656,1.543c0.109,0.538-1.221,1.345-1.354,1.916
	c-0.082,0.343,0.665,0.854,0.851,1.213c0.248-0.036,1.16,0.097,1.416,0.011c0.071,0.426-0.799,1.428-0.59,1.681
	c0.324,0.393,1.316,0.817,1.607,1.245c0.232,0.338,0.295,1.574,0.425,1.957c0.414,0.233,0.731,0.477,0.755,0.426
	c0.268-0.541,0.494-1.811,0.967-1.896c0.549-0.1,1.315,0.389,1.769,0.488c0.774,0.264,3.075,1.044,4.075,1.842
	c0.449,0.356,0.478,1.153,0.75,1.245c0.482,0.162,0.912-0.379,1.287-0.054c0.711,0.615,2.689,2.801,3.271,3.304
	c0.45-0.296,1.407-0.767,2.306-0.866c0.659-0.074,1.289,0.211,1.662,0.107c0.266-0.072,1.229-1.586,1.609-1.625
	c1.072-0.107,1.52,0.938,2.628,1.518c0.155,0.082,1.196,0.219,1.394,0.217c0.383,0.115,0.696,0.832,0.922,1.022
	c0.291,0.25,1.381,0.769,1.385,1.035c0.572,0.041,1.248,0.19,1.822,0c0.568-0.188,1.316-0.917,1.931-1.138
	c0.5-0.18,0.876,0.166,1.272-0.114c0.301-0.213,0.45-2.062,0.657-2.485c0.237-0.484,0.845-1.104,1.126-1.408
	c-0.044-0.242,0.17-1.037,0-1.191c-0.232-0.215-1.089-0.321-1.02-0.65c0.135-0.617,1.656-1.078,2.039-1.625
	c0.324-0.462,0.832-1.418,0.91-1.949C356.399,297.432,356.729,296.233,356.596,295.472"/>
<path fill="#0080FF" d="M310.372,284.198c-0.752-0.029-2.448-0.313-3.361-0.772c-0.639-0.32-0.635-1.269-0.458-1.81
	c0.448-1.379,1.946-4.283,1.946-4.771c0-0.288,0.062-1.005-0.362-1.137c-0.632-0.195-1.837-0.166-1.837-0.166
	c-0.12-0.803-0.15-2.027,0.068-2.549c0.217-0.521,0.922-1.188,1.137-1.686c0.277-0.645,0.048-2.613,0.24-3.648
	c0.114-0.604-0.465-1.192-0.989-1.633c-1.693,0.035-3.399-0.211-5.128-0.507c-0.271-0.047-1.836-0.703-2.108-0.7
	c-0.729,0.012-1.532,0.552-2.082,0.362c-0.297-0.103-0.723-1.098-0.483-1.277c0.69-0.514,2.42-0.306,3.039-0.902
	c0.196-0.19,0.489-1.576-0.054-1.844c-0.383-0.188-1.301-1.131-1.301-1.131c-0.032,0.533-1.404,1.032-1.586,0.892
	c-0.547-0.423-1.05-1.499-2.011-1.267c-0.95,0.231-1.217,2.393-1.541,2.732c-0.569-0.137-1.285-0.084-1.815-0.379
	c-0.233-0.129-1.213-0.174-2.165-0.434c-1.318-0.359-2.706-0.908-3.068-0.678c-0.305,0.195-0.188,0.877-0.484,1.154
	c-0.288,0.59-1.893,0.723-2.189,0.958c-0.466,0.367-2.753,2.837-3.285,3.196c-0.447,0.305-1.797,0.399-2.076,0.451
	c-0.717,0.133-1.117,1.489-1.895,1.684c0.48,0.808,2.622,3.512,2.965,4.143c0.164,0.366,0.803,0.568,0.935,1.057
	c0.254,0.949-0.216,1.905,0,2.619c0.122,0.405,2.585,1.379,2.559,2.111c-0.008,0.23-0.948,0.643-1.056,0.977
	c-0.307,0.939-0.746,3.576-0.605,4.67c0.028,0.211,1.004,0.244,1.133,0.527c0.066,0.223,0.312,1.66,0.528,1.625
	c0.164-0.025,1.187-0.764,1.382-0.771c0.258-0.01,0.567,0.771,0.567,0.771l-0.528,1.545c-0.218,0.014-1.193-0.309-1.23-0.18
	c-0.118,0.395-0.361,1.303-0.264,1.702c0.127,0.508,0.645,1.161,0.455,1.598c-0.396,0.911-1.676,2.593-2.015,3.505
	c-0.144,0.389-0.465,2.561-0.562,3c-0.199,0.928,0.429,1.318,0.123,2.194c-0.285,0.812-2.695,1.499-3.189,2.269
	c0.195,0.256,1.395,1.006,2.418,1.713c0.789,0.545,0.811,1.563,1.38,1.502c0.772-0.082,1.706-2.519,2.153-3.006
	c0.383-0.418,1.052-0.478,1.537-0.512c0.586-0.041,0.597-1.367,0.856-1.859c0.326-0.619,1.683-0.181,2.318-0.188
	c0.614,0.018,2.524-0.164,3.379-0.184c0.485-0.01,1.556-1.45,1.86-1.156c0.119,0.124,1.547,1.051,1.625,1.097
	c0.351,0.201,1.648,2.119,1.528,2.685c-0.161,0.765-1.223,1.996-1.099,2.645c0.119,0.624,0.775,2.238,0.775,3.119
	c0,0.684-0.649,0.868-0.57,1.482c0.061,0.47,0.833,1.098,0.833,1.098c0.399-0.234,1.098-1.213,1.36-1.686
	c0.203-0.367-0.172-1.484,0.32-1.701c0.678-0.297,3.705-0.842,3.896-0.94c0.769-0.392,1.223-1.832,1.914-2.369
	c0.547-0.426,2.677-0.761,3.484-0.542c0.217-0.289,0.643-0.684,0.858-1.137c0.218-0.459-0.074-1.51,0.108-2.059
	c0.53-1.611,1.553-3.953,1.553-3.953c-0.057-0.349,0.005-1.064-0.213-1.463c-0.151-0.277-1.627-1.065-1.877-1.231
	c-0.105-0.663,0.293-1.894,0.482-2.478c0.339-1.052,1.38-1.549,1.93-2.56c0.084-0.155-0.063-1.265,0.035-1.376
	c0.268-0.302,0.947-0.745,0.891-1.225C311.411,285.018,310.686,284.598,310.372,284.198"/>
<path fill="#0080FF" d="M284.659,287.482l0.528-1.544c0,0-0.312-0.781-0.569-0.771c-0.192,0.009-1.215,0.746-1.381,0.771
	c-0.217,0.035-0.462-1.402-0.527-1.624c-0.131-0.284-1.106-0.317-1.133-0.528c-0.142-1.095,0.299-3.73,0.604-4.672
	c0.108-0.332,1.047-0.744,1.056-0.975c0.027-0.732-2.437-1.706-2.559-2.111c-0.214-0.715,0.254-1.67,0-2.619
	c-0.13-0.488-0.771-0.69-0.934-1.057c-0.344-0.63-2.483-3.336-2.967-4.143c-0.457,0.115-2.048-1.125-2.527-1.352
	c-0.521-0.244-0.855,1.305-1.408,1.266c-0.465-0.031-1.775-0.655-2.412-0.666c-0.915-0.014-3.52-0.082-4.021-0.199
	c-0.282-0.067-0.252-0.643-0.401-1.064c-0.127-0.357-2.164-2.02-2.547-1.933c-0.229,0.051-1.464,1.208-1.541,1.466
	c-0.129,0.43,0.348,1.842,0.213,2.174c-0.08,0.198-1.382,0.277-1.621,0.356c-0.91,0.306-1.603,2.452-2.012,2.511
	c-0.362,0.053-1.635-0.461-2.011-0.799c-0.218-0.197,0.209-1.254,0.203-1.645c-0.307-0.185-0.871-1-1.943-1
	c-0.524,0-3.604,1.582-4.289,1.799c-0.317,0.102-1.895-1.856-2.211-1.666c-0.417,0.252-1.588,1.565-1.808,2.063
	c-0.265,0.601-0.24,1.613-0.625,1.667c-0.349,0.049-1.865-0.421-2.125-0.666c-0.397-0.373-0.727-2.045-0.737-2.73
	c-0.01-0.612-1.117-0.498-1.811-0.801c-0.554-0.24-1.09-0.746-1.876-0.664c0,0-1.345,0.121-1.272,0.864
	c0.037,0.396,0.448,2.56,0.268,2.933c-0.273,0.56-1.328,1.406-1.743,1.865c-0.454,0.502-0.651,3.502-1.133,3.979
	c-0.226,0.225-2.111-0.324-2.486-0.182c-0.407,0.155-0.828,1.959-1.139,2.265c-0.214,0.211-1.266-0.574-1.742-0.267
	c-0.675,0.436-4.202,3.367-4.507,3.664c-0.257,0.25-0.953,0.416-1.252,0.539c-0.124,0.426-0.208,1.559,0.168,1.795
	c0.876,0.551,2.475,0.274,3.296,0.864c0.381,0.272,0.15,1.419-0.067,1.864c-0.024,0.051-1.39,2.299-2.485,4.12
	c0.196,0.161,0.895,2.032,1.139,2.073c0.721-0.027,3.354-0.352,3.818-0.691c0.288-0.211-0.074-1.05,0.163-1.544
	c0.196-0.411,0.424-0.415,0.689-0.812c0.46-0.688,0.574-1.312,0.731-1.787c0.126-0.379,0.723-0.26,1.097,0
	c0.282,0.195,0.596,1.213,1.097,1.259c0.5,0.047,1.653-0.5,1.787-0.853c0.275-0.725,0.442-1.226,0.935-1.504
	c0.444-0.251,2.576,0.379,2.884,0.488c0.209,0.074,0.067,0.914,0.447,1.096c0.651,0.315,1.631,1.264,1.948,1.016
	c0.208-0.16,0.183-0.498,0.447-0.893c0.469-0.697,1.048-1.154,1.585-1.585c0.374-0.301,0.707-0.72,1.057-0.649
	c0.134,0.343,1.066,1.094,1.34,1.097c0.521,0.005,1.272-2.923,1.3-3.29c0.081-1.139,1.633-2.857,2.314-2.803
	c0.75,0.061,1.364,1.228,2.275,1.99c0.251,0.209,1.201,0.198,1.365,0.355c0.243,0.232-0.383,1.227-0.512,2.082
	c-0.118,0.786,0.255,1.438,0.568,1.665c-0.004,0.508-0.356,1.312-0.771,1.827c-0.415,0.518-0.893,0.748-1.098,1.017
	c0.436,0.411,1.151,1.029,1.301,1.664c0.044,0.19-0.202,0.703-0.163,0.935c0.054,0.309,0.699,0.724,0.772,1.057
	c0.21,0.969-0.299,1.918-0.081,2.617c0.081,0.263,1.478,1.053,1.685,1.179c0.526,0.326,2.378-0.252,3.573-0.284
	c0.361-0.009,0.567,0.71,0.595,1.364c0.344-0.015,0.544,0.419,1.126,0.478c0.586,0.061,1.555-0.254,1.678-0.324
	c0.432-0.246,1.24,1.195,1.679,1.408c0.598,0.288,2.601-3.057,3.382-3.399c0.407-0.179,1.687-0.034,2.128-0.019
	c0.002,0.198-0.289,1.201-0.201,1.252c0.457,0.254,1.359,0.348,1.733,0.648c0.827,0.665,0.966,1.479,1.423,1.215
	c0.614-0.355,1.894-1.77,2.395-1.79c0.911-0.037,0.859,2.208,1.428,2.873c0.26,0.304,1.198,0.633,1.747,0.513
	c0.493-0.771,2.905-1.455,3.188-2.269c0.308-0.875-0.32-1.269-0.121-2.192c0.095-0.441,0.418-2.613,0.561-3.002
	c0.34-0.912,1.619-2.595,2.016-3.506c0.188-0.436-0.33-1.089-0.455-1.597c-0.099-0.398,0.144-1.308,0.263-1.703
	C283.467,287.174,284.439,287.497,284.659,287.482"/>
<path fill="#0080FF" d="M373.092,328.173c-0.606-0.244-1.538,0.137-1.97-0.081c0.023,0.186-0.188,0.796-0.604,1.097
	c-0.334,0.243-0.859,0.179-1.046,0.326c-0.194,0.149,0.214,0.692-0.281,0.771c-0.413,0.065-0.895-0.515-0.965-0.487
	c-0.261,0.103-0.885,0.854-0.845,1.544c0.017,0.283,0.965,0.65,1.247,0.527c0.091-0.039,0.886-0.955,1.024-0.975
	c0.141-0.02,0.842,0.563,1.192,0.523c0.31-0.034,1.065-1.631,1.241-1.498c0.306,0.23,0.033,2.109,0.521,2.398
	c0.154-0.339,1.135-1.912,1.438-2.471C373.84,329.698,373.429,328.309,373.092,328.173 M370.844,333.29
	c-0.579-0.109-1.151-0.909-1.452-0.647c-0.283,0.248-0.218,2.413-0.039,2.722c0.239,0.414,0.997,0.863,1.246,0.771
	c0.441-0.162,1.475-2.604,1.215-2.834C371.63,333.136,371.153,333.348,370.844,333.29z M367.446,325.573
	c0,0-0.621-1.047-1.271-1.867c-0.447-0.562-1.035-0.951-0.927-1.084c0.108-0.649,1.715-0.441,1.718-0.865
	c0.002-0.363-0.308-0.68-0.754-0.973c-0.164-0.106-0.77,0.478-0.964,0.377c-1.145-0.602-2.219-1.806-2.252-2.438
	c0.056-0.476,1.757-0.171,1.984-0.541c0.497-0.802,0.732-3.065,1.053-3.606c0.237-0.399,0.443-0.75,0.449-0.779
	c0.072-0.381,0.024-1.137-0.322-1.408c-0.522-0.412-2.006,0.834-2.504,0.93c-0.218,0.043-0.619-1.152-0.766-1.418
	c0.503-0.222,1.243-1.437,1.607-1.896c0,0,0.027-1.072-0.215-1.138c-0.625-0.17-2.025-0.965-2.627-0.705
	c-0.601,0.262-0.697,1.463-0.697,1.463c-0.424-0.096-1.553-1.652-2.506-2.612c-0.502-0.505-1.191-0.694-1.193-0.745
	c-0.018-0.413-0.215-1.302-0.536-1.766c-0.554-0.797-1.892-1.287-2.521-1.354c-0.281,0.305-0.889,0.924-1.127,1.408
	c-0.207,0.422-0.354,2.273-0.655,2.484c-0.398,0.281-0.774-0.064-1.273,0.115c-0.614,0.221-1.362,0.949-1.931,1.137
	c-0.575,0.19-1.249,0.041-1.823,0c-0.071,0.062-0.651,0.44-0.858,0.813c-0.262,0.474-0.162,0.964-0.268,1.082
	c-0.141,0.158-1.092,0.045-1.287,0.162c-0.268,0.164-0.271,0.646-0.537,1.084c-0.465,0.772-1.766,2.229-1.822,3.033
	c-0.022,0.315,0.425,0.972,0.644,1.19c0.603-0.254,1.556-0.518,1.823-0.27c0.306,0.281,0.517,1.511,0.965,1.354
	c0.443-0.156,1.023-0.142,1.449-0.324c0.117-0.051,1.171-1.688,1.285-1.733c0.375-0.149,1.391,1.376,1.717,1.353
	c0.699-0.049-0.487,1.164,0.121,2.957c0.078,0.228,0.615,0.146,0.736,0.131c0.162,0.252,0.252,1.309,0.656,1.842
	c0.318,0.418,0.964,0.316,1.086,0.568c0.247,0.508-0.121,1.168,0.241,1.463c0.133,0.107,1.321-0.047,1.569,0.082
	c0.281,0.144,1.007,0.914,1.045,1.259c0.019,0.157-0.459,0.436-0.563,0.771c-0.104,0.336,0.166,0.729,0.04,0.936
	c-0.297,0.482-1.423,1.382-1.647,1.867c-0.229,0.492,0.803,1.91,1.205,1.99c0.402,0.041,1.166-0.852,1.689-0.324
	c0.189,0.192-0.725,1.381-1.005,1.748c0.53-0.205,3.465-1.215,4.543-1.566c0.937-0.305,2.151-1.137,2.535-1.178
	c0.448-0.049,1.567,0.183,1.97,0.08c0.254-0.063,0.93-0.16,1.286-0.445c0.267-0.215,0.257-0.71,0.524-1.098
	c0.227-0.33,0.742-0.563,0.884-0.649C367.493,326.424,367.48,326.006,367.446,325.573z M363.642,328.866
	c-0.47,0.03-0.98,0.252-1.367,0.445c0.268,0.434,0.313,1.452,0.643,2.234c0.332,0.781,0.951,1.326,1.207,1.503
	c0.164-0.115,1.107-1.121,1.67-1.604c0.16-0.139,0.447-0.037,0.481-0.102c0.214-0.409,0.341-1.669,0.101-2.112
	C366.258,329.023,364.085,328.845,363.642,328.866z"/>
<path fill="#00B1F7" d="M356.891,329.597c-0.524-0.528-1.288,0.366-1.69,0.324c-0.401-0.081-1.435-1.499-1.207-1.99
	c0.228-0.485,1.354-1.385,1.65-1.868c0.125-0.206-0.145-0.599-0.041-0.935c0.104-0.335,0.581-0.612,0.563-0.771
	c-0.037-0.344-0.765-1.114-1.045-1.259c-0.248-0.129-1.436,0.025-1.568-0.081c-0.363-0.296,0.005-0.955-0.242-1.463
	c-0.121-0.252-0.768-0.151-1.085-0.569c-0.405-0.531-0.494-1.589-0.657-1.841c-0.121,0.017-0.66,0.097-0.736-0.131
	c-0.607-1.792,0.578-3.006-0.121-2.956c-0.325,0.023-1.342-1.503-1.717-1.355c-0.113,0.047-1.168,1.683-1.287,1.733
	c-0.424,0.183-1.004,0.169-1.446,0.326c-0.448,0.157-0.66-1.073-0.966-1.354c-0.269-0.248-1.221,0.016-1.822,0.271
	c-0.219-0.22-0.666-0.875-0.643-1.19c0.054-0.805,1.355-2.263,1.821-3.033c0.267-0.44,0.269-0.922,0.536-1.084
	c0.196-0.119,1.146-0.004,1.288-0.162c0.104-0.119,0.005-0.609,0.269-1.084c0.205-0.371,0.785-0.75,0.857-0.813
	c-0.003-0.268-1.093-0.783-1.386-1.033c-0.224-0.191-0.537-0.908-0.921-1.024c-0.195,0.002-1.238-0.134-1.394-0.216
	c-1.108-0.58-1.555-1.625-2.628-1.517c-0.382,0.038-1.343,1.552-1.609,1.624c-0.373,0.104-1.002-0.181-1.662-0.107
	c-0.899,0.101-1.854,0.57-2.305,0.865c-0.58-0.502-2.561-2.688-3.271-3.303c-0.375-0.324-0.806,0.216-1.287,0.055
	c-0.272-0.093-0.304-0.889-0.751-1.246c-1.001-0.797-3.303-1.578-4.075-1.843c-0.453-0.099-1.221-0.586-1.771-0.485
	c-0.469,0.084-0.696,1.353-0.963,1.895c-0.026,0.051-0.344-0.193-0.758-0.427c-0.254,0.144-0.746,1.051-1.066,1.187
	c-0.436,0.18-0.738-0.447-1.02-0.164c-0.429,0.434,0.643,2.383,0.375,2.816c-0.382,0.618-2.361,1.4-2.895,1.57
	c-0.354,0.113-0.729-0.322-0.911-0.107c-0.183,0.214-0.17,1.076-0.326,1.387c-0.18,0.353-0.162,0.9,0.058,1.375
	c0.261,0.118,0.412,0.961,0.75,1.354c0.233,0.271,3.504,0.808,3.701,0.922c0.848,0.486,0.551,1.609,1.125,2.438
	c0.371,0.532,1.037,2.063,1.233,2.599c0.114,0.31,0.546,0.051,0.805,0.325c0.372,0.396,0.62,1.31,1.019,1.679
	c0.06,0.674,0.385,2.067-0.107,2.33c-0.628,0.334-2.809-1.903-3.378-1.084c-0.543,0.778,1.824,2.815,1.556,3.356
	c-0.178,0.359-1.094,0.674-1.233,1.029c-0.123,0.314,0.339,0.91,0.481,1.301c0.59-0.066,1.114,0.206,1.127,0.271
	c0.096,0.523,0.203,1.746,0.107,2.707c-0.057,0.566-0.338,0.869-0.322,1.355c0.029,0.905,0.813,1.691,1.073,2.219
	c0.168,0.344,0.963,0.065,1.556,0.218c0.687,0.175,1.19,0.767,1.555,1.028c0.564,0.405,0.428,2.112,0.428,2.112
	c0.054,0.595,0.083,1.354,0.27,1.462c0.322,0.188,0.885,0.549,1.447,0.65c0.57,0.102,0.768-0.748,1.072-0.65
	c0.615,0.197,1.322,1.282,1.929,1.518c0.226,0.085,0.593-0.059,1.019,0.054c0.188,0.048,0.498-0.828,0.699-0.759
	c0.666,0.232,1.982,0.434,2.358,0.866c0.298,0.344,0.319,1.805,0.215,2.438c1.119-0.187,2.108-0.651,3.377-0.866
	c0.192-0.033,0.497,0.539,0.698,0.487c0.472-0.121,1.473-1.534,1.931-1.624c0.456-0.092,2.136,0.147,2.523-0.023
	c0.317-0.14,0.795-2.018,0.909-3.143c0.055-0.535,0.772-3.837,0.856-4.038c0.142-0.341-0.616-1.084-0.616-1.084
	c0.475-0.229,2.641,0.931,3.096,1.179c0.24,0.131,0.91,0.687,1.125,0.813c0.281,0.164,1.729-0.375,2.138-0.542
	c0.298-0.121,1.974-1.028,2.327-1.164C356.165,330.977,357.081,329.79,356.891,329.597 M350.897,336.462
	c-0.127-0.027-1.251,0.36-1.287,0.559c-0.072,0.404-0.054,1.091-0.215,1.611c-0.115,0.373-0.404,0.594-0.509,0.864
	c-0.29,0.76,0.239,1.222,0.282,1.878c0.011,0.177-0.783-0.124-0.766,0.161c0.041,0.632,1.709,1.806,2.133,1.559
	c0.819-0.48,1.483-1.815,1.647-2.757C352.346,339.417,352.038,336.694,350.897,336.462z"/>
<path fill="#0080FF" d="M370.844,333.29c0.31,0.059,0.786-0.153,0.97,0.012c0.26,0.23-0.773,2.672-1.215,2.834
	c-0.249,0.092-1.007-0.357-1.246-0.771c-0.179-0.309-0.244-2.474,0.039-2.722C369.692,332.38,370.265,333.18,370.844,333.29
	 M365.794,331.444c-0.563,0.483-1.182,1.313-1.182,1.635c-0.443,0.894,0.019,2.24-0.482,2.722c-0.329,0.317-3.432,1.112-3.861,0.813
	c-0.3-0.211-1.125-0.854-1.406-1.261c-0.236-0.339-0.105-1.401-0.162-2.376c-0.043-0.755-0.459-1.402-0.342-1.624
	c0.167-0.315,2.532-0.84,2.676-0.894c0.445-0.174,1.186-0.995,1.728-1.117c0.269,0.432,0.41-0.446,0.88-0.477
	c0.443-0.021,2.616,0.157,2.734,0.364c0.24,0.443,0.113,1.703-0.101,2.112C366.241,331.407,365.954,331.305,365.794,331.444z
	 M372.608,332.319c-0.488-0.289-0.216-2.168-0.521-2.398c-0.176-0.133-0.932,1.464-1.241,1.498
	c-0.351,0.039-1.052-0.543-1.192-0.523c-0.139,0.02-0.934,0.936-1.024,0.975c-0.282,0.123-1.23-0.244-1.247-0.527
	c-0.04-0.689,0.584-1.441,0.845-1.544c0.07-0.027,0.552,0.553,0.965,0.487c0.495-0.078,0.087-0.621,0.281-0.771
	c0.187-0.147,0.712-0.083,1.046-0.326c0.415-0.301,0.627-0.911,0.604-1.097c0.432,0.218,1.363-0.163,1.97,0.081
	c0.337,0.136,0.748,1.524,0.954,1.675C373.743,330.407,372.763,331.98,372.608,332.319z M373.405,339.498
	c-0.084,0.415-0.928,0.291-1.406,0.494c-0.416,0.439-1.348,0.495-1.529,0.406c-0.09-0.326,0.639-0.96,0.482-1.3
	c-0.182-0.398-0.863-0.355-0.698-0.711c0.2-0.439,2.393-1.671,3.286-1.537C373.77,336.884,373.532,338.885,373.405,339.498z
	 M380.347,336.823c-0.409,0.224-1.538,0.256-2.212,0.61c-0.916,0.481-1.603,1.578-2.252,1.543c-0.765-0.041-1.657-1.396-1.751-2.159
	c-0.067-0.541,2.394-2.512,3.682-2.593c0.18-0.012,0.51,1.677,0.896,1.759c0,0,1.69-1.353,1.998-1.109
	C380.913,335.036,380.549,336.499,380.347,336.823z M358.339,334.013c-0.147,0.222-1.446,0.614-1.689,0.428
	c-0.167-0.128-0.128-0.543-0.281-0.874c-0.176-0.379-0.528-0.682-0.442-0.914c0.103-0.277,1.557-1.3,1.971-1.035
	C358.284,331.864,358.462,333.827,358.339,334.013z M345.307,345.622c-0.146,0.015-1.647-0.519-1.608-1.357
	c0.06-1.24,0.684-2.77,1.861-3.476c0.18-0.108,0.553,0.028,0.598,0.198c0.207,0.767,0.676,2.263,0.678,2.598
	C346.839,344.207,346.239,345.533,345.307,345.622z M354.476,344.96c0.426,0.888,0.65,2.219,0.201,2.763
	c-0.223,0.269-1.077,1.074-1.836,1.463c-0.535,0.273-1.023,0.149-1.221,0.284c-0.656,0.446-0.761,1.132-1.367,1.706
	c-0.633,0.6-1.584,0.917-2.172,1.381c-0.412,0.326-2.068,0.371-2.573,0.163c-0.776-0.321-1.183-1.57-1.206-2.356
	c-0.033-1.074,0.965-1.3,1.206-2.478c0.123-0.596,0.556-1.805,1.005-2.235c0.167-0.158,0.689-1.847,0.926-1.787
	c0.584,0.15,0.592,0.841,1.085,0.907c0.403,0.055,3.582-1.22,4.263-1.395C353.458,343.206,354.169,344.323,354.476,344.96z
	 M352.895,336.485c-0.167-0.127,1.208-1.82,1.622-1.557c0.389,0.247,0.086,1.051-0.095,1.178
	C354.153,336.296,353.138,336.672,352.895,336.485z M362.72,343.491c0.225,0.499-2.132,1.29-2.21,2.243
	c-0.021,0.248,1.881,0.28,1.969,0.532c0.132,0.378-1.112,1.146-1.327,1.563c-0.216,0.417,0.108,0.985,0,1.329
	c-0.06,0.191-1.376,0.313-2.051-0.469c-0.486-0.564-1.051-1.503-1.609-2.033c-0.676-0.643-1.476-0.634-1.769-0.977
	c-0.687-0.804-0.842-2.298-1.327-3.166c-0.294-0.529-1.178-0.984-1.326-1.604c-0.13-0.534,0.42-0.743,0.643-1.329
	c0.128-0.335-0.442-0.508-0.321-0.938c0.035-0.128,1.097-0.211,1.286-0.313c0.305-0.162,0.283-1.221,0.441-1.289
	c0.549-0.245,3.25-0.31,3.379,0.056c0.091,0.255,0.104,1.919,0.362,2.11c0.167,0.126,1.998,0.87,2.171,0.979
	c0.522,0.325,0.984,1.814,1.047,2.288c0.006,0.049,0.483,0.075,0.643,0.313C362.866,343.004,362.693,343.433,362.72,343.491z"/>
<path fill="#FFBC00" d="M309.382,350.142c-0.047,0.193,1.206,0.852,1.568,0.812c0.16-0.458,0.709-0.772,0.965-1.138
	c0.187-0.267,0.152-0.62,0-0.771C311.678,348.809,309.482,349.715,309.382,350.142 M325.856,319.122
	c-0.4-0.368-0.646-1.283-1.018-1.678c-0.26-0.275-0.692-0.016-0.805-0.326c-0.197-0.535-0.863-2.066-1.234-2.6
	c-0.576-0.828-0.278-1.949-1.126-2.438c-0.077-0.045-0.632-0.155-1.286-0.289c0.018-0.106,0.039-0.211,0.066-0.307
	c0.148-0.506,1.037-0.883,1.732-1.57c0.373-0.368,0.291-0.889,0.488-1.137c-0.327-0.228,0.441-1.592,0.314-1.721
	c-0.393-0.396-1.199-0.27-1.822-0.289c-0.27-0.008-0.721-0.117-1.204-0.26c0.589-0.288,1.149-0.627,1.336-0.928
	c0.268-0.433-0.804-2.381-0.375-2.815c0.28-0.283,0.583,0.345,1.018,0.163c0.322-0.135,0.812-1.042,1.068-1.186
	c-0.13-0.383-0.193-1.617-0.425-1.955c-0.291-0.43-1.283-0.853-1.608-1.246c-0.208-0.252,0.662-1.256,0.59-1.68
	c-0.255,0.086-1.168-0.048-1.415-0.011c-0.542,0.215-2.212,0.31-2.885,0.416c-0.641,0.101-0.682,0.919-1.223,0.841
	c-0.906-0.132-2.467-1.832-4.129-2.492c-0.605-0.238-1.09-0.074-1.608-0.054c0,0-1.022,2.341-1.556,3.954
	c-0.18,0.548,0.111,1.598-0.107,2.059c-0.215,0.453-0.641,0.848-0.857,1.137c-0.808-0.219-2.938,0.115-3.485,0.541
	c-0.69,0.537-1.146,1.978-1.913,2.369c-0.191,0.099-3.219,0.644-3.896,0.94c-0.494,0.216-0.117,1.334-0.32,1.7
	c-0.262,0.473-0.963,1.452-1.361,1.686c-0.085,0.404-1.125,0.695-1.313,0.832c-0.295-0.139-1.674-0.979-2.09-0.92
	c-0.209,0.03-0.404,0.662-0.759,1.084c-0.291,0.346-0.735,0.481-0.975,0.596c-0.662,0.315-0.534,2.248-1.029,2.654
	c-0.36,0.295-1.536-0.315-1.896-0.055c-0.486,0.354-0.676,1.139-1.137,1.516c-0.568,0.465-2.171,0.474-2.654,1.139
	c-0.137,0.187,1.065,0.957,0.92,1.299c-0.331,0.786-1.45,2.607-1.096,3.24c0.141,0.25,0.904,0.426,1.258,0.822
	c0.293,0.325,0.168,0.887,0.381,1.028c0.701,0.476,2.095-0.466,2.599-0.162c0.403,0.244,1.228,1.322,1.679,1.517
	c0.455,0.195,1.547-0.903,2.006-0.325c0.201,0.258,0.688,1.711,0.541,1.896c-0.479,0.596-1.273,0.647-1.896,1.301
	c-0.7,0.735-1.201,2.086-1.137,2.979c0.076,1.092,0.65,2.22,0.867,2.816c0.055,0.154,0.467,2.399,0.324,2.707
	c-0.144,0.309-0.838,0.065-0.921,0.271c-0.165,0.411-0.247,0.908,0,1.299c-0.194,0.11-0.598,0.469-0.921,0.488
	c-0.447,0.029-0.836-0.316-1.191-0.434c-0.174,0.027-2.318,1.772-2.545,2.112c-0.188,0.281,0.442,1.506,0.486,2.058
	c0.03,0.38-0.8,0.56-0.92,0.921c-0.109,0.325,0.325,0.922,0.325,0.922c0.315-0.072,1.362,0.452,2.057,0.486
	c0.753,0.037,1.831-0.216,2.275-0.055c0.515,0.188,1.137,0.455,1.245,0.705c0.252,0.573,1.552,2.727,1.734,3.141
	c0.756-0.314,1.399-1.063,2.112-1.57c0.712-0.508,2.647-1.982,3.356-2.438c0.353-0.225,0.765,1.18,1.192,0.704
	c0.392-0.434,1.146-1.487,1.662-1.949c0.806-0.721,1.927-1.35,2.819-1.533l0.291,0.017c0.418,1.199,0.472,3,0.482,4.17
	c0-0.04,0.59,1.772,0.59,1.733c0.34,0.336,0.393,0.713,1.18,1.082c0.447,0.213,1.02,0.154,1.232,0.272
	c0.508,0.278,0.129,1.384,0.326,1.704c0.256-0.146,0.612-0.458,0.635-1.011c0.016-0.361,0.467-0.776,0.541-1.127
	c0.113-0.534,0.303-0.685,0.59-1.138c0.285-0.447,0.441-1.8,0.912-2.058c0.127-0.07,1.527-0.661,1.662-0.705
	c0.291-0.093,1.987-0.067,2.305,0c0.306,0.065-0.016,1.86,0.43,1.951c0.229,0.047,0.889,0.463,1.02,0.758
	c0.115,0.265,0.133,0.977,0.32,0.921c0.237-0.071,0.619-0.841,0.967-0.867c0,0-0.537-2.816-0.43-3.791
	c0.195-1.78,1.135-3.864,0.805-4.766c-0.396-1.078-2.227-1.638-3.968-2.004c-1.121-0.236-1.67-1.146-2.306-1.625
	c-0.295-0.221-1.256,0.516-1.771,0.542c-0.396,0.019-1.179-0.162-1.179-0.162s0.057-1.239,0.32-1.463
	c0.396-0.336,0.984-1.167,1.824-1.569c0.576-0.279,1.44-0.158,1.769-0.326c0.338-0.174-0.513-1.705-0.832-1.826
	c-0.765-0.293-1.378,0.02-2.438-0.557c-0.281-0.154-0.675-0.699-0.887-1.121c0.235,0.217,0.438,0.394,0.574,0.471
	c0.379,0.217,3.066,0.436,3.33,0.799c0.214,0.294,0.428,2.477,0.365,2.924c0.476,0.529,2.138,1.391,2.193,0.895
	c0.098-0.866-0.244-3.291-0.04-3.859c0.204-0.572,0.614-1.323,1.218-1.543c-0.099-0.1-0.184-0.239-0.254-0.402
	c0.418,0.112,1.027,0.266,1.33,0.266c0,0,2.605,1.936,3.436,1.963c0.432,0.015,1.513-0.256,1.765-0.879
	c0.087-0.215,0.505-2.521,0.697-2.653c-0.144-0.392-0.606-0.985-0.483-1.3c0.141-0.357,1.057-0.672,1.234-1.029
	c0.268-0.542-2.098-2.579-1.557-3.357c0.57-0.818,2.75,1.418,3.379,1.082C326.241,321.188,325.917,319.795,325.856,319.122z"/>
<path fill="#0080FF" d="M258.989,297.317c-1.196,0.032-3.047,0.609-3.574,0.283c-0.207-0.127-1.604-0.915-1.686-1.178
	c-0.217-0.699,0.293-1.649,0.081-2.618c-0.071-0.333-0.718-0.748-0.771-1.056c-0.04-0.232,0.206-0.745,0.161-0.936
	c-0.147-0.634-0.864-1.253-1.3-1.665c0.206-0.268,0.683-0.497,1.098-1.015s0.768-1.319,0.771-1.828
	c-0.313-0.227-0.687-0.879-0.569-1.665c0.13-0.856,0.756-1.849,0.513-2.083c-0.163-0.156-1.114-0.145-1.365-0.355
	c-0.911-0.762-1.525-1.93-2.274-1.989c-0.682-0.056-2.234,1.665-2.315,2.803c-0.026,0.368-0.779,3.295-1.299,3.29
	c-0.275-0.003-1.207-0.754-1.342-1.098c-0.348-0.068-0.681,0.35-1.056,0.65c-0.536,0.432-1.115,0.887-1.584,1.586
	c-0.265,0.394-0.24,0.731-0.447,0.893c-0.318,0.246-1.297-0.702-1.949-1.016c-0.381-0.184-0.237-1.021-0.447-1.098
	c-0.308-0.109-2.439-0.738-2.884-0.486c-0.491,0.277-0.659,0.779-0.935,1.502c-0.133,0.354-1.287,0.9-1.787,0.854
	c-0.501-0.047-0.814-1.063-1.097-1.26c-0.373-0.258-0.972-0.377-1.096,0c-0.158,0.477-0.271,1.101-0.732,1.789
	c-0.265,0.396-0.493,0.399-0.69,0.812c-0.236,0.493,0.127,1.332-0.162,1.544c-0.466,0.339-3.097,0.663-3.819,0.689
	c-0.243-0.041-0.941-1.91-1.138-2.072c-0.516,0.854-0.97,1.613-1.2,2.009c-0.224,0.386,0.142,1.634-0.134,2.065
	c-0.896,1.397-1.635,2.641-1.475,3.546c0.044,0.251,1.546,1.188,1.541,1.466c-0.01,0.5-0.294,1.292-0.686,2.143
	c0,0,1.95,1.596,3.376,3.334c0.95,1.156,1.495,2.664,1.706,2.762c0.651,0.301,2.429,0.224,2.429,0.224
	c-0.033,0.276,0.139,0.862-0.154,1.278c-0.618,0.882-1.909,1.709-1.746,2.193c0.276,0.822,1.407,1.262,1.638,2.184
	c0.153,0.619,1.711,1.218,2.343,1.392c0.28-0.047,1.151-1.976,1.665-2.315c0.515-0.338,3.374,1.203,3.656,0.854
	c0.157-0.195,0.059-0.865,0.271-1.518c0.244-0.748,0.803-1.488,1.07-1.773c0.328-0.35,1.705-1.013,2.314-1.178
	c1.115-0.301,2.684-1.729,3.696-2.275c1.036-0.559,2.681-0.445,3.534-0.445c0.523,0,1.138-0.676,1.138-0.676
	c0.794,0.267,1.813,0.588,2.284,0.604c0.623,0.02,1.428-0.109,1.821,0.288c0.127,0.13-0.642,1.493-0.314,1.721
	c0.197-0.089,0.534,0.151,0.846-0.056c0.384-0.254,0.413-0.889,0.758-1.299c0.494-0.588,2.026-2.008,2.058-2.816
	c0.045-1.174-0.247-2.648-0.162-3.466c0.049-0.47,0.588-1.479,1.192-1.949c0.273-0.214,0.562-0.317,0.822-0.209
	C259.557,298.028,259.35,297.306,258.989,297.317"/>
<path fill="#00FF67" d="M259.22,325.049c-0.585-0.188-1.497,0.074-1.706-0.137c-0.135-0.135-0.119-1.463-0.298-1.569
	c-0.872-0.521-2.578-1.029-3.039-0.84c-0.19,0.079-0.107,1.002-0.353,1.219c-0.676,0.601-2.39,0.694-3.249,0.569
	c-0.528-0.079-1.06-0.885-1.354-1.327c0.025-0.171-1.366-1.222-1.516-1.408c-0.121-0.151,0.397-0.728,0.323-1.463
	c-0.058-0.584-0.736-1.31-0.637-1.713c0.15-0.611,2.368-0.875,2.696-1.591c0.109-0.239,0.095-0.791,0.216-1.029
	c0.361-0.712,1.425-1.15,1.516-1.787c0.094-0.639-0.002-1.546,0.051-2.318c0.017-0.26,0.051-0.502,0.112-0.715
	c0.149-0.507,1.038-0.883,1.733-1.57c0.373-0.367,0.29-0.888,0.488-1.138c-0.328-0.226,0.44-1.591,0.313-1.719
	c-0.393-0.397-1.198-0.271-1.822-0.29c-0.47-0.014-1.489-0.335-2.282-0.602c0,0-0.615,0.675-1.139,0.675
	c-0.853,0-2.499-0.112-3.534,0.446c-1.013,0.547-2.58,1.975-3.695,2.275c-0.61,0.164-1.987,0.827-2.315,1.178
	c-0.267,0.285-0.827,1.025-1.069,1.773c-0.212,0.65-0.113,1.322-0.271,1.516c-0.283,0.35-3.141-1.191-3.655-0.852
	c-0.515,0.338-1.387,2.27-1.666,2.314c0.046,0.531,0.733,1.267,0.569,2.031c-0.111,0.518-0.954,1.867-1.097,2.193
	c-0.236,0.539,0.24,2.023,0.242,2.763c0.003,0.452-1.575,0.585-2.029,0.649c-0.061,0.347-0.063,0.947,0,1.381
	c0.081,0.568,1.298,0.49,1.381,0.975c0.067,0.401,0.229,2.359,0.487,2.682c0.324,0.406,2.333,0.547,2.925,0.082
	c0.592-0.467,1.272-1.965,1.868-2.234c0.582-0.264,2.61,2.166,3.25,2.531c0.379,0.217,3.066,0.436,3.33,0.8
	c0.214,0.293,0.428,2.474,0.365,2.924c0.477,0.528,2.138,1.39,2.194,0.894c0.098-0.867-0.244-3.291-0.041-3.858
	c0.204-0.572,0.613-1.323,1.219-1.544c0.02,0.345,0.479,1.465,0.609,1.787c0.264,0.652,1.255-0.1,1.219,0.529
	c-0.029,0.481-0.983,1.748-0.69,2.842c0.21,0.785,0.968,1.375,1.138,1.543c0.324,0.447,1.603,1.259,1.909,1.625
	c0.48,0.578,0.405,2.033,0.405,2.033c0.603-0.25,2.903-1.302,3.716-1.424c-0.287-0.634-0.706-2.047-0.69-2.302
	c0.041-0.646,1.576-1.101,1.732-1.19c0.234-0.135,0.872-1.014,1.003-1.354c0.168-0.439-0.94-0.814-1.094-1.139
	c-0.234-0.498,0.426-1.221,0.93-1.404c0.274-0.1,0.279,0.621,0.597,0.781c0.469,0.238,0.74-0.076,1.1-0.348
	c0.432-0.324,1.175-2.496,1.473-3.091C261.002,325.972,260.104,325.333,259.22,325.049"/>
<path fill="#00B1F7" d="M295.348,298.684c-0.078-0.045-1.506-0.972-1.625-1.097c-0.306-0.294-1.375,1.147-1.86,1.157
	c-0.855,0.019-2.765,0.201-3.38,0.184c-0.636,0.007-1.991-0.432-2.317,0.188c-0.26,0.491-0.271,1.818-0.856,1.859
	c-0.485,0.034-1.155,0.094-1.538,0.512c-0.445,0.488-1.38,2.926-2.152,3.006c-0.569,0.061-0.592-0.957-1.381-1.502
	c-1.022-0.707-2.222-1.457-2.418-1.713c-0.55,0.119-1.486-0.209-1.746-0.513c-0.57-0.665-0.517-2.909-1.428-2.872
	c-0.501,0.02-1.781,1.434-2.396,1.789c-0.455,0.264-0.594-0.55-1.422-1.214c-0.373-0.3-1.277-0.394-1.732-0.651
	c-0.089-0.049,0.202-1.052,0.199-1.25c-0.44-0.016-1.72-0.16-2.126,0.02c-0.781,0.342-2.784,3.687-3.382,3.398
	c-0.439-0.214-1.246-1.654-1.679-1.408c-0.125,0.069-1.093,0.383-1.68,0.324c-0.582-0.059-0.781-0.49-1.126-0.478
	c-0.26-0.109-0.548-0.007-0.822,0.208c-0.604,0.471-1.143,1.479-1.191,1.949c-0.086,0.816,0.207,2.291,0.161,3.466
	c-0.03,0.808-1.564,2.228-2.058,2.817c-0.344,0.408-0.375,1.045-0.758,1.299c-0.313,0.207-0.649-0.035-0.845,0.054
	c-0.197,0.25-0.115,0.771-0.488,1.138c-0.696,0.688-1.584,1.064-1.732,1.57c-0.063,0.213-0.097,0.456-0.113,0.714
	c0,0,0.483,0.33,1.193,0.423c1.235,0.164,2.859,0.154,3.203,0.326c0.162,0.081,1.273,1.218,1.517,1.488
	c0.326,0.363-0.23,1.447-0.136,2.547c0.014,0.152,1.66,0.402,1.814,0.406c0.419,0.006,0.654-0.385,0.921-0.516
	c0.389-0.189,0.778-0.154,1.383-0.287c0.425-0.093,0.538-0.673,0.946-0.922c0.199-0.121,2.42-0.148,3.873,0.316
	c0.61,0.195,0.704,0.787,1.114,0.928c0.374,0.128,2.162-0.145,2.355-0.544c0.282-0.585-0.427-1.17-0.203-1.687
	c0.04-0.094,0.227-1.439,0.957-1.649c0.643-0.185,1.411-0.199,1.868,0.217c0.332,0.3,0.705,0.966,0.786,1.625
	c0.105,0.854,0.203,1.804,0,2.247c-0.51,1.109-1.463,1.354-1.95,2.193c-0.636,1.096-0.948,3.369-0.921,5.063
	c0.431-0.196,1.058,0.326,1.518,0.054c0.248-0.146,0.309-0.735,0.596-0.812c0.74-0.194,1.808,0.144,2.463-0.298
	c0.67-0.45,0.728-1.986,1.382-2.247c0.313-0.126,2.012,0.022,2.166,0.081c0.563,0.115,1.091,0.924,1.489,1.652
	c0.216,0.392,0.065,1.272,0.244,1.408c0.207,0.154,0.762,0.797,0.976,0.947c0,0,1.336-1.383,1.813-1.787
	c0.842-0.715,1.135-0.992,1.963-1.716c-0.354-0.633,0.766-2.455,1.098-3.24c0.145-0.342-1.057-1.112-0.921-1.3
	c0.483-0.665,2.087-0.673,2.653-1.137c0.463-0.379,0.65-1.163,1.137-1.518c0.361-0.261,1.535,0.35,1.896,0.055
	c0.495-0.404,0.366-2.338,1.028-2.653c0.239-0.114,0.685-0.251,0.976-0.597c0.354-0.422,0.551-1.053,0.758-1.084
	c0.418-0.059,1.797,0.781,2.092,0.922c0.187-0.139,1.227-0.428,1.312-0.832c0,0-0.772-0.629-0.832-1.098
	c-0.079-0.615,0.57-0.8,0.57-1.482c0-0.88-0.656-2.495-0.776-3.118c-0.123-0.649,0.938-1.882,1.1-2.646
	C296.995,300.804,295.698,298.886,295.348,298.684"/>
<path fill="#FFBC00" d="M250.29,324.124c0.856,0.125,2.571,0.031,3.249-0.569c0.243-0.216,0.16-1.14,0.352-1.218
	c0.461-0.19,2.167,0.318,3.038,0.839c0.179,0.106,0.162,1.435,0.298,1.569c0.21,0.211,1.122-0.051,1.706,0.137
	c0.883,0.283,1.782,0.923,1.869,1.056c0.467,0.066,0.903-0.237,1.299-0.161c0.811,0.151,1.517,0.68,2.438,0.73
	c0.621,0.033,1.902-0.377,2.547-0.352c0.373-0.654,0.631-0.959,1.299-1.49c0.467-0.371,1.375-0.752,1.922-1.002
	c-0.027-1.694,0.285-3.969,0.922-5.063c0.487-0.839,1.439-1.084,1.949-2.194c0.204-0.443,0.105-1.392,0-2.246
	c-0.081-0.66-0.453-1.324-0.785-1.625c-0.458-0.416-1.227-0.402-1.869-0.218c-0.73,0.21-0.915,1.556-0.956,1.65
	c-0.224,0.516,0.484,1.101,0.202,1.687c-0.193,0.4-1.98,0.672-2.354,0.543c-0.411-0.141-0.505-0.732-1.116-0.928
	c-1.452-0.464-3.673-0.438-3.871-0.316c-0.409,0.25-0.522,0.83-0.947,0.922c-0.604,0.133-0.994,0.099-1.383,0.287
	c-0.266,0.131-0.502,0.522-0.92,0.516c-0.155-0.003-1.802-0.254-1.815-0.407c-0.095-1.098,0.462-2.182,0.137-2.545
	c-0.243-0.271-1.354-1.408-1.518-1.489c-0.344-0.172-1.968-0.162-3.202-0.326c-0.711-0.093-1.193-0.422-1.193-0.422
	c-0.053,0.772,0.042,1.68-0.051,2.318c-0.092,0.639-1.155,1.075-1.517,1.787c-0.12,0.238-0.106,0.79-0.216,1.029
	c-0.328,0.716-2.545,0.98-2.695,1.591c-0.1,0.403,0.579,1.129,0.637,1.714c0.073,0.736-0.445,1.311-0.324,1.462
	c0.149,0.187,1.541,1.237,1.516,1.408C249.229,323.239,249.761,324.043,250.29,324.124"/>
<path fill="#00B1F7" d="M241.74,350.113c0.304-0.162,1.82-1.46,2.032-1.706c0.505-0.592,0.65-1.614,1.137-2.152
	c0.491-0.544,1.222-0.99,1.747-1.584c0.359-0.408,0.52-0.964,0.851-1.35c0.349-0.349,1.087-0.586,1.302-1.088
	c0.341-0.796,0.271-1.902,0.518-2.45c0.155-0.348,0.86-0.8,1.026-1.003c0.139-0.17,0.891,0.486,0.992,0.363
	c0.39-0.48,0.234-1.33,0.917-1.622c0,0,0.075-1.452-0.406-2.03c-0.305-0.367-1.584-1.179-1.91-1.625
	c-0.168-0.17-0.928-0.76-1.137-1.545c-0.291-1.093,0.663-2.359,0.691-2.843c0.036-0.629-0.955,0.123-1.219-0.528
	c-0.131-0.321-0.592-1.442-0.609-1.787c-0.605,0.221-1.015,0.972-1.22,1.543c-0.202,0.57,0.141,2.994,0.041,3.86
	c-0.056,0.495-1.718-0.366-2.192-0.894c0.062-0.449-0.153-2.631-0.366-2.926c-0.264-0.362-2.952-0.582-3.331-0.799
	c-0.64-0.365-2.668-2.795-3.249-2.531c-0.595,0.27-1.277,1.769-1.869,2.234c-0.592,0.465-2.6,0.324-2.924-0.082
	c-0.259-0.322-0.42-2.279-0.488-2.681c-0.083-0.485-1.3-0.406-1.381-0.976c-0.062-0.432-0.061-1.034,0-1.381
	c0.453-0.063,2.033-0.197,2.031-0.649c-0.003-0.738-0.48-2.224-0.244-2.763c0.144-0.326,0.985-1.674,1.097-2.192
	c0.165-0.765-0.522-1.501-0.568-2.032c-0.632-0.173-2.189-0.771-2.343-1.391c-0.23-0.922-1.362-1.362-1.639-2.184
	c-0.162-0.484,1.129-1.313,1.747-2.193c0.293-0.418,0.12-1.004,0.153-1.279c0,0-1.775,0.078-2.427-0.223
	c-0.211-0.098-0.758-1.605-1.706-2.764c-1.428-1.738-3.377-3.332-3.377-3.332c-0.633,1.366-1.545,2.885-2.062,3.586
	c-0.459,0.623-2.569,2.66-3.149,3.131c-0.738,0.6-2.952,0.728-4.127,1.734c-0.332,0.285-0.323,1.657-0.564,2.129
	c-0.269,0.527-1.113,1.604-0.979,2.137c0.202,0.447,1.927,0.432,2.437,0.934c0.256,0.252-0.102,1.551-0.213,1.916
	c0.385,0.451,1.39,1.829,1.435,2.249c0,1.039,1.478,2.924,1.54,4.04c0.049,0.854-0.687,2.303-0.81,3.093
	c-0.119,0.437-0.417,1.06-0.49,1.538c-0.06,0.4,0.449,0.909,0.447,1.584c-0.003,1.016-0.502,1.368-0.406,1.95
	c0.041,0.245,0.635,0.36,0.731,0.608c0.284,0.731-1.017,4.59-0.768,4.889c0.222,0.267,1.666-0.02,2.026,0.148
	c0.264,0.123,0.382,0.368,0.731,0.61c0.35,0.24,0.932,0.478,1.097,0.974c0.244,0.732,0.567,2.642,1.097,2.56
	c0.692-0.106,2.173-0.766,2.371-0.531c0.311,0.367-0.499,1.891-0.259,2.847c0.41-0.094,1.256-0.225,1.544-0.407
	c0.171-0.107,0.867,0.987,1.055,0.61c0.248-0.494,0.604-2.653,0.692-2.925c0.056-0.177,1.326,0.208,1.787,0.243
	c0.022,0.232,0.804,0.733,0.812,1.097c0.014,0.656-0.208,1.149-0.243,1.503c-0.021,0.197,0.446,0.596,0.405,0.854
	c-0.151,0.955-0.897,2.055-0.894,2.762c0.003,0.396,3.253,1.721,3.777,1.463c0.578-0.284,0.714-1.45,1.325-1.463
	c0.622-0.012,3.512,1.286,3.778,2.113c0.107,0.338,0.032,1.326,0.203,1.625c0.228,0.398,0.341,0.797,0.617,1.068
	c0.439-0.733,1.227-0.663,1.551-0.988c0.021,0.02,0.63-0.913,0.649-0.894C240.702,350.008,241.49,350.247,241.74,350.113
	 M251.815,346.295c-0.512-0.925-0.92-1.784-1.26-1.869c-0.148-0.037-1.341,1.422-1.706,1.908c-0.37,0.494-1.106-0.06-1.448,0.102
	c-0.591,0.277-1.538,0.834-2.325,1.408c-0.521,0.382-0.906,1.429-0.938,1.821c-0.081,1.017-0.87,1.8-1.503,2.56
	c-0.203,0.244-1.185,0.65-1.178,1.056c0.008,0.498,0.717,0.292,0.893,0.895c0.179,0.605,0.732,2.437,0.732,2.437
	c0.701-0.343,2.452-0.874,3.736-1.99c0.723-0.628,1.187-1.963,1.503-2.273c1.225-1.21,3.297-2.106,4.185-3.657
	C252.892,348.018,252.282,347.137,251.815,346.295z"/>
<path fill="#0080FF" d="M336.079,345.01c-0.19,0.394-0.994,0.629-1.176,0.348c-0.275-0.428-0.293-1.363-0.039-1.889
	C335.225,343.509,336.163,344.83,336.079,345.01 M337.53,341.37c-0.715-0.031-0.734-0.499-1.5-0.92
	c-0.293,0.05-1.729,0.648-2.039,0.596c-0.699-0.12-4.179-0.838-4.664-0.703c-0.59,0.162-1.838,1.944-2.662,1.947
	c-0.502,0.001-1.131-0.884-1.359-1.299c0,0-0.423,0.6-0.796,0.747c-0.681,0.271-1.92,0.107-2.583,0.392
	c-0.189,0.08-0.337,1.354-0.643,1.462c-0.555,0.194-1.193,0.087-1.502,0.379c-0.328,0.31-0.017,0.668,0.053,1.137
	c0.029,0.195-0.92,0.722-1.285,1.029c-0.436,0.367-0.544,0.251-1.072,0.433c0,0-0.537-2.815-0.43-3.79
	c0.197-1.782,1.136-3.865,0.805-4.767c-0.396-1.077-2.227-1.637-3.968-2.003c-1.12-0.236-1.669-1.147-2.306-1.625
	c-0.295-0.222-1.254,0.517-1.77,0.541c-0.396,0.021-1.182-0.162-1.182-0.162s0.058-1.237,0.324-1.463
	c0.396-0.335,0.982-1.166,1.822-1.57c0.577-0.276,1.441-0.157,1.77-0.325c0.338-0.173-0.514-1.703-0.834-1.826
	c-0.764-0.291-1.377,0.021-2.438-0.557c-0.436-0.236-1.152-1.432-1.018-1.625c0.182-0.262,0.625-0.521,0.857-0.596
	c0.504-0.157,1.176,0.556,1.715,0.488c0.418-0.053,0.828-0.565,1.287-0.705c0.783-0.236,0.912,0.759,1.664,0.813
	c0.148,0.012,1.313-0.4,1.644-0.31c0.298,0.083,1.271,0.362,1.682,0.362c0,0,2.604,1.937,3.435,1.965
	c0.433,0.014,1.514-0.258,1.765-0.879c0.086-0.215,0.506-2.521,0.696-2.654c0.589-0.065,1.115,0.205,1.127,0.27
	c0.096,0.526,0.203,1.747,0.106,2.709c-0.057,0.567-0.338,0.869-0.321,1.354c0.029,0.908,0.813,1.693,1.072,2.221
	c0.17,0.344,0.965,0.066,1.555,0.217c0.688,0.176,1.191,0.768,1.556,1.028c0.565,0.405,0.429,2.112,0.429,2.112
	c0.053,0.597,0.082,1.355,0.268,1.463c0.324,0.188,0.887,0.549,1.449,0.65c0.57,0.102,0.768-0.748,1.071-0.65
	c0.616,0.197,1.323,1.281,1.931,1.516c0.224,0.087,0.592-0.057,1.019,0.055c0.187,0.049,0.498-0.828,0.696-0.758
	c0.666,0.231,1.985,0.434,2.36,0.866C337.614,339.276,337.636,340.737,337.53,341.37z"/>
<path fill="#00B1F7" d="M279.165,342.298l-0.082,1.664l-2.599-0.284c-0.241-0.472-0.608-1.868-0.772-2.6
	c-0.098-0.438-0.69-0.955-0.846-1.368c-0.33-0.877-0.619-1.679-0.778-2.167c0.011-0.002,0.021-0.008,0.034-0.018
	c0.713-0.432,3.07-1.236,3.459-1.24c0.352,0.688,0.979,2.285,1.341,2.924c-0.222,0.226-0.414,1.008-0.407,1.219
	C278.542,341.15,278.823,341.78,279.165,342.298 M293.314,326.103c-0.478,0.597-1.272,0.647-1.896,1.3
	c-0.701,0.737-1.201,2.088-1.137,2.979c0.077,1.092,0.649,2.22,0.865,2.815c0.057,0.155,0.469,2.401,0.326,2.709
	c-0.145,0.309-0.839,0.065-0.922,0.271c-0.165,0.411-0.246,0.907,0,1.299c-0.192,0.111-0.598,0.468-0.92,0.488
	c-0.447,0.028-0.838-0.317-1.192-0.433c0.044-0.879-0.034-2.17-0.812-2.816c0.039-0.041-2.151-0.936-2.113-0.975
	c-0.398-0.013-2.449-0.481-2.87-0.271c-0.433,0.217-0.471,0.809-0.704,1.083c-0.482,0.082-1.367-1.022-1.793-1.22
	c-0.425-0.194-0.939-0.728-1.348-0.73c-0.883-0.004-1.5,0.156-1.787,0.543c-0.571,0.654-2.553,2.748-2.723,3.221l-0.446-1.949
	c0.22-0.269,0.187-1.024,0.528-1.219c0.437-0.246,1.049-1.191,1.178-1.625c0.138-0.459,0.461-1.496,0.854-2.396
	c0.303-0.692,0.733-1.284,0.609-1.585c0.492-0.178,1.277-1.036,1.841-1.191c0.681-0.186,1.25-0.174,1.841-0.677
	c0.271-0.229,0.321-0.526,0.381-0.894c0,0,1.336-1.383,1.813-1.787c0.842-0.715,1.135-0.992,1.963-1.715
	c0.142,0.25,0.905,0.425,1.259,0.822c0.293,0.324,0.168,0.885,0.379,1.028c0.702,0.474,2.096-0.467,2.602-0.162
	c0.4,0.243,1.227,1.322,1.678,1.517c0.454,0.194,1.547-0.903,2.004-0.326C292.976,324.465,293.463,325.918,293.314,326.103z"/>
<path fill="#0080FF" d="M275.546,343.998c-0.055-0.133,0.712-0.481,0.853-0.608c-0.239-0.473-0.608-1.869-0.771-2.6
	c-0.1-0.439-0.691-0.956-0.846-1.368c-0.33-0.875-0.619-1.679-0.779-2.165c-0.15,0.05-0.797,0.279-1.016,0.486
	c-0.127,0.104,0.813,1.13,0.65,1.34c-0.165,0.211-0.389,0.382-0.529,0.488c-0.336,0.257-0.51-1.234-0.882-1.427
	c-0.455-0.233-1.413,1.406-1.573,1.845c-0.092,0.244,0.324,0.339,0.571,0.395c0.388,0.087,0.447-0.528,0.853-0.365
	c0.215,0.085,0.16,1.321-0.041,1.543c-0.388,0.428-1.041,1.368-1.039,1.991c0.052,0.785,1.115,1.781,1.746,2.68
	c0.586-0.113,2.229-0.443,2.722-0.771C275.708,345.299,275.684,344.329,275.546,343.998"/>
<path fill="#0080FF" d="M267.183,326.569c0.248,0.354-0.021,1.12-0.081,1.598c0.258,0.142,0.484,0.584,0.651,1.054
	s0.274,0.968,0.297,1.221c0.364,0.31,1.277,0.909,2.085,1.111c0.433,0.106,1.394-0.353,1.394-0.353
	c0.235-0.258,0.43-0.847,0.895-1.22c0.369-0.296,1.061-0.252,1.259-0.487c0.332-0.391,1.017-1.623,1.828-2.07
	c0.286-0.158,1.3-0.081,1.665,0.203c0.492-0.18,1.277-1.037,1.842-1.192c0.68-0.187,1.25-0.175,1.841-0.677
	c0.271-0.229,0.32-0.528,0.38-0.895c-0.215-0.149-0.769-0.791-0.975-0.947c-0.18-0.135-0.029-1.014-0.244-1.408
	c-0.398-0.727-0.926-1.535-1.488-1.651c-0.156-0.059-1.854-0.208-2.168-0.081c-0.652,0.262-0.712,1.797-1.381,2.247
	c-0.656,0.442-1.724,0.103-2.465,0.298c-0.286,0.076-0.348,0.666-0.595,0.813c-0.458,0.271-1.087-0.251-1.517-0.053
	c-0.548,0.248-1.455,0.629-1.924,1C267.813,325.612,267.557,325.915,267.183,326.569"/>
<path fill="#00B1F7" d="M307.849,348.171c-0.214-0.118-0.785-0.061-1.232-0.271c-0.789-0.371-0.841-0.747-1.181-1.083
	c0.001,0.04-0.59-1.773-0.59-1.733c-0.011-1.171-0.065-2.971-0.481-4.171l-0.291-0.015c-0.895,0.183-2.016,0.811-2.82,1.533
	c-0.516,0.462-1.271,1.514-1.661,1.949c-0.429,0.475-0.841-0.931-1.192-0.704c-0.71,0.455-2.645,1.929-3.357,2.437
	s-1.357,1.256-2.112,1.571c-0.183-0.414-1.483-2.568-1.733-3.143c-0.109-0.25-0.73-0.517-1.246-0.703
	c-0.444-0.162-1.522,0.091-2.274,0.054c-0.694-0.034-1.742-0.56-2.058-0.487c-0.485,0.132-0.922,1.517-1.408,1.625
	c-0.608,0.136-0.832-1.26-1.301-1.517c-0.36-0.198-1.311-0.251-1.895-0.596c-0.407-0.238-0.561-0.566-0.759-0.759
	c-0.369-0.357-1.007,0.04-1.259,0l-0.082,1.666l-2.6-0.284c-0.141,0.126-0.908,0.477-0.853,0.609c0.138,0.33,0.163,1.3-0.081,1.462
	c-0.493,0.329-2.137,0.658-2.723,0.772c0.094,0.355,1.248,2.023,1.34,2.383c0.174,0.691-0.455,1.273-0.596,1.922
	c-0.031,0.14,0.325,1.229,0.354,1.381c0.039,0.211-0.529,0.679-0.406,0.813c0.625,0.083,1.754-0.19,1.91,0.081
	c0.162,0.283-0.366,1.422-0.366,1.666c0.065,0.649,1.159,0.53,1.455,0.51c0.315-0.023,2.087,0.19,2.565,0.464
	c0.285,0.163-0.799,1.706-0.961,1.829c-0.139,0.104-1.076-0.104-1.248-0.082c-0.281,0.035-0.951,0.598-1.041,0.894
	c-0.121,0.406,0.608,0.603,0.854,0.935c0.263,0.354,0.56,0.784,0.649,1.178c0.1,0.44-0.609,1.95-0.629,2.275
	c-0.021,0.324,2.01-0.185,2.701-0.406c0.316-0.103,1.287-0.052,1.584-0.326c1.125-1.032,1.584-1.502,2.193-2.437
	c0.287-0.302,0.934-1.909,1.26-2.03c0.324-0.123,1.016,0.608,1.502,0.812c0.359,0.105,0.776-0.042,0.894-0.041
	c0.151,0.001-0.001,1.189,0.081,1.747c0.018,0.122,0.979,0.015,1.301,0.243c0.168,0.122,0.284,0.747,0.486,0.813
	c0.328,0.106,0.888,0.436,1.097,0.527c0.608-0.188,2.298-0.465,2.774-0.924c0.205-0.196-0.078-1.504,0.192-1.635
	c0.429-0.208,1.056,0.121,1.599,0.412c0.25,0.038,0.992,0.938,1.244,0.969c0.184,0.023,0.174-1.692,0.365-1.828
	c0.553-0.391,1.26-1.828,1.584-2.071c0.614-0.461,1.02-0.482,1.666-0.69c0.184-0.06,1.689,0.007,2.538-0.163
	c0.386-0.075,1.195-0.175,1.567-0.203c0.256-0.018,1.017,0.301,1.253,0.29c0.253-0.012,0.757-0.24,0.926-0.49
	c0.123-0.182-0.115-0.613,0.048-0.766c0.204-0.19,0.68-0.142,0.969-0.284c0.426-0.212,0.817-0.815,0.748-1.593
	c-0.041-0.447-0.845-0.609-1.328-0.528c-0.129,0.022-0.914,0.635-1.006,0.487c-0.137-0.224,0.579-1.435,0.563-1.625
	c-0.033-0.382-0.695-1.916-0.442-1.828c0.287,0.101,0.949-0.108,1.247-0.081c0.22,0.021,0.966,0.549,1.166,0.542
	c0.448-0.016,0.694,0.423,0.862,0.351C307.977,349.555,308.355,348.45,307.849,348.171"/>
<path fill="#C1FF00" d="M285.573,342.471c0.118-0.362,0.949-0.541,0.918-0.921c-0.043-0.554-0.675-1.777-0.485-2.059
	c0.227-0.34,2.372-2.085,2.545-2.112c0.043-0.879-0.034-2.17-0.812-2.816c0.039-0.04-2.152-0.935-2.113-0.974
	c-0.398-0.013-2.45-0.481-2.87-0.272c-0.433,0.217-0.472,0.809-0.704,1.084c-0.081,0.682-0.297,1.889-0.541,2.492
	c-0.146,0.357-1.129,1.953-1.572,2.272c-0.544,0.397-0.906-0.106-0.906-0.106c-0.222,0.225-0.414,1.006-0.406,1.218
	c0.027,0.722,0.308,1.352,0.649,1.869c0.251,0.039,0.89-0.359,1.259,0c0.199,0.192,0.353,0.518,0.76,0.758
	c0.584,0.344,1.533,0.398,1.895,0.595c0.469,0.259,0.691,1.653,1.301,1.519c0.487-0.109,0.922-1.494,1.407-1.625
	C285.896,343.392,285.464,342.796,285.573,342.471"/>
<path fill="#0080FF" d="M278.958,339.068c0,0,0.363,0.505,0.908,0.109c0.441-0.322,1.424-1.916,1.57-2.274
	c0.244-0.604,0.46-1.81,0.542-2.492c-0.483,0.082-1.369-1.023-1.794-1.219c-0.426-0.195-0.941-0.728-1.348-0.73
	c-0.883-0.006-1.502,0.156-1.787,0.542c-0.571,0.655-2.553,2.749-2.723,3.223c0.418,0.185,0.022,1.009-0.168,1.157
	c0.713-0.432,3.071-1.235,3.459-1.239C277.97,336.833,278.597,338.43,278.958,339.068"/>
<path fill="#0080FF" d="M264.37,331.433c0.015-0.194,0.144-1.608,0.379-1.95c0.308-0.449,0.877-0.271,1.407-0.623
	c0.454-0.302,0.835-0.856,0.895-1.326c0.058-0.478,0.329-1.246,0.081-1.599c-0.645-0.024-1.925,0.388-2.546,0.353
	c-0.921-0.051-1.627-0.578-2.438-0.731c-0.396-0.074-0.832,0.229-1.299,0.163c-0.298,0.596-1.041,2.768-1.472,3.09
	c-0.36,0.271-0.631,0.588-1.102,0.35c-0.316-0.162-0.321-0.883-0.597-0.783c-0.504,0.184-1.164,0.908-0.929,1.404
	c0.153,0.324,1.26,0.7,1.093,1.139c-0.13,0.341-0.768,1.22-1.001,1.354c-0.158,0.09-1.692,0.544-1.734,1.191
	c-0.016,0.254,0.404,1.668,0.69,2.303c0.184-0.003,2.415,0.171,3.006-0.041l1.259,0.73l0.692-0.323l0.933,0.364
	c0.247-0.556,0.608-1.916,0.921-2.571C262.712,333.709,264.353,331.651,264.37,331.433"/>
<path fill="#F3FF00" d="M266.299,335.028c0.259-0.66,1.29-2.193,1.462-2.815c0.104-0.378,0.166-1.828,0.136-2.194
	c-0.021-0.253-0.129-0.751-0.296-1.22c-0.167-0.47-0.394-0.913-0.652-1.056c-0.059,0.471-0.438,1.027-0.893,1.328
	c-0.532,0.352-1.101,0.174-1.409,0.623c-0.233,0.34-0.364,1.754-0.379,1.949c-0.017,0.217-1.657,2.275-1.76,2.492
	c-0.314,0.656-0.675,2.016-0.921,2.572l2.03,0.84C263.617,337.547,266.001,335.786,266.299,335.028"/>
<path fill="#0080FF" d="M272.729,336.864l-2.031,0.325l-2.112-0.243l-1.543,0.434c0,0,0.193,0.421,0.216,0.812
	c0.032,0.55-0.124,1.117-0.338,1.07c-0.365-0.081-0.731-2.274-0.731-2.274l-0.975,0.894l-1.503-0.501c0,0,2.383-1.762,2.681-2.52
	c0.26-0.66,1.291-2.193,1.462-2.816c0.105-0.375,0.166-1.827,0.136-2.193c0.364,0.311,1.279,0.909,2.085,1.111
	c0.434,0.107,1.395-0.352,1.395-0.352c-0.1,0.108,0.568,2.563,0.568,2.762c0,0.447,1.91,0.488,1.91,0.488l0.446,1.948
	C274.046,335.653,273.069,336.607,272.729,336.864 M269.765,340.479c-0.366,0.041-0.961-1.451-0.915-1.646
	c0.103-0.427,0.655-0.701,0.894-0.466C270.107,338.724,270.046,339.687,269.765,340.479z M264.728,344.013
	c-0.151,0.425-0.514,0.44-0.65,0.69c0,0.079,0.281,0.813,0.203,0.895c-0.469,0.717-1.503-0.41-2.214-0.245
	c-0.244,0.062-1.195,0.223-1.117,0.143c0.31-0.262,1.649-1.376,1.991-2.07c0.18-0.367,0.231-0.927,0.284-1.118
	c0.133-0.483,1.181-0.967,1.422-0.731C265.011,341.934,265.009,343.221,264.728,344.013z"/>
<path fill="#F3FF00" d="M277.312,327.426c-0.365-0.285-1.379-0.362-1.666-0.203c-0.813,0.445-1.495,1.68-1.826,2.07
	c-0.199,0.234-0.891,0.191-1.26,0.488c-0.465,0.373-0.66,0.961-0.895,1.219c-0.101,0.109,0.568,2.563,0.568,2.762
	c0,0.447,1.909,0.488,1.909,0.488c0.22-0.27,0.187-1.025,0.528-1.219c0.437-0.248,1.049-1.193,1.178-1.625
	c0.139-0.459,0.461-1.496,0.854-2.396C277.003,328.319,277.435,327.726,277.312,327.426"/>
<path fill="#8ABF22" d="M293.2,367.092c-0.398,0.001-0.799-0.844-1.043-0.839c-0.453,0.006-1.316,1.068-1.436,0.839
	c-0.189-0.364,0.025-0.983,0.107-1.57c0.117-0.813,0.201-1.607,0.621-1.996c0.575-0.534,2.53-1.62,3.037-1.417
	c0.06,0.283-0.09,0.568,0.133,0.813c0.176,0.192,0.689,0.401,0.92,1.407C295.446,365.212,293.915,367.09,293.2,367.092
	 M304.323,368.066c-0.25,0.039-1.217,0.234-1.502,0.055c-0.396-0.248,0.754-1.085,0.321-1.246c-0.319-0.117-1.118-0.395-1.715-0.27
	c-0.382,0.079-0.617,0.586-0.806,0.541c-0.479-0.114-0.985-1.327-1.019-1.624c-0.028-0.268-0.776,0.153-1.571,0.107
	c-0.857-0.049-1.77-0.566-1.895-1.028c0.077-0.359-0.364-1.319,0-1.679c0.413-0.41,0.891-1.056,1.367-1.273
	c0.354-0.162,1.406-0.046,1.705,0c0.468,0.072,0.473,0.923,1.145,1.164c0.262,0.095,0.363-0.301,0.59-0.325
	c0.29-0.029,1.379,0.581,1.502,0.651c0.482,0.27,2.506-0.119,3.002,0.433c0.219,0.241-0.738,1.466-0.697,1.625
	c0.295,0.026,1.414-0.022,1.449,0.325C306.275,366.299,304.868,367.984,304.323,368.066z M306.95,368.446
	c-0.383-0.145-0.322-1.354-0.054-2.273c0.001,0.038,0.824-0.901,0.804-0.867c0.322-0.542,0.483-1.029,1.181-1.084
	c0.741-0.058,1.608,1.7,1.501,2.437C310.198,367.929,307.38,368.609,306.95,368.446z M311.441,364.208
	c-0.235-0.567,1.25-1.534,1.487-1.299c0.152,0.15,0.508,0.504,0.322,0.771C312.997,364.045,311.642,364.696,311.441,364.208z
	 M316.815,368.338c-0.418,0.448-1.986,0.958-2.841,1.244c-0.192,0.217-0.711,0.334-1.019,0.435c-0.59,0-1.984-0.483-2.198-0.922
	c-0.116-0.224,0.515-0.632,0.589-1.082c0.091-0.548-0.296-0.743-0.214-1.408c0.054-0.433,0.59-0.759,0.911-0.976
	c0.228-0.152,0.734-0.69,1.421-1.056c1.274-0.679,2.985-1.269,3.405-1.272c0.363-0.003,0.732,0.913,0.965,1.3
	c0.209,0.349,1.324,0.972,1.555,1.191C319.814,366.195,317.066,368.068,316.815,368.338z M316.838,352.639
	c0.101-0.426,0.836-0.831,1.071-0.597c0.362,0.357,0.403,1.489,0.27,2.059C317.816,354.141,316.792,352.832,316.838,352.639z
	 M324.023,350.309c-0.188,0.096-0.485-0.31-0.805-0.405c-0.408-0.125-0.833,0.014-0.911-0.244c-0.167-0.545-0.01-1.611,0.456-1.706
	c0.269-0.054,0.401,0.515,0.776,0.568c0.291,0.043,0.908-0.768,1.127-0.514C325.006,348.402,324.59,350.024,324.023,350.309z
	 M326.758,351.231c-0.433,1.038-1.079,3.785-1.608,4.766c-0.294,0.542-1.201,1.183-1.555,1.733c-0.29,0.45,0.148,1.372,0.161,1.787
	c0.013,0.479,0.243,1.307,0,1.679c-0.216,0.325-1.64-0.148-2.173-0.148c-0.604,0-2.15,1.042-2.332,1.068
	c-1.064,0.162-1.93,0-2.52-0.106c-0.488-0.091-1.311-0.607-1.717-0.922c-0.486-0.377-1.115-1.494-1.18-2.221
	c-0.014-0.152,0.707-0.551,0.697-0.92c-0.008-0.278-0.808-0.492-0.55-0.836c0.362-0.479,0.693-0.856,0.818-0.897
	c0.131-0.042,1.057,0.701,1.233,0.596c0.53-0.317,0.186-0.964,0.804-1.029c0.284-0.03,1.651,0.001,1.931-0.379
	c0.158-0.217-0.1-0.721,0-1.083c0.09-0.328,1.604-0.804,1.77-0.867c0.506-0.19-0.084,1.059,0.054,1.571
	c0.11,0.417,0.913,0.523,1.233,0.595c0.263-0.538,0.205-1.896,0.805-2.761c0.375-0.542,2.923-3.117,3.109-3.088
	C326.093,349.825,326.974,350.716,326.758,351.231z"/>
<path fill="#8ABF22" d="M275.571,382.956c-0.154,0.556-0.564,1.873-1.037,2.273c-0.078,0.081,1.115,1.531,1.586,0.813
	c0.078-0.079,0.295-1.159,0.446-1.584c0.281-0.792,0.282-2.079-0.082-2.437C276.245,381.785,275.704,382.472,275.571,382.956
	 M283.228,376.05c0.025-0.246-0.511-0.27-0.609-0.772c-0.108-0.44,0.121-1.85-0.608-1.869c-0.817-0.02-1.822,1.148-2.063,1.218
	c-0.898,0.261-1.64,0.687-2.486,1.301c-0.482,0.351-0.93-1.274-0.713-1.725c0.266-0.549,1.119-0.672,1.201-1.321
	c0.021-0.176,0.033-1.073,0.282-1.828c0.25-0.751,1.349-1.589,1.261-1.544c-0.267,0.122-3.149,0.263-3.412,0.284
	c-0.584,0.05-1.342-0.763-1.299-1.097c0.063-0.515,0.695-1.173,1.135-1.137c0.227,0.019,0.592,0.508,0.813,0.285
	c0.238-0.242,0.677-1.72,1.056-1.747c0.513-0.037,1.16,0.523,1.543,0.445c0.234-0.418-0.446-1.87-0.791-2.496
	c-0.261-0.475-1.758-0.02-2.071-0.265c-0.386-0.302,0.202-1.585,0.202-1.585c-0.121-0.121-0.873-0.121-1.096-0.074
	c-0.136,0.029-1.17,0.865-1.402,1.009c-0.527,0.324-1.526,0.487-2.03,1.26c-0.505,0.772-0.67,1.9-0.935,2.355l-0.324,2.254
	c0,0,0.084,0.968,0.447,1.199c0.496,0.318,1.515,0.048,1.582,0.121c0.027,0.49-0.162,1.495-0.445,1.747
	c-0.473,0.419-1.514,0.353-2.031,0.65c-0.412,0.237-2.505,1.151-2.781,1.288c-0.178,0.089-0.32,1.095-0.51,1.107
	c-0.36,0.027-1.314,0.297-1.583,0.488c-0.583,0.414-0.155,2.667-0.285,2.884c-0.041,0.067,0.704,0.174,0.731,0.447
	c0.056,0.558,0.367,1.517,0.69,1.543c0.596,0.05,1.487-0.797,2.316-1.219c0.263-0.134,0.326,0.785,0.567,0.771
	c0.242-0.013,0.392-0.942,0.691-1.055c0.126-0.048,1.071,0.247,1.461-0.204c0.516-0.594,0.447-1.747,0.854-1.747
	c0.609,0.041,1.283,1.764,1.503,1.787c0.368,0.042,1.37-1.469,2.032-1.542c0.205-0.023,0.225,0.663,0.405,1.137
	c0.138,0.364,0.863-0.938,1.015-0.649c0.188,0.357,0.641,1.632,0.569,2.721c-0.065,1.012-0.981,1.766-0.853,1.991
	c0.125,0.22,1.765,0.332,1.97,0.092c0.163-0.153,0.257-0.545,0.142-0.661c-0.299-0.304-1.097,0.345-1.178-0.081
	c0.053-0.414,0.719-0.865,1.137-1.382c0.486-0.598,0.916-1.552,1.098-1.99c0.191-0.459,0.601-2.92,0.935-3.331
	c0.288-0.354,0.986,1.408,1.462,1.463C283.415,376.602,283.213,376.198,283.228,376.05z M260.399,367.032
	c-0.962-0.238-2.645-1.628-3.646-1.53c-0.386,0.037-0.21,0.638-0.174,0.935c0.108,0.921,0.13,2.802,0.733,3.398
	c0.428,0.425,2.041,0.311,2.68,0.203c0.289-0.048,0.923-0.732,1.058-1.3C261.219,368.021,260.867,367.148,260.399,367.032z
	 M266.532,372.15c1.022-0.249,2.284-1.052,2.49-1.51l1.248,0.332c0.047,0.102,0.385-1.909,0.385-1.909
	c-0.053-0.377-0.774-2.115-1.4-2.884c-0.527-0.647-0.909-0.687-1.017-0.772c-0.202-0.162-0.105-1.271,0.244-1.828
	c0.086-0.137,0.063-0.635,0.163-0.771c0.303-0.418,1.9-0.924,1.99-1.422c0.095-0.531-0.221-1.177-0.163-1.909
	c0.118-1.466,0.603-3.145,0.935-3.981c0.099-0.248-0.608-0.609-0.568-1.056c0.029-0.326,0.486-0.751,0.568-1.056
	c0.243-0.895,0.324-2.153,0.162-3.291l-1.908-2.153c-0.213,0.075-0.61,0.435-0.976,0.447c-0.438,0.015-0.864-0.324-1.34-0.324
	c-0.325,0-1.778,0.284-2.194,0.284c-0.486,0-1.087-0.409-1.463-0.243c-0.374,0.163-0.306,0.999-0.242,1.949
	c0.047,0.698,1.354,0.862,1.219,1.463c-0.072,0.313-1.342,1.419-1.504,1.706c-0.125,0.222,0.396,1.352,0.976,1.543
	c0.351,0.116,1.082,0.225,1.299-0.203c0.207-0.406,0.121-1.519,0.488-1.544c0.273-0.021,0.71,0.47,1.097,1.113
	c0.415,0.688,1.497,0.967,1.543,1.567c0.033,0.431,0.5,1.166,0.488,1.909c-0.023,1.265-0.366,3.087-0.609,3.128
	c-0.527,0.04-1.197-2.039-1.787-2.478c-0.111-0.011-0.082-0.854-0.082-0.854c-0.72-0.015-1.217,0.609-1.625,0.731
	c-0.462,0.139-1.241-1.707-1.584-2.396c-0.305-0.615-1.094-2.484-1.625-2.884c-0.233-0.177-1.732-0.407-2.029-0.447
	c-0.896-0.122-1.87-0.325-2.356-0.203c-0.213,0.054-0.262,0.491-0.569,0.528c-0.507,0.062-0.856-0.666-1.178-0.569
	c-0.406,0.122-0.31,1.176,0.041,1.301c0.441,0.158,1.627,1.47,1.665,1.706c0.08,0.512,0.203,1.544,0.041,1.786
	c-0.229,0.346-0.451,0.081-0.447,0.61c0.003,0.565,1.761,2.836,2.519,3.331c0.472,0.308,2.051,1.397,2.274,2.03
	c0.137,0.387,0.148,1.399,0.162,1.828c0.019,0.509,0.648,1.057,0.854,1.056c0.616,0.018,0.563-2.024,0.771-2.803
	c0.054-0.198,0.518-0.263,0.552-0.251c0.241,0.078,0.705,1.373,0.829,1.552c0.135,0.193,1.372,0.557,1.395,0.914
	c0.027,0.415-1.228-0.205-1.476,0.182c-0.165,0.256-0.162,0.976,0.081,1.463c0.124,0.249-0.233,1.31-0.427,2.052
	c-0.021,0.084-0.816-0.428-0.893-0.406c-0.224,0.061-1.149,1.159-0.976,1.381c0.233,0.299,1.937-0.526,1.931-0.508
	c-0.366,0.904-1.866,2.89-1.909,3.736c0.386-0.248,1.753-0.995,2.232-1.096C265.411,372.01,265.829,372.322,266.532,372.15z"/>
<path fill="#0080FF" d="M248.791,363.243c-0.29,0.421-1.468,0.955-2.296,0.813c-0.182-0.031-0.144-0.464-0.386-0.528
	c-0.353-0.094-0.812,0.012-0.853-0.04c-0.406-0.509,0.241-1.517,0.353-1.522c0.338-0.021,0.805,0.304,1.028,0.282
	c0.284-0.025,0.641-0.326,0.873-0.304C248.01,361.992,248.98,362.967,248.791,363.243 M239.51,359.873c0,0-2.405,0.19-3.012,0.396
	c-0.621,0.211-1.183,0.566-1.478,0.863c-0.204,0.202-1.802-0.16-2.172-0.528c-0.387-0.384,1.22-2.452,1.299-3.006
	c0.045-0.309-2.297-0.423-2.803-0.447c-0.26-0.013-1.327,0.309-1.462,0.284c-0.447-0.081-0.213-0.846-1.016-0.935
	c-0.236-0.025-0.519,0.884-0.894,0.609c-0.604-0.442-1.308-0.854-1.584-1.259c-0.247-0.363,0.035-0.734,0.081-1.178
	c0.04-0.377,0.092-1.82,0.041-2.193c-0.049-0.364-0.658-0.327-1.016-0.65c-0.405-0.366-0.568-1.105-0.69-1.747
	c-0.057-0.296,0.843-1.459,0.813-1.747c-0.052-0.479-1.579-1.304-1.705-1.786c-0.159-0.602,0.396-0.687,0.282-1.342
	c-0.037-0.218-0.625-0.378-0.689-0.568c-0.078-0.229,0.07-0.779,0.122-1.015c0.41-0.094,1.256-0.225,1.544-0.406
	c0.17-0.108,0.866,0.986,1.056,0.608c0.247-0.493,0.604-2.651,0.69-2.924c0.057-0.178,1.327,0.208,1.787,0.243
	c0.023,0.233,0.805,0.734,0.812,1.097c0.015,0.655-0.207,1.149-0.243,1.503c-0.02,0.196,0.447,0.596,0.407,0.854
	c-0.151,0.956-0.898,2.055-0.895,2.762c0.002,0.397,3.252,1.72,3.778,1.463c0.577-0.284,0.713-1.45,1.324-1.463
	c0.621-0.012,3.512,1.286,3.778,2.113c0.107,0.337,0.032,1.327,0.203,1.624c0.228,0.399,0.341,0.798,0.616,1.068
	c-0.269-0.062-1.026,1.346-1.17,1.531c-0.339,0.438-0.088,0.977-0.285,1.462c-0.193,0.481-1.11,0.896-0.833,1.388
	c0.234,0.417,1.86,0.765,2.021,1.259C238.454,358.537,239.791,359.121,239.51,359.873z"/>
</svg>
