<?xml version="1.0" encoding="utf-8"?>
<!-- Generator: Adobe Illustrator 15.0.2, SVG Export Plug-In . SVG Version: 6.00 Build 0)  -->
<!DOCTYPE svg PUBLIC "-//W3C//DTD SVG 1.1//EN" "http://www.w3.org/Graphics/SVG/1.1/DTD/svg11.dtd">
<svg version="1.1" id="レイヤー_1" xmlns="http://www.w3.org/2000/svg" xmlns:xlink="http://www.w3.org/1999/xlink" x="0px"
	 y="0px" width="740" height="533" viewBox="0 0 740 533" enable-background="new 0 0 740 533" xml:space="preserve">
<g>
	<path fill="#0080FF" d="M611.131,118.521c-0.485-0.651-2.373-1.481-2.846-2.253c-2.009-3.248-2.642-6.375-4.245-7.98
		c-0.943-1.653-2.477-1.874-2.813-3.64c-0.229-1.234-1.665-5.237-0.752-8.126c0.577-1.836,2.815-3.113,2.971-3.924
		c0.354-1.827-0.187-3.96-0.125-5.833c0.027-0.704,2.901-3.837,2.485-5.363c-0.317-1.2-4.319-4.858-4.542-6.173
		c-0.305-1.905,1.759-3.156,2.519-4.5c0.447-0.804-0.247-4.739,0.649-5.852c1.754-2.196,5.476-4.592,5.707-6.348
		c0.229-1.73,0.03-6.779-0.413-9.997c-0.327-0.472-5.018-3.265-5.401-3.878c-1.568-2.52-4.306-7.678-6.131-10.092
		c-1.532-2.014-5.831-3.481-7.933-5.631c-1.022-1.04-0.562-3.576-0.573-4.269c-0.434-0.212-5.804-9.48-7.162-9.809
		c-2.241-0.536-4.987-0.965-5.792-0.418c-0.969,0.652-1.823,4.834-2.979,4.834c-1.482,0-5.312-2.793-6.598-2.837
		c-2.837,0.089-9.945,2.88-15.342,3.169c-2.465,0.131-3.409-2.241-4.616-2.501c-3.574-0.775-6.273,4-7.596,3.502
		c-1.154-0.335-2.649-3.822-2.649-3.822s-2.304-0.437-3.782-1.427c-0.167-0.115-0.39-3.305-2.427-3.462
		c-1.796-0.136-3.811,0.502-6.377,0.644c-0.756,0.04-2.645-0.929-3.424-0.871c-1.448,0.107-3.012,2.234-4.436,2.151
		c-2.171-0.13-8.956-0.01-8.956-0.01c-1.558,0.721-2,3.265-3.462,4.549c-1.103,0.971-5.636,0.932-6.927,0.748
		c-0.868-0.123-0.998-1.441-3.097-3.625c-1.063-1.112-2.987-0.494-4.08-1.498c-0.47-0.429-0.885-3.444-1.365-3.878
		c-2.228-2.002-6.501-6.15-9.544-6.437c-3.832,0.511-3.886,6.055-4.808,7.44c-1.356,2.049-9.241,4.461-11.627,4.25
		c-2.183-0.197-3.726-3.505-6.075-3.034c-1.958,0.39-7.004,0.432-9.032-1.089c-1.796-1.348-2.226-5.373-3.373-7.072
		c-0.383-0.565-2.099-2.561-3.132-2.6c-3.887,0.56-6.405,0.915-8.652,2c-2.018,0.973-3.125,3.024-4.906,4.252
		c-1.376,2.001-5.406,6.431-6.735,8.152c-1.34,1.738-5.729,4.913-5.971,7.07c0.315,1.304,4.257,5.027,3.677,5.997
		c-0.531,0.883-2.97,1.283-3.987,1.842c-1.003,0.561-4.2,2.481-4.896,3.286c-1.128,1.313-1.364,3.812-2.759,5.736
		c-1.609,2.24-6.38,3.247-7.5,4.816c-1.352,1.893,0.155,4.305-0.762,5.534c-1.443,1.923-6.475,1.229-8.118,3.015
		c-0.236,0.256-0.116,1.18,0.059,2.275l2.74,0.123c0.589-0.72,4.405-1.757,6.803-1.376c1.491,0.235,1.339,2.316,2.356,2.372
		c1.662,0.09,5.797,0.893,6.927,0.375c1.36-0.625,3.932-5.014,6.01-5.96c0.627-0.282,5.769-1.051,5.745-0.162
		c-0.023,0.855-0.798,7.12-1.234,9.123c-0.345,1.565-2.773,2.141-3.09,3.375c-0.604,2.276,1.929,7.837,2.013,9.622
		c0.047,0.94-1.611,2.265-1.071,3.086c0.697,1.045,2.585,3.195,3.759,3.914c1.169,0.723,1.518-1.356,2.601-0.875
		c0.511,0.232,0.692,1.539,0.846,3.127c0.248,2.545-2.462,4.246-2.21,5.997c0.091,0.662,1.045,1.548,2.469,2.01
		c1.118,0.365,1.858-0.385,3.343-0.385c0.967,0,4.393,3.329,4.83,3.999c1.25,1.923,1.161,8.391,1.73,10.5
		c0.322,1.171,5.819,0,5.939,1.375c0.076,0.866,0.305,4.351-0.739,6.123c-0.692,1.157-2.734,0.739-2.935,1.323
		c-0.402,1.176-0.173,6.099,0.086,7.303c-0.113,2.666,3.112,5.543,4.573,6.62c2.187,1.603,5.511,3.207,6.964,4.71
		c1.762,1.822,4.508,3.93,6.703,5.66c0.692,0.55,1.525,3.775,2.206,4.34c1.777,1.463,4.386,1.044,5.73,2.732
		c0.627,0.775,0.771,4.401,0.831,5.336c1.964-0.417,4.122-1.968,4.897-3.095c1.604-2.328,4.32-8.861,5.705-9.806
		c0.515-0.357,1.17,5.239,1.319,5.532c0.399,0.782,4.6,1.912,6.552,3.382c3.059,2.3,8.16,10.063,12.361,10.687
		c-0.018,1.28-0.072,4.324-1.424,6.058c-0.841,1.073-3.035,0.785-3.468,1.836c-0.523,1.265,0.188,2.612,0.823,3.5
		c0,0,4.981-0.152,5.615,0.667c0.622,0.814,0.719,3.846,1.482,3.834c0.762-0.012,7.072-1.659,7.916-1.665
		c0.233-0.757,1.622-3.078,1.482-4.172c-0.204-1.688-1.326-4.632-0.324-5c0.979-0.357,3.438,3.167,4.784,3.336
		c0.578,0.072,3.989-2.23,4.617-2.338c2.12-0.342,2.807,2.338,3.797,2.338c2.159,0,6.149,1.553,6.431,2.999
		c0.396,1.964-0.765,10.353-1.315,11.833c1.297,0.572,3.658,0.679,5.113-0.168c1.016-0.595,3.621-6.635,4.291-6.833
		c1.063-0.313,2.295-1.305,3.214-1.665c2.71-1.051,8.876-0.853,11.469-0.33c0,0,0.755-4.165,0.661-5.336
		c-0.163-2.001-9.792-8.669-11.877-10.998c-2.254-2.519,2.64-8.666,2.64-10.836c0-0.797-2.506-4.657-2.903-5.359
		c-0.499-0.873,0.955-2.22,1.641-3.485c0.806-1.458,0.835-3.686,1.593-4.653c2.522-0.397,5.035-6.164,6.929-6.892
		c1.178-0.453,3.254,1.738,4.586,2.178c0.655,0.218,2.303-0.259,2.753-0.507c0.9-0.5,6.754-1.191,7.762-1.779
		c1.17-0.673,3.86-4.437,5.122-3.333c1.371,1.207,3.822,5.708,4.285,7.835c0.229,1.02,3.215,3.239,3.371,4.333
		c0.301,2.098-0.415,3.298-0.655,5.332c-0.043,0.339,1.695,1.099,2.308,1.332c0.777,0.306,2.567,3.683,3.673,3.336
		c-0.217-1.199-0.433-2.985,0.121-3.502c0.592-0.553,2.907-1.492,3.712-1.874c1.763-0.837,4.814-3.394,6.185-4.126
		c0.517-0.273,1.021-3.67,0.92-5.249c-0.093-1.312-1.432-2.508-0.739-3.124c1.035-0.931,3.689-1.015,5.938-0.499
		c2.565,0.587,5.493,2.847,7.301,2.875c2.814,0.041,7.03-2.572,9.406-2.625C613.916,122.831,611.979,119.652,611.131,118.521"/>
	<path fill="#0080FF" d="M632.305,142.348c-0.344-1.178-5.74-4.173-6.847-5.075c-0.66-0.535-1.705-3.44-2.402-3.921
		c-0.903-0.624-1.809,0.719-2.706,0.082c-1.255-0.889-5.221-3.239-5.395-4.815c-0.104-0.89-0.008-3.418-0.739-4.806
		c-2.373,0.052-6.589,2.661-9.407,2.621c-1.808-0.024-4.735-2.287-7.3-2.874c-2.249-0.514-4.905-0.431-5.938,0.502
		c-0.689,0.616,0.653,1.809,0.738,3.124c0.108,1.577-0.401,4.975-0.92,5.25c-1.367,0.729-4.422,3.288-6.184,4.125
		c-0.804,0.378-3.117,1.319-3.712,1.874c-0.555,0.516-0.338,2.301-0.121,3.499c-1.099,0.349-2.896-3.029-3.67-3.333
		c-0.609-0.237-2.352-0.994-2.317-1.333c0.249-2.033,0.963-3.237,0.662-5.334c-0.156-1.09-3.143-3.312-3.371-4.333
		c-0.464-2.122-2.914-6.627-4.284-7.831c-1.265-1.104-3.953,2.658-5.12,3.332c-1.01,0.587-6.864,1.278-7.765,1.779
		c-0.451,0.246-2.098,0.723-2.753,0.508c-1.333-0.443-3.409-2.634-4.586-2.183c-1.886,0.729-4.405,6.499-6.93,6.893
		c-0.752,0.966-0.788,3.197-1.592,4.655c-0.685,1.259-2.139,2.612-1.642,3.483c0.398,0.705,2.902,4.56,2.902,5.364
		c0,2.166-4.89,8.317-2.636,10.832c2.083,2.332,11.712,8.997,11.874,10.998c0.097,1.172-0.66,5.33-0.66,5.33
		c-0.249,0.901-0.007,4.408-0.494,7.67c-0.432,2.914-2.182,3.814-1.814,4.83c0.529,1.479,1.881,4.995,3.631,6.5
		c0.383,0.334,1.96,0.012,2.228,0.177c1.378,1.297,4.369,3.305,6.186,3.821c1.562,0.446,4.031,4.751,4.031,6.768
		c0,2.002-3.468,3.167-4.951,4.832c-0.313,0.349-1.874,3.246-1.316,4c0.452,0.61,3.511,0.754,3.63,1.334
		c0.256,1.295-2.085,2.22-2.143,3.33c2.082,0.146,7.525,5.868,9,6.667c1.411,0.769,4.717-0.279,7.091,0.501
		c1.672,0.544,2.597,2.756,3.3,3.832c1.729-2.455,7.033-3.943,8.749-5.836c1.442-1.592,2.632-6.496,4.286-6.83
		c0.968-0.195,3.448,3.092,4.621,2.497c0.654-0.331,1.473-4.123,2.645-3.329c0.685,0.469,0.307,7.794,0.326,10.664
		c0.005,0.604,2.432,0.543,2.432,0.543c0.456,0.271,1.641-0.622,2.603-0.125c2.091,1.082,3.342,4.003,5.318,3.624
		c1.321-0.252,0.45-5.384,1.484-7.248c1.028-1.862,6.227-5.33,7.669-7c0.426-0.487-0.607-3.709-0.239-4.375
		c0.563-1.034,2.54,0.501,3.525,0c1.365-0.684,1.973-3.943,3.351-4.623c1.734-0.865,4.072-0.709,4.696-1.502
		c0.993-1.25-2.878-7.446-3.41-9.681c0.653-0.006,3.731-0.003,4.648-0.012c-0.287-1.647-0.542-3.198-0.773-4.336
		c-0.317-1.565-2.568-2.732-3.527-4.283c-1.132-1.809,4.026-7.776,3.984-8.864c-0.043-0.967-3.018-3.005-3.096-3.627
		c-0.365-0.537,1.232-2.554,1.363-3.623c0.253-2.072-0.144-3.369,0.985-5.752c0.577-1.205,2.431-2.671,2.724-3.501
		c0.349-0.956-2.279-1.382-2.17-2.882c0.107-1.391,1.754-3.789,2.664-5.615C633.544,147.661,632.696,143.675,632.305,142.348"/>
	<path fill="#0080FF" d="M671.656,381.856c-0.174-0.517-0.732-0.799-1.07-1.184c-0.341-0.388-3.659-0.183-3.93,0.036
		s0.116,3.094,0.456,3.443c0.338,0.345,1.72-1.303,2.037-1.318c0.325-0.023,1.937,0.741,1.937,0.741
		S671.747,382.133,671.656,381.856 M661.081,290.481c-0.35-0.835,1.015-5.223,1.007-6.051c0-0.729-0.659-1.359-0.511-2.423
		c0.224-1.614,2.73-4.522,2.911-5.775c0.121-0.835-0.313-1.61-0.872-2.368c-0.823-1.115-1.916-2.172-1.93-3.275
		c-0.19-1.269-0.372-4.357-1.365-5.884c-0.858-1.315-6.507-3.973-6.964-5.083c-0.758-1.521-1.971-7.945-2.855-8.54
		c-1.027-0.691-5.822-1.502-7.541-2.999c-1.323-1.158-2.063-4.841-2.963-6.689c-1.053-2.145-4.285-5.112-4.285-6.839
		c0-1.364,2.844-3.377,3.023-5.625c0.125-1.298-1.745-2.038-1.595-3.342c0.343-3.143,4.317-6.532,5.422-9.018
		c0.854-1.92,1.191-5.394,0.572-7.268c0,0-5.313-0.027-6.509-1.728c-0.507-0.718,0.19-2.509-0.114-4.27
		c-0.24-1.344-3.517-3.792-3.773-4.382c-0.789-1.802-1.974-4.424-2.477-7.313c-0.914,0.012-3.996,0.006-4.647,0.012
		c0.535,2.238,4.399,8.432,3.408,9.684c-0.625,0.791-2.963,0.634-4.7,1.5c-1.367,0.683-1.975,3.936-3.341,4.622
		c-0.984,0.504-2.967-1.034-3.533,0c-0.367,0.667,0.666,3.888,0.245,4.378c-1.446,1.668-6.645,5.135-7.674,6.999
		c-1.027,1.863-0.154,6.998-1.483,7.25c-1.978,0.372-3.229-2.542-5.32-3.627c-0.955-0.495-2.144,0.399-2.594,0.126
		c0,0-2.436,0.06-2.442-0.541c-0.017-2.873,0.363-10.199-0.32-10.668c-1.175-0.793-1.987,2.999-2.647,3.335
		c-1.165,0.589-3.653-2.698-4.614-2.5c-1.652,0.331-2.843,5.235-4.293,6.833c-1.711,1.89-7.013,3.371-8.75,5.829
		c-0.256,0.553-2.223,2.115-3.128,3.834c-1.008,1.899,2.629,4.549,2.804,5.165c0.247,0.875-1.93,3.441-1.321,4.336
		c1.478,2.158,1.754,5.235,2.645,7.327c1.046,2.488,7.729,8.816,9.729,10.835c0.769,0.776-0.39,3.452-0.167,5.333
		c0.167,1.361,1.825,1.746,1.821,3.333c-0.01,1.719-1.282,4.081-2.479,5.165c-0.959,0.622-3.82,0.856-4.783,1.5
		c-0.708,0.475-4.566,7.14-5.209,7.668c-2.141,1.746-5.444,0.667-5.444,0.667c-1.118,1.41-3.396,5.15-4.948,5.829
		c0.453,0.818,1.689,4.502,2.363,4.369c1.527-0.297,6.089-4.134,7.703-2.868c1.064,0.838,1.21,3.163,0.986,4.335
		c-0.018,0.096-0.654,1.172-1.381,2.398c-0.987,1.665-1.714,8.627-3.241,11.099c-0.699,1.139-5.935,0.199-6.104,1.664
		c0.108,1.948,3.407,5.65,6.935,7.5c0.597,0.313,2.453-1.487,2.965-1.153c1.367,0.896,2.319,1.869,2.313,2.986
		c-0.005,1.308-4.952,0.667-5.277,2.668c-0.337,0.405,1.474,1.602,2.845,3.335c1.997,2.519,3.911,5.739,3.911,5.739
		c-0.112-1.526-0.324-3.118-0.324-3.118l1.608,0.624c0,0,0.86,4.97,1.731,5.126c0.748,0.132,0.374-8.624,0.374-8.624
		c0.678,0.549,5.601,3.474,6.681,4.874c0.866,1.124,0.267,4.218,0.247,4.751c-0.004,0.2,0.975,3.813,0.991,4.122
		c1.33,0.672,4.197-0.501,6.063,0.25c1.034,0.418,2.304,4.688,2.935,5.154c-0.933,1.722-3.948,6.557-4.417,7.593
		c1.599,0.914,7.259-0.149,8.285,0.126c2.057,0.56,4.967,2.921,6.439,3.751c1.988,1.124,9.049-1.512,10.144,0.876
		c0.34,0.737-0.619,4.205-0.247,4.749c0.378,0.541,2.333-0.788,3.468-0.998c0.83,0.139,3.035-0.397,3.954-0.625
		c2.831-0.704,5.397-5.661,7.674-7.251c0.127-1.68-1.182-2.488-1.397-4.288c-0.11-0.932,1.284-12.558,1.771-13.083
		c0.885-0.967,9.104-4.321,9.104-4.321l-0.123-4.372l8.789,5.875l3.583-4.628c-1.456-1.078-12.988-11.273-13.119-12.245
		c-0.299-2.365,1.778-3.876,1.86-4.876c0.078-0.975-0.251-3.913-0.251-3.913l2.23-1.087c0,0-0.6,8.801,0.5,10.25
		c1.092,1.451,8.978,7.277,10.058,7.083l1.732-3.167c-0.191-1.46-0.078-8.667-0.078-10.248c0-0.396-1.298-2.237-1.484-4.249
		c-0.079-0.788,0.9-1.749,0.9-1.749s3.305-4.687,3.547-5.919c0.224-1.124,0.984-3.238,0.421-3.87
		C664.167,289.845,661.081,290.481,661.081,290.481z M642.214,346.786c-1.785-0.336-4.201,1.55-3.646,2.497
		c0.738,1.272,4.861,2.846,5.623,2.563C645.555,351.348,643.17,346.966,642.214,346.786z M661.62,369.028
		c-0.252-0.147-1.832-4.105-2.913-4.333c-1.077-0.229-3.931,2.308-4.201,2.524c-0.271,0.216,0.601,2.262,0.623,2.75
		c0.024,0.486,5.409,1.659,5.74,1.721c0.151,0.031,1.695-0.874,2.044-0.917c0.449-0.06,1.982,0.285,1.929-0.114
		C664.783,370.257,661.867,369.179,661.62,369.028z"/>
	<path fill="#0080FF" d="M525.939,180.01c0.554-1.477,1.718-9.864,1.322-11.833c-0.288-1.442-4.278-2.998-6.435-2.998
		c-0.987,0-1.678-2.674-3.795-2.334c-0.63,0.105-4.042,2.407-4.62,2.334c-1.342-0.169-3.805-3.69-4.785-3.333
		c-0.997,0.364,0.128,3.312,0.331,4.998c0.133,1.093-1.255,3.417-1.483,4.165c-0.85,0.012-7.159,1.658-7.923,1.67
		c-0.762,0.012-0.858-3.017-1.482-3.834c-0.626-0.817-5.613-0.668-5.613-0.668c-0.636-0.895-1.347-2.234-0.825-3.497
		c0.433-1.051,2.635-0.763,3.469-1.835c1.358-1.734,1.406-4.781,1.426-6.061c-4.202-0.619-9.298-8.384-12.356-10.685
		c-1.953-1.466-6.159-2.602-6.551-3.381c-0.149-0.293-0.812-5.889-1.328-5.532c-1.383,0.944-4.099,7.473-5.702,9.802
		c-0.777,1.124-2.934,2.681-4.886,3.096c-0.065-0.933-0.218-4.559-0.838-5.337c-1.346-1.685-3.96-1.266-5.736-2.73
		c-0.683-0.563-1.512-3.791-2.208-4.339c-2.194-1.732-4.941-3.84-6.701-5.657c-1.448-1.507-4.771-3.107-6.958-4.711
		c-1.467-1.077-4.693-3.955-4.58-6.626c-0.259-1.203-0.479-6.125-0.085-7.299c0.205-0.587,2.25-0.168,2.935-1.321
		c1.05-1.777,0.821-5.256,0.742-6.127c-0.124-1.375-5.624-0.2-5.941-1.375c-0.57-2.105-0.474-8.576-1.731-10.497
		c-0.433-0.669-3.862-4.003-4.824-4.003c-1.486,0-2.23,0.751-3.349,0.389c-1.419-0.463-2.373-1.351-2.471-2.014
		c-0.244-1.75,2.466-3.452,2.212-5.993c-0.156-1.588-0.33-2.895-0.846-3.129c-1.082-0.484-1.432,1.596-2.598,0.877
		c-1.177-0.724-3.065-2.868-3.757-3.922c-0.544-0.817,1.12-2.144,1.077-3.08c-0.097-1.788-2.626-7.343-2.024-9.625
		c0.321-1.23,2.746-1.809,3.095-3.372c0.433-2.004,1.206-8.268,1.229-9.127c0.033-0.89-5.112-0.12-5.743,0.167
		c-2.071,0.942-4.645,5.334-6.01,5.957c-1.123,0.52-5.259-0.284-6.924-0.374c-1.02-0.055-0.87-2.14-2.349-2.375
		c-2.409-0.381-6.219,0.655-6.814,1.372l-2.733-0.121c0.274,1.747,0.714,3.918,0.089,4.494c-0.841,0.778-6.52,1.784-6.888,2.151
		c-1.46,1.462,1.685,6.812,0.999,8.726c-0.619,1.735-5.596,0.452-7.123,1.221c-0.307,0.152-3.4,4.286-4.333,4.302
		c-1.321,0.022-3.544-2.065-4.524-1.933c-2.307,0.309-5.423,0.05-8.811,1.01c-1.483,0.772-2.153,6.322-3.709,8.151
		c-1.746,2.039-6.393,3.612-8.197,5.27c-1.164,1.071-2.485,4.035-3.328,5.22c-0.974,1.368-4.411,4.005-5.487,5
		c-0.469,1.313,7.777,1.2,9.269,1.649c0.469,0.137,0.562,3.068,2.172,3.663c1.421,0.522,4.364-1.281,4.953-1.232
		c0.801,0.072,1.292,2.548,3.396,3.998c2.4,1.643,5.254,1.304,6.396,1.692c1.215,2.899,3.786,14.234,3.659,16.36
		c0,0,2.83,2.896,4.01,3.481c1.665,0.82,0.763,5.089,0.161,5.67c-1.905,1.834-7.229,1.191-9.355,2.775
		c-0.739,0.548,0.577,3.611,1.495,3.93c1.688,0.584,4.157-1.081,6.399-1.111c0.843-0.016,5.657,2.006,6.485,2.151
		c5.324,0.914,10.569,1.668,15.781,1.56c1.61,1.356,3.396,3.165,3.047,5.027c-0.587,3.18,0.115,9.237-0.739,11.227
		c-0.662,1.532-2.834,3.575-3.505,5.18c-0.666,1.608-0.568,5.375-0.202,7.842c0,0,3.707-0.086,5.65,0.511
		c1.31,0.403,1.111,2.611,1.111,3.504c0,1.497-4.604,10.437-5.98,14.676c-0.549,1.671-0.56,4.583,1.407,5.571
		c2.804,1.411,8.028,2.289,10.342,2.373c0.968,1.233,3.19,2.53,3.335,3.75c0.18,1.475-1.909,2.831-2.735,3.765
		c-0.301,0.345,0.15,3.756-0.108,4.234c-1.694,3.109-4.898,4.638-5.942,7.879c-0.577,1.796-1.803,5.579-1.479,7.619
		c0.769,0.512,5.308,2.939,5.769,3.792c0.669,1.226,0.487,3.425,0.662,4.501c1.592-0.069,3.093-0.574,4.952,0.162
		c5.106,2.032,9.912,7.26,12.698,7.669c1.67,0.241,1.797-2.275,3.769-2.584c2.066-0.331,7.205-0.625,8.876-1.286
		c-0.572-1.1-2.868-2.68-2.62-3.732c0.415-1.761,4.506-4.24,4.171-5.899c-0.264-1.279-2.908-3.806-2.018-4.743
		c0.81-0.86,2.029-2.476,2.269-3.469c0.399-1.604-0.564-3.317-0.09-5.285c0.446-1.849,2.309-3.949,3.161-5.339
		c0.361-0.596,0.8-2.813,0.962-3.657c0.512-0.105,2.351-1.502,2.97-1.502c1.82,0,2.312,1.166,3.958,1.331
		c0.454,0.049,6.656,2.503,7.101,2.503c0.99,0,5.28-2.836,5.28-2.836c0.53,1.51,1.535,2.76,1.852,4.137
		c0.488,2.116,1.522,6.406,2.369,8.088c0.179,0.355,1.91,1.581,2.517,1.368c0.824-0.292,1.232-2.257,1.511-3.26
		c0.256-0.926,3.813,1.694,4.456,1.833c-0.097-1.346-0.721-4.191,0.163-5.33c1.328-1.716,4.146-2.604,5.127-3.9
		c1.39-1.852,8.456-0.226,10.961-0.949c1.834,1.005,5.872,3.392,8.227,4.356c1.204,0.494,3.065,1.665,3.771,1.983
		c1.219,0.373,5.438,1.843,6.729,2.008c1.37,0.174,1.315,2.848,2.639,2.831c1.627-0.013,6.347-3.888,8.179-4.543
		c-0.24-2.002-0.596-4.795,0.566-6.284c1.339-1.722,4.746-5.919,5.443-7.836c0.409-1.124-1.82-2.75-1.886-4.333
		c-0.078-1.998,1.351-4.036,1.152-5.995c-0.18-1.815-1.779-3.488-1.099-4.795C523.564,184.986,526.022,180.227,525.939,180.01"/>
	<path fill="#0080FF" d="M588.651,261.333c-0.228-1.875,0.931-4.562,0.168-5.33c-2.001-2.02-8.687-8.348-9.736-10.833
		c-0.888-2.097-1.171-5.171-2.644-7.332c-0.603-0.89,1.573-3.461,1.322-4.333c-0.175-0.616-3.804-3.267-2.808-5.166
		c0.909-1.717,2.881-3.28,3.136-3.834c-0.702-1.075-1.635-3.287-3.298-3.833c-2.374-0.781-5.681,0.27-7.096-0.498
		c-1.469-0.8-6.918-6.524-9.004-6.665c0.055-1.111,2.409-2.041,2.151-3.336c-0.119-0.576-3.187-0.726-3.636-1.33
		c-0.56-0.755,1.01-3.652,1.322-4c1.482-1.665,4.947-2.836,4.947-4.834c0-2.011-2.466-6.319-4.026-6.765
		c-1.823-0.517-4.809-2.525-6.186-3.824c-0.277-0.163-1.844,0.159-2.236-0.174c-1.749-1.506-3.094-5.022-3.623-6.503
		c-0.367-1.012,1.375-1.914,1.815-4.828c0.481-3.261,0.246-6.768,0.494-7.669c-2.593-0.517-8.753-0.715-11.47,0.337
		c-0.918,0.357-2.149,1.35-3.222,1.665c-0.66,0.195-3.268,6.241-4.282,6.833c-1.456,0.848-3.817,0.739-5.114,0.165
		c0.078,0.213-2.381,4.979-2.922,6.041c-0.673,1.306,0.92,2.977,1.105,4.793c0.193,1.959-1.238,3.996-1.153,5.997
		c0.062,1.587,2.295,3.209,1.886,4.332c-0.701,1.918-4.108,6.112-5.45,7.837c-1.159,1.484-0.8,4.285-0.563,6.283
		c1.627,0.792,5.587,1.13,8.443,2.504c1.622,0.781,5.173,5.263,5.945,6.003c0.989,0.944,0.557,3.661,0.862,3.625
		c0.98-0.123,5.703,0.03,7.176,0.063c1.707,0.045,3.412,0.267,4.376,0.854c0.071,1.198,1.945,4.759,2.308,6.83
		c0.409,2.343-0.602,6.034-0.822,7.5c-0.249,1.634-1.815,4.58-2.809,5.998c-1.175,1.683-5.854,3.095-6.269,4.999
		c-0.221,1.017,2.416,1.344,3.133,2.002c0.522,0.478-0.133,2.917,0,3.666c1.94,0.201,6.052,1.715,7.752,4.167
		c0.991,1.426,1.604,4.163,1.652,5.431c0.004,0.156,2.128,0.738,3.671,2.295c2.939,2.952,6.407,7.735,7.717,8.039
		c0,0,0.295-3.7,2.146-4.499c1.846-0.806,6.16,1.644,8.085,2.163c0.745,0.204,0.661,3.5,0.661,3.5s3.306,1.085,5.439-0.667
		c0.642-0.522,4.506-7.191,5.207-7.666c0.968-0.646,3.829-0.877,4.786-1.502c1.195-1.084,2.471-3.444,2.475-5.163
		C590.47,263.08,588.819,262.691,588.651,261.333"/>
	<path fill="#0080FF" d="M548.03,234.516c-0.361-2.076-2.234-5.635-2.308-6.836c-0.959-0.586-2.668-0.806-4.376-0.847
		c-1.475-0.033-6.194-0.192-7.174-0.066c-0.307,0.036,0.119-2.68-0.864-3.624c-0.77-0.74-4.321-5.223-5.947-6.003
		c-2.854-1.374-6.813-1.713-8.441-2.504c-1.826,0.659-6.546,4.535-8.179,4.547c-1.317,0.012-1.268-2.663-2.638-2.831
		c-1.287-0.166-5.514-1.635-6.726-2.007c-0.708-0.318-2.565-1.494-3.773-1.986c-2.352-0.965-6.396-3.348-8.229-4.36
		c-2.499,0.73-9.565-0.895-10.961,0.95c-0.973,1.297-3.804,2.188-5.125,3.899c-0.879,1.146-0.26,3.988-0.163,5.336
		c-0.643-0.138-4.195-2.76-4.451-1.833c-0.278,1.001-0.697,2.969-1.516,3.257c-0.607,0.216-2.337-1.012-2.519-1.364
		c-0.848-1.686-1.875-5.974-2.367-8.092c-0.325-1.378-1.324-2.623-1.851-4.138c0,0-4.294,2.836-5.276,2.836
		c-0.445,0-6.655-2.458-7.099-2.5c-1.651-0.167-2.147-1.333-3.961-1.333c-0.618,0-2.457,1.396-2.969,1.501
		c-0.169,0.846-0.601,3.061-0.968,3.654c-0.853,1.398-2.717,3.499-3.155,5.343c-0.473,1.968,0.48,3.684,0.089,5.289
		c-0.239,0.988-1.459,2.603-2.276,3.464c-0.89,0.935,1.763,3.464,2.021,4.748c0.337,1.655-3.756,4.137-4.165,5.896
		c-0.252,1.053,2.044,2.628,2.613,3.731c0.762-0.111,3.569,0.297,4.358,0.033c0.222,1.311-2.459,4.394-1.816,5.171
		c0.997,1.208,4.051,2.515,4.945,3.832c0.716,1.039,0.909,4.844,1.311,6.021c1.274,0.719,2.246,1.466,2.321,1.31
		c0.82-1.665,1.517-5.571,2.973-5.835c1.688-0.307,4.052,1.195,5.445,1.502c2.379,0.812,9.46,3.212,12.535,5.667
		c1.384,1.097,1.475,3.548,2.309,3.831c1.485,0.5,2.808-1.165,3.959-0.164c2.189,1.892,8.278,8.617,10.069,10.165
		c1.38-0.91,4.327-2.359,7.092-2.665c2.029-0.229,3.966,0.648,5.113,0.331c0.818-0.222,3.781-4.88,4.951-5
		c3.3-0.331,4.675,2.884,8.088,4.669c0.476,0.252,3.679,0.672,4.288,0.667c1.176,0.355,2.144,2.561,2.834,3.146
		c0.896,0.77,4.25,2.365,4.262,3.185c1.76,0.126,3.842,0.587,5.607,0c1.749-0.579,4.051-2.821,5.944-3.499
		c1.536-0.554,2.69,0.509,3.91-0.353c0.929-0.654,1.389-6.343,2.027-7.647c0.726-1.49,2.594-3.395,3.461-4.333
		c-0.135-0.746,0.523-3.191,0-3.667c-0.715-0.661-3.348-0.989-3.139-2.001c0.416-1.898,5.099-3.317,6.276-5
		c0.997-1.421,2.559-4.363,2.799-5.998C547.425,240.546,548.441,236.857,548.03,234.516"/>
	<path fill="#0080FF" d="M405.799,199.825c-2.314-0.09-7.53-0.965-10.344-2.377c-1.964-0.986-1.952-3.903-1.406-5.567
		c1.379-4.243,5.986-13.18,5.986-14.682c0-0.887,0.193-3.092-1.113-3.498c-1.945-0.601-5.655-0.511-5.655-0.511
		c-0.366-2.47-0.461-6.238,0.213-7.842c0.666-1.605,2.834-3.655,3.497-5.187c0.854-1.983,0.15-8.042,0.74-11.226
		c0.353-1.86-1.432-3.669-3.041-5.024c-5.211,0.108-10.464-0.648-15.782-1.56c-0.832-0.144-5.648-2.163-6.484-2.152
		c-2.248,0.036-4.719,1.698-6.408,1.113c-0.913-0.317-2.223-3.378-1.489-3.929c2.129-1.582,7.446-0.942,9.35-2.776
		c0.608-0.585,1.51-4.848-0.162-5.673c-1.178-0.579-4.001-3.48-4.001-3.48c-0.104,1.639-4.319,3.175-4.882,2.744
		c-1.681-1.301-3.23-4.611-6.187-3.898c-2.923,0.711-3.744,7.363-4.743,8.406c-1.749-0.421-3.954-0.258-5.582-1.165
		c-0.723-0.399-3.733-0.537-6.664-1.336c-4.058-1.104-8.325-2.794-9.442-2.086c-0.938,0.601-0.577,2.698-1.491,3.551
		c-0.883,1.815-5.823,2.224-6.738,2.949c-1.428,1.126-8.467,8.729-10.107,9.834c-1.376,0.938-5.528,1.229-6.388,1.389
		c-2.206,0.409-3.439,4.582-5.828,5.18c1.478,2.486,8.07,10.806,9.121,12.746c0.504,1.126,2.472,1.75,2.879,3.251
		c0.78,2.921-0.667,5.863,0,8.06c0.374,1.246,7.952,4.242,7.873,6.497c-0.023,0.708-2.921,1.977-3.253,3.005
		c-0.944,2.891-2.294,11.003-1.861,14.369c0.089,0.649,3.09,0.751,3.485,1.624c0.206,0.684,0.962,5.107,1.629,5
		c0.504-0.079,3.647-2.35,4.249-2.375c0.793-0.03,1.749,2.375,1.749,2.375l-1.63,4.753c-0.667,0.042-3.672-0.949-3.786-0.553
		c-0.36,1.214-1.112,4.009-0.811,5.238c0.392,1.562,1.983,3.572,1.399,4.915c-1.214,2.804-5.155,7.979-6.196,10.785
		c-0.445,1.196-1.429,7.879-1.73,9.231c-0.612,2.854,1.324,4.055,0.38,6.751c-0.879,2.498-8.294,4.613-9.813,6.98
		c0.6,0.787,4.29,3.094,7.44,5.27c2.427,1.677,2.493,4.808,4.247,4.622c2.374-0.253,5.246-7.75,6.625-9.249
		c1.176-1.287,3.236-1.469,4.728-1.575c1.803-0.125,1.838-4.207,2.638-5.721c1.003-1.904,5.174-0.555,7.133-0.576
		c1.89,0.053,7.767-0.506,10.398-0.566c1.489-0.03,4.785-4.462,5.72-3.558c0.368,0.382,4.759,3.233,5.002,3.375
		c1.081,0.619,5.073,6.52,4.704,8.261c-0.497,2.352-3.762,6.141-3.383,8.138c0.367,1.919,2.385,6.886,2.385,9.597
		c0,2.103-1.994,2.671-1.753,4.561c0.186,1.445,2.565,3.377,2.565,3.377c1.226-0.722,3.376-3.732,4.183-5.187
		c0.626-1.129-0.527-4.567,0.986-5.234c2.083-0.914,11.399-2.59,11.988-2.895c2.368-1.204,3.763-5.636,5.89-7.289
		c1.684-1.31,8.241-2.341,10.723-1.668c0.666-0.889,1.975-2.104,2.646-3.498c0.666-1.411-0.229-4.645,0.329-6.333
		c1.634-4.958,4.776-12.165,4.776-12.165c-0.174-1.073,0.02-3.275-0.653-4.501c-0.464-0.853-5.006-3.278-5.777-3.789
		c-0.324-2.041,0.903-5.827,1.484-7.623c1.048-3.237,4.25-4.766,5.938-7.876c0.26-0.478-0.194-3.892,0.108-4.234
		c0.824-0.929,2.915-2.292,2.741-3.768C408.994,202.348,406.768,201.058,405.799,199.825"/>
	<path fill="#0080FF" d="M326.683,209.93l1.627-4.751c0,0-0.963-2.404-1.753-2.374c-0.593,0.028-3.74,2.296-4.252,2.374
		c-0.665,0.107-1.417-4.314-1.621-4.998c-0.403-0.874-3.401-0.976-3.485-1.625c-0.433-3.368,0.917-11.478,1.861-14.375
		c0.331-1.021,3.221-2.289,3.245-2.999c0.087-2.254-7.493-5.249-7.871-6.497c-0.655-2.199,0.78-5.138,0-8.059
		c-0.398-1.502-2.375-2.125-2.874-3.251c-1.057-1.939-7.637-10.265-9.127-12.747c-1.408,0.354-6.3-3.461-7.777-4.159
		c-1.605-0.751-2.633,4.014-4.334,3.894c-1.431-0.097-5.464-2.016-7.423-2.049c-2.811-0.042-10.828-0.252-12.373-0.613
		c-0.866-0.207-0.774-1.978-1.232-3.275c-0.39-1.1-6.659-6.215-7.836-5.946c-0.703,0.156-4.508,3.717-4.742,4.51
		c-0.396,1.322,1.07,5.667,0.655,6.688c-0.247,0.61-4.255,0.853-4.988,1.097c-2.801,0.94-4.934,7.545-6.189,7.726
		c-1.118,0.162-5.031-1.418-6.19-2.458c-0.667-0.607,0.642-3.859,0.625-5.061c-0.942-0.568-2.681-3.077-5.979-3.077
		c-1.61,0-11.087,4.868-13.198,5.536c-0.974,0.312-5.829-5.713-6.803-5.126c-1.28,0.775-4.885,4.816-5.559,6.349
		c-0.818,1.847-0.74,4.964-1.923,5.129c-1.076,0.15-5.739-1.294-6.539-2.05c-1.226-1.148-2.236-6.292-2.272-8.401
		c-0.03-1.885-3.437-1.532-5.571-2.464c-1.7-0.739-3.353-2.295-5.769-2.043c0,0-4.141,0.373-3.918,2.66
		c0.115,1.215,1.382,7.875,0.823,9.023c-0.841,1.721-4.086,4.327-5.36,5.739c-1.4,1.544-2.007,10.775-3.485,12.241
		c-0.698,0.691-6.497-0.997-7.65-0.559c-1.256,0.478-2.549,6.028-3.504,6.969c-0.661,0.649-3.893-1.767-5.36-0.82
		c-2.08,1.34-12.933,10.361-13.87,11.273c-0.788,0.77-2.933,1.281-3.853,1.659c-0.379,1.311-0.637,4.795,0.517,5.523
		c2.699,1.694,7.614,0.844,10.145,2.659c1.173,0.839,0.462,4.367-0.21,5.737c-0.072,0.156-4.273,7.073-7.644,12.677
		c0.601,0.497,2.752,6.254,3.504,6.38c2.217-0.084,10.319-1.082,11.749-2.128c0.883-0.648-0.229-3.23,0.5-4.75
		c0.607-1.266,1.304-1.278,2.121-2.498c1.418-2.115,1.767-4.035,2.253-5.499c0.386-1.166,2.224-0.8,3.372,0
		c0.872,0.6,1.833,3.732,3.377,3.873c1.539,0.145,5.084-1.539,5.499-2.623c0.846-2.23,1.358-3.771,2.872-4.628
		c1.37-0.771,7.927,1.166,8.876,1.502c0.643,0.229,0.204,2.813,1.377,3.372c2.001,0.971,5.018,3.888,5.992,3.125
		c0.643-0.493,0.564-1.532,1.376-2.747c1.442-2.145,3.227-3.551,4.878-4.876c1.149-0.925,2.176-2.214,3.252-1.998
		c0.409,1.055,3.281,3.365,4.123,3.375c1.598,0.015,3.912-8.994,3.996-10.123c0.252-3.504,5.024-8.792,7.121-8.625
		c2.309,0.187,4.202,3.778,7.001,6.124c0.775,0.645,3.696,0.61,4.201,1.094c0.751,0.715-1.177,3.773-1.575,6.407
		c-0.359,2.419,0.789,4.423,1.75,5.123c-0.013,1.563-1.093,4.035-2.374,5.622c-1.274,1.592-2.747,2.302-3.377,3.128
		c1.34,1.265,3.546,3.167,4.002,5.121c0.14,0.585-0.618,2.163-0.498,2.875c0.163,0.949,2.152,2.228,2.374,3.252
		c0.648,2.981-0.92,5.901-0.247,8.053c0.247,0.809,4.544,3.239,5.181,3.627c1.623,1.003,7.319-0.775,10.998-0.874
		c1.111-0.027,1.743,2.185,1.827,4.198c1.058-0.045,1.676,1.288,3.468,1.469c1.802,0.186,4.783-0.782,5.161-0.998
		c1.329-0.757,3.817,3.678,5.164,4.333c1.839,0.886,8.004-9.405,10.407-10.46c1.25-0.55,5.187-0.105,6.545-0.057
		c0.006,0.61-0.888,3.696-0.62,3.853c1.408,0.781,4.183,1.069,5.338,1.995c2.541,2.046,2.969,4.549,4.374,3.738
		c1.894-1.093,5.829-5.444,7.367-5.507c2.808-0.114,2.645,6.794,4.395,8.84c0.798,0.935,3.688,1.947,5.377,1.578
		c1.517-2.371,8.938-4.478,9.81-6.98c0.95-2.692-0.985-3.902-0.373-6.746c0.295-1.358,1.286-8.041,1.726-9.237
		c1.045-2.808,4.98-7.984,6.201-10.787c0.584-1.341-1.016-3.351-1.4-4.914c-0.301-1.226,0.446-4.023,0.811-5.24
		C323.014,208.984,326.006,209.975,326.683,209.93"/>
	<path fill="#0080FF" d="M598.789,335.136c-1.87-0.751-4.736,0.421-6.063-0.249c0.073,0.57-0.578,2.448-1.857,3.374
		c-1.027,0.749-2.646,0.55-3.215,1.003c-0.602,0.46,0.654,2.13-0.866,2.372c-1.274,0.201-2.751-1.583-2.967-1.5
		c-0.807,0.315-2.723,2.629-2.603,4.75c0.056,0.872,2.967,2,3.838,1.623c0.277-0.121,2.726-2.939,3.15-2.999
		c0.433-0.061,2.591,1.73,3.672,1.61c0.949-0.105,3.274-5.018,3.816-4.609c0.945,0.709,0.102,6.49,1.604,7.379
		c0.478-1.043,3.493-5.883,4.425-7.603C601.091,339.827,599.823,335.554,598.789,335.136 M591.873,350.879
		c-1.785-0.336-3.546-2.797-4.472-1.992c-0.871,0.763-0.667,7.424-0.12,8.374c0.739,1.274,3.07,2.656,3.834,2.374
		c1.357-0.499,4.537-8.01,3.738-8.72C594.288,350.406,592.822,351.059,591.873,350.879z M581.415,327.135
		c0,0-1.911-3.221-3.905-5.746c-1.379-1.728-3.187-2.927-2.854-3.335c0.336-1.999,5.273-1.359,5.288-2.662
		c0.005-1.119-0.951-2.092-2.321-2.993c-0.505-0.328-2.366,1.469-2.967,1.16c-3.523-1.852-6.828-5.556-6.93-7.503
		c0.175-1.463,5.407-0.525,6.105-1.665c1.532-2.467,2.253-9.433,3.239-11.097c0.733-1.229,1.365-2.308,1.383-2.398
		c0.221-1.171,0.078-3.498-0.994-4.333c-1.603-1.269-6.17,2.566-7.702,2.86c-0.67,0.132-1.903-3.545-2.356-4.362
		c1.551-0.683,3.829-4.42,4.947-5.833c0,0,0.082-3.3-0.66-3.5c-1.925-0.523-6.236-2.97-8.085-2.169
		c-1.843,0.805-2.146,4.5-2.146,4.5c-1.306-0.295-4.778-5.084-7.71-8.037c-1.544-1.554-3.667-2.138-3.674-2.293
		c-0.054-1.271-0.661-4.006-1.646-5.433c-1.706-2.452-5.823-3.961-7.758-4.165c-0.866,0.938-2.734,2.843-3.469,4.333
		c-0.637,1.298-1.089,6.995-2.014,7.645c-1.225,0.865-2.386-0.199-3.918,0.354c-1.894,0.68-4.193,2.921-5.944,3.498
		c-1.765,0.585-3.839,0.126-5.605,0c-0.222,0.19-2.006,1.355-2.645,2.503c-0.805,1.457-0.499,2.964-0.824,3.329
		c-0.432,0.486-3.357,0.138-3.96,0.499c-0.822,0.504-0.834,1.986-1.652,3.336c-1.431,2.376-5.435,6.859-5.607,9.333
		c-0.067,0.971,1.312,2.99,1.983,3.663c1.852-0.781,4.783-1.592,5.606-0.83c0.946,0.866,1.593,4.649,2.97,4.166
		c1.364-0.481,3.149-0.436,4.458-0.998c0.363-0.157,3.607-5.196,3.956-5.333c1.153-0.46,4.278,4.233,5.281,4.161
		c2.153-0.15-1.495,3.583,0.374,9.099c0.238,0.7,1.892,0.451,2.267,0.403c0.495,0.775,0.775,4.026,2.017,5.667
		c0.979,1.286,2.971,0.974,3.343,1.749c0.762,1.563-0.372,3.594,0.745,4.502c0.408,0.33,4.063-0.145,4.826,0.251
		c0.864,0.442,3.102,2.813,3.213,3.874c0.061,0.483-1.411,1.34-1.73,2.37c-0.318,1.034,0.512,2.244,0.127,2.879
		c-0.913,1.484-4.382,4.252-5.071,5.745c-0.703,1.516,2.471,5.878,3.708,6.125c1.236,0.126,3.586-2.621,5.198-0.997
		c0.584,0.592-2.231,4.249-3.089,5.378c1.629-0.63,10.66-3.737,13.978-4.819c2.878-0.938,6.618-3.498,7.802-3.624
		c1.375-0.151,4.819,0.561,6.057,0.247c0.782-0.195,2.861-0.493,3.961-1.371c0.818-0.661,0.787-2.184,1.61-3.377
		c0.697-1.016,2.284-1.73,2.723-1.998C581.559,329.755,581.524,328.468,581.415,327.135z M569.708,337.267
		c-1.44,0.093-3.017,0.775-4.206,1.371c0.822,1.334,0.961,4.468,1.976,6.875c1.022,2.404,2.926,4.081,3.717,4.625
		c0.505-0.354,3.408-3.45,5.137-4.937c0.492-0.427,1.378-0.114,1.485-0.313c0.652-1.259,1.044-5.136,0.305-6.5
		C577.761,337.75,571.071,337.204,569.708,337.267z"/>
	<path fill="#0080FF" d="M548.939,339.517c-1.619-1.625-3.967,1.127-5.204,0.998c-1.233-0.25-4.413-4.612-3.716-6.125
		c0.704-1.493,4.164-4.26,5.079-5.748c0.384-0.634-0.446-1.843-0.126-2.876c0.319-1.03,1.791-1.884,1.729-2.374
		c-0.112-1.058-2.351-3.428-3.214-3.873c-0.762-0.396-4.419,0.078-4.825-0.25c-1.119-0.91,0.018-2.939-0.746-4.501
		c-0.373-0.774-2.362-0.466-3.334-1.751c-1.25-1.635-1.522-4.889-2.025-5.664c-0.376,0.051-2.033,0.296-2.268-0.403
		c-1.868-5.514,1.779-9.249-0.372-9.096c-0.998,0.072-4.128-4.625-5.282-4.171c-0.349,0.144-3.594,5.178-3.96,5.334
		c-1.305,0.562-3.09,0.519-4.448,1.003c-1.382,0.484-2.029-3.303-2.974-4.167c-0.826-0.763-3.755,0.048-5.606,0.832
		c-0.675-0.676-2.053-2.692-1.979-3.663c0.166-2.477,4.171-6.963,5.607-9.333c0.814-1.355,0.822-2.837,1.647-3.335
		c0.605-0.367,3.529-0.012,3.966-0.498c0.317-0.368,0.011-1.875,0.824-3.335c0.63-1.144,2.415-2.309,2.636-2.501
		c-0.007-0.823-3.359-2.41-4.26-3.179c-0.691-0.59-1.652-2.795-2.836-3.152c-0.602,0.006-3.811-0.412-4.287-0.665
		c-3.412-1.784-4.781-5-8.088-4.666c-1.171,0.117-4.126,4.775-4.952,4.997c-1.147,0.319-3.083-0.555-5.113-0.331
		c-2.766,0.31-5.704,1.754-7.092,2.663c-1.786-1.544-7.878-8.273-10.062-10.163c-1.152-0.997-2.481,0.665-3.96,0.168
		c-0.841-0.284-0.937-2.734-2.313-3.833c-3.077-2.452-10.162-4.856-12.534-5.671c-1.395-0.302-3.758-1.802-5.452-1.494
		c-1.444,0.259-2.142,4.163-2.962,5.831c-0.081,0.155-1.06-0.595-2.336-1.314c-0.777,0.442-2.293,3.233-3.278,3.651
		c-1.34,0.554-2.272-1.376-3.137-0.506c-1.314,1.335,1.978,7.333,1.154,8.667c-1.173,1.902-7.267,4.308-8.908,4.832
		c-1.087,0.349-2.241-0.992-2.8-0.331c-0.563,0.659-0.521,3.312-1.004,4.267c-0.552,1.086-0.497,2.771,0.174,4.231
		c0.806,0.364,1.268,2.958,2.309,4.165c0.721,0.835,10.78,2.485,11.388,2.837c2.608,1.497,1.697,4.952,3.462,7.501
		c1.14,1.637,3.192,6.348,3.797,7.996c0.349,0.953,1.677,0.156,2.479,1c1.142,1.221,1.905,4.03,3.128,5.166
		c0.189,2.073,1.185,6.361-0.328,7.169c-1.931,1.027-8.643-5.857-10.392-3.335c-1.67,2.394,5.613,8.663,4.784,10.328
		c-0.545,1.105-3.365,2.073-3.793,3.167c-0.376,0.967,1.04,2.8,1.478,4.003c1.817-0.205,3.434,0.634,3.469,0.835
		c0.296,1.61,0.626,5.371,0.332,8.329c-0.176,1.743-1.04,2.674-0.993,4.171c0.089,2.786,2.501,5.204,3.307,6.827
		c0.515,1.058,2.962,0.201,4.782,0.669c2.117,0.538,3.667,2.359,4.784,3.164c1.737,1.248,1.316,6.5,1.316,6.5
		c0.168,1.83,0.26,4.167,0.829,4.499c0.992,0.577,2.722,1.688,4.453,2.002c1.757,0.311,2.361-2.303,3.299-2.002
		c1.894,0.607,4.069,3.944,5.938,4.669c0.693,0.261,1.821-0.181,3.132,0.164c0.583,0.148,1.534-2.547,2.152-2.333
		c2.05,0.715,6.101,1.333,7.259,2.665c0.913,1.059,0.979,5.554,0.66,7.5c3.445-0.573,6.485-2.004,10.395-2.665
		c0.587-0.104,1.523,1.658,2.143,1.499c1.456-0.373,4.532-4.72,5.944-4.998c1.4-0.282,6.568,0.456,7.765-0.07
		c0.974-0.431,2.445-6.209,2.793-9.67c0.17-1.646,2.381-11.806,2.639-12.425c0.435-1.048-1.899-3.335-1.899-3.335
		c1.46-0.706,8.126,2.863,9.525,3.627c0.739,0.402,2.803,2.112,3.464,2.5c0.864,0.505,5.315-1.154,6.58-1.667
		c0.913-0.373,6.071-3.165,7.157-3.582C546.702,343.763,549.521,340.11,548.939,339.517 M530.495,360.642
		c-0.393-0.084-3.846,1.108-3.96,1.718c-0.223,1.244-0.163,3.356-0.662,4.958c-0.354,1.148-1.244,1.827-1.563,2.66
		c-0.894,2.338,0.733,3.758,0.864,5.778c0.039,0.544-2.406-0.381-2.352,0.495c0.127,1.945,5.256,5.557,6.561,4.797
		c2.524-1.479,4.568-5.586,5.072-8.483C534.955,369.73,534.004,361.354,530.495,360.642z"/>
	<path fill="#0080FF" d="M591.873,350.879c0.949,0.18,2.415-0.473,2.98,0.036c0.799,0.71-2.381,8.222-3.738,8.72
		c-0.764,0.283-3.095-1.099-3.834-2.374c-0.547-0.95-0.751-7.611,0.12-8.374C588.327,348.082,590.087,350.542,591.873,350.879
		 M576.331,345.2c-1.729,1.487-3.637,4.042-3.637,5.029c-1.363,2.75,0.062,6.895-1.483,8.375
		c-1.012,0.977-10.561,3.422-11.882,2.503c-0.919-0.648-3.463-2.626-4.327-3.879c-0.728-1.043-0.322-4.313-0.498-7.312
		c-0.133-2.322-1.413-4.314-1.053-4.997c0.517-0.97,7.797-2.584,8.235-2.75c1.369-0.534,3.646-3.062,5.317-3.438
		c0.823,1.328,1.264-1.373,2.704-1.466c1.363-0.063,8.054,0.483,8.413,1.121c0.739,1.364,0.348,5.241-0.305,6.5
		C577.708,345.085,576.823,344.773,576.331,345.2z M597.297,347.892c-1.502-0.89-0.658-6.67-1.604-7.379
		c-0.542-0.409-2.867,4.504-3.816,4.609c-1.081,0.12-3.239-1.671-3.672-1.61c-0.425,0.06-2.873,2.878-3.15,2.999
		c-0.871,0.377-3.782-0.751-3.838-1.623c-0.12-2.122,1.796-4.436,2.603-4.75c0.216-0.084,1.692,1.701,2.967,1.5
		c1.521-0.241,0.265-1.912,0.866-2.372c0.569-0.453,2.188-0.255,3.215-1.003c1.279-0.926,1.931-2.804,1.857-3.374
		c1.327,0.67,4.193-0.502,6.063,0.249c1.034,0.418,2.303,4.69,2.934,5.153C600.791,342.008,597.775,346.849,597.297,347.892z
		 M599.752,369.981c-0.26,1.277-2.857,0.896-4.33,1.521c-1.281,1.351-4.145,1.523-4.704,1.25c-0.277-1.004,1.964-2.955,1.482-4
		c-0.557-1.226-2.655-1.093-2.146-2.188c0.613-1.351,7.361-5.141,10.11-4.73C600.875,361.939,600.14,368.096,599.752,369.981z
		 M621.109,361.75c-1.254,0.688-4.73,0.787-6.804,1.878c-2.819,1.481-4.933,4.855-6.93,4.748c-2.355-0.127-5.104-4.295-5.39-6.645
		c-0.205-1.665,7.367-7.728,11.329-7.979c0.554-0.035,1.568,5.161,2.758,5.414c0,0,5.202-4.163,6.146-3.415
		C622.852,356.251,621.733,360.753,621.109,361.75z M553.391,353.105c-0.449,0.683-4.448,1.891-5.199,1.316
		c-0.512-0.394-0.391-1.671-0.865-2.689c-0.54-1.166-1.621-2.096-1.357-2.813c0.313-0.853,4.79-4,6.063-3.185
		C553.223,346.493,553.77,352.532,553.391,353.105z M513.295,388.824c-0.451,0.046-5.072-1.595-4.953-4.176
		c0.187-3.816,2.104-8.521,5.728-10.695c0.554-0.333,1.7,0.087,1.84,0.61c0.636,2.36,2.079,6.963,2.086,7.994
		C518.006,384.469,516.161,388.551,513.295,388.824z M541.506,386.789c1.308,2.732,2.001,6.829,0.617,8.503
		c-0.685,0.824-3.313,3.304-5.647,4.5c-1.648,0.842-3.151,0.461-3.759,0.875c-2.018,1.374-2.336,3.481-4.206,5.248
		c-1.947,1.846-4.874,2.822-6.683,4.25c-1.27,1.003-6.364,1.141-7.914,0.502c-2.393-0.988-3.642-4.833-3.716-7.251
		c-0.102-3.305,2.971-4,3.716-7.623c0.376-1.834,1.704-5.552,3.087-6.878c0.518-0.487,2.121-5.684,2.85-5.499
		c1.796,0.462,1.82,2.587,3.341,2.791c1.239,0.167,11.022-3.754,13.114-4.29C538.374,381.39,540.561,384.827,541.506,386.789z
		 M536.642,360.71c-0.517-0.391,3.713-5.601,4.987-4.79c1.197,0.761,0.267,3.234-0.288,3.624
		C540.513,360.131,537.385,361.288,536.642,360.71z M566.872,382.268c0.691,1.534-6.558,3.969-6.798,6.9
		c-0.065,0.762,5.788,0.865,6.06,1.64c0.402,1.161-3.427,3.527-4.088,4.811c-0.661,1.284,0.337,3.031,0,4.089
		c-0.18,0.589-4.23,0.965-6.311-1.441c-1.497-1.736-3.233-4.625-4.953-6.258c-2.078-1.975-4.537-1.949-5.436-3.004
		c-2.118-2.473-2.591-7.07-4.089-9.742c-0.902-1.629-3.624-3.028-4.081-4.938c-0.396-1.643,1.294-2.286,1.978-4.088
		c0.397-1.03-1.358-1.563-0.985-2.885c0.107-0.394,3.373-0.648,3.955-0.962c0.938-0.5,0.871-3.755,1.357-3.965
		c1.691-0.754,10-0.953,10.398,0.171c0.28,0.784,0.321,5.905,1.115,6.493c0.513,0.388,6.149,2.677,6.68,3.012
		c1.609,1.001,3.028,5.583,3.221,7.04c0.017,0.15,1.49,0.232,1.977,0.962C567.322,380.771,566.792,382.091,566.872,382.268z"/>
	<path fill="#0080FF" d="M402.751,402.733c-0.143,0.597,3.716,2.62,4.825,2.498c0.492-1.409,2.185-2.378,2.97-3.502
		c0.577-0.82,0.469-1.907,0-2.37C409.82,398.632,403.063,401.42,402.751,402.733 M453.443,307.285
		c-1.231-1.133-1.986-3.949-3.13-5.163c-0.801-0.848-2.127-0.048-2.478-1.004c-0.605-1.646-2.655-6.358-3.798-7.998
		c-1.773-2.549-0.852-5.999-3.461-7.5c-0.24-0.139-1.946-0.479-3.96-0.89c0.054-0.327,0.121-0.649,0.205-0.944
		c0.456-1.556,3.189-2.716,5.33-4.831c1.146-1.133,0.895-2.735,1.503-3.498c-1.004-0.7,1.357-4.897,0.969-5.294
		c-1.208-1.221-3.692-0.83-5.608-0.89c-0.831-0.023-2.218-0.36-3.701-0.799c1.809-0.886,3.532-1.93,4.109-2.854
		c0.823-1.332-2.475-7.327-1.155-8.664c0.86-0.871,1.793,1.06,3.133,0.502c0.991-0.416,2.493-3.208,3.287-3.648
		c-0.403-1.178-0.597-4.976-1.31-6.016c-0.897-1.322-3.948-2.623-4.947-3.834c-0.643-0.775,2.037-3.864,1.815-5.168
		c-0.786,0.265-3.592-0.147-4.356-0.033c-1.666,0.661-6.805,0.953-8.877,1.281c-1.972,0.308-2.098,2.827-3.762,2.587
		c-2.789-0.407-7.59-5.638-12.705-7.668c-1.862-0.733-3.353-0.229-4.943-0.166c0,0-3.152,7.203-4.792,12.167
		c-0.551,1.686,0.343,4.916-0.33,6.334c-0.661,1.393-1.972,2.608-2.638,3.497c-2.482-0.672-9.039,0.355-10.721,1.665
		c-2.13,1.653-3.528,6.085-5.893,7.291c-0.588,0.303-9.904,1.979-11.989,2.894c-1.52,0.664-0.358,4.104-0.984,5.231
		c-0.807,1.455-2.963,4.469-4.19,5.187c-0.257,1.244-3.461,2.14-4.038,2.561c-0.905-0.427-5.148-3.011-6.43-2.831
		c-0.644,0.093-1.244,2.037-2.333,3.336c-0.893,1.063-2.264,1.481-2.996,1.832c-2.04,0.971-1.646,6.917-3.167,8.167
		c-1.114,0.908-4.73-0.97-5.838-0.168c-1.495,1.088-2.08,3.503-3.496,4.664c-1.75,1.431-6.676,1.458-8.166,3.504
		c-0.423,0.574,3.279,2.944,2.83,3.997c-1.017,2.418-4.461,8.023-3.373,9.969c0.434,0.77,2.783,1.31,3.871,2.532
		c0.899,1,0.516,2.727,1.173,3.163c2.154,1.462,6.448-1.433,7.997-0.5c1.237,0.752,3.774,4.07,5.164,4.667
		c1.4,0.601,4.759-2.779,6.172-1c0.617,0.792,2.121,5.265,1.664,5.832c-1.472,1.834-3.918,1.993-5.837,4.002
		c-2.148,2.264-3.693,6.418-3.496,9.166c0.234,3.358,2.001,6.83,2.667,8.667c0.17,0.474,1.437,7.382,0.998,8.328
		c-0.438,0.95-2.579,0.202-2.83,0.835c-0.511,1.266-0.763,2.795,0,3.998c-0.601,0.339-1.839,1.442-2.836,1.501
		c-1.376,0.09-2.571-0.974-3.668-1.333c-0.534,0.083-7.133,5.453-7.828,6.499c-0.577,0.865,1.362,4.633,1.494,6.331
		c0.097,1.17-2.458,1.723-2.83,2.835c-0.336,1.002,1.004,2.834,1.004,2.834c0.967-0.22,4.188,1.393,6.328,1.499
		c2.314,0.112,5.632-0.664,7.001-0.168c1.58,0.577,3.499,1.399,3.829,2.168c0.774,1.765,4.778,8.391,5.336,9.666
		c2.327-0.97,4.31-3.271,6.504-4.832c2.188-1.565,8.142-6.103,10.323-7.502c1.088-0.691,2.357,3.631,3.672,2.167
		c1.202-1.335,3.521-4.577,5.115-5.999c2.476-2.215,5.925-4.152,8.674-4.717l0.895,0.052c1.284,3.689,1.451,9.23,1.482,12.831
		c0-0.124,1.815,5.453,1.815,5.332c1.045,1.034,1.209,2.194,3.628,3.33c1.378,0.655,3.141,0.475,3.794,0.84
		c1.563,0.854,0.396,4.257,1.002,5.241c0.788-0.45,1.891-1.408,1.955-3.108c0.047-1.113,1.438-2.39,1.665-3.469
		c0.351-1.644,0.932-2.105,1.815-3.499c0.878-1.378,1.357-5.539,2.805-6.333c0.391-0.216,4.7-2.034,5.116-2.168
		c0.894-0.287,6.116-0.207,7.093,0c0.939,0.201-0.049,5.722,1.318,6.002c0.705,0.143,2.734,1.425,3.137,2.332
		c0.355,0.813,0.411,3.005,0.986,2.833c0.733-0.219,1.906-2.586,2.976-2.666c0,0-1.652-8.666-1.321-11.664
		c0.601-5.48,3.493-11.893,2.475-14.667c-1.22-3.316-6.85-5.039-12.204-6.166c-3.449-0.726-5.14-3.527-7.097-5
		c-0.909-0.678-3.865,1.587-5.446,1.667c-1.219,0.058-3.63-0.498-3.63-0.498s0.175-3.812,0.983-4.501
		c1.225-1.034,3.032-3.591,5.614-4.828c1.774-0.86,4.436-0.487,5.444-1.004c1.041-0.536-1.578-5.248-2.559-5.619
		c-2.354-0.902-4.245,0.06-7.506-1.714c-0.866-0.474-2.074-2.15-2.728-3.45c0.726,0.668,1.346,1.212,1.765,1.449
		c1.167,0.667,9.437,1.34,10.248,2.458c0.66,0.905,1.317,7.621,1.125,8.997c1.466,1.629,6.581,4.279,6.748,2.752
		c0.301-2.665-0.752-10.126-0.12-11.875c0.623-1.761,1.885-4.073,3.744-4.748c-0.302-0.308-0.565-0.736-0.783-1.238
		c1.285,0.345,3.162,0.817,4.093,0.817c0,0,8.018,5.956,10.573,6.04c1.328,0.044,4.657-0.788,5.432-2.705
		c0.264-0.661,1.548-7.755,2.146-8.164c-0.445-1.206-1.871-3.032-1.491-4c0.433-1.1,3.252-2.067,3.797-3.167
		c0.825-1.668-6.455-7.936-4.788-10.331c1.754-2.518,8.459,4.362,10.395,3.329C454.629,313.643,453.632,309.358,453.443,307.285z"/>
	<path fill="#0080FF" d="M247.696,240.192c-3.679,0.099-9.376,1.875-10.998,0.872c-0.638-0.392-4.935-2.816-5.187-3.625
		c-0.667-2.151,0.901-5.075,0.252-8.056c-0.221-1.024-2.212-2.302-2.375-3.249c-0.119-0.715,0.638-2.293,0.5-2.879
		c-0.457-1.949-2.662-3.854-4.003-5.123c0.637-0.824,2.103-1.529,3.378-3.122c1.28-1.592,2.362-4.06,2.374-5.625
		c-0.961-0.697-2.11-2.705-1.749-5.124c0.396-2.635,2.326-5.688,1.575-6.409c-0.5-0.48-3.426-0.445-4.202-1.094
		c-2.801-2.343-4.693-5.938-6.995-6.121c-2.098-0.171-6.876,5.124-7.127,8.624c-0.079,1.133-2.398,10.139-3.997,10.124
		c-0.849-0.009-3.715-2.32-4.13-3.377c-1.069-0.211-2.091,1.076-3.245,2.001c-1.653,1.328-3.432,2.729-4.875,4.88
		c-0.817,1.21-0.738,2.25-1.376,2.746c-0.979,0.757-3.99-2.16-5.997-3.125c-1.172-0.565-0.734-3.143-1.375-3.377
		c-0.951-0.336-7.506-2.271-8.877-1.497c-1.508,0.854-2.025,2.398-2.874,4.622c-0.408,1.087-3.959,2.771-5.498,2.626
		c-1.544-0.145-2.506-3.27-3.377-3.877c-1.148-0.792-2.987-1.16-3.372,0c-0.486,1.467-0.836,3.387-2.254,5.505
		c-0.811,1.217-1.514,1.229-2.122,2.498c-0.727,1.517,0.391,4.097-0.499,4.75c-1.436,1.042-9.531,2.041-11.754,2.122
		c-0.746-0.126-2.897-5.878-3.498-6.377c-1.587,2.627-2.987,4.965-3.697,6.182c-0.685,1.187,0.438,5.027-0.408,6.355
		c-2.758,4.299-5.03,8.125-4.538,10.91c0.132,0.773,4.754,3.657,4.743,4.512c-0.031,1.537-0.908,3.974-2.11,6.592
		c0,0,5.997,4.91,10.385,10.258c2.925,3.557,4.603,8.198,5.252,8.497c2.002,0.926,7.47,0.689,7.47,0.689
		c-0.102,0.851,0.426,2.653-0.475,3.933c-1.899,2.713-5.872,5.258-5.374,6.749c0.854,2.53,4.333,3.882,5.043,6.719
		c0.469,1.905,5.264,3.748,7.206,4.281c0.865-0.144,3.545-6.078,5.126-7.124c1.581-1.04,10.378,3.701,11.25,2.626
		c0.479-0.601,0.18-2.663,0.83-4.67c0.75-2.301,2.469-4.579,3.293-5.456c1.009-1.076,5.246-3.117,7.121-3.625
		c3.432-0.925,8.257-5.317,11.376-7.001c3.185-1.719,8.246-1.371,10.872-1.371c1.611,0,3.503-2.08,3.503-2.08
		c2.441,0.821,5.578,1.809,7.025,1.858c1.918,0.06,4.394-0.338,5.607,0.886c0.391,0.399-1.977,4.594-0.968,5.293
		c0.608-0.272,1.641,0.467,2.603-0.17c1.178-0.782,1.269-2.734,2.332-3.997c1.521-1.809,6.232-6.177,6.328-8.666
		c0.138-3.612-0.756-8.15-0.498-10.665c0.15-1.445,1.809-4.552,3.671-5.998c0.842-0.658,1.725-0.976,2.53-0.643
		C249.444,242.379,248.807,240.159,247.696,240.192"/>
	<path fill="#0080FF" d="M248.405,325.524c-1.797-0.578-4.604,0.228-5.247-0.421c-0.415-0.415-0.367-4.501-0.92-4.829
		c-2.68-1.602-7.933-3.167-9.352-2.584c-0.583,0.243-0.331,3.083-1.082,3.75c-2.078,1.849-7.356,2.137-10,1.752
		c-1.623-0.244-3.258-2.723-4.165-4.083c0.078-0.526-4.201-3.759-4.664-4.333c-0.372-0.466,1.227-2.239,0.999-4.501
		c-0.181-1.797-2.266-4.03-1.959-5.271c0.463-1.88,7.284-2.692,8.293-4.895c0.336-0.736,0.294-2.433,0.667-3.167
		c1.111-2.19,4.381-3.539,4.664-5.498c0.289-1.965-0.006-4.757,0.156-7.133c0.048-0.799,0.157-1.545,0.342-2.2
		c0.464-1.56,3.197-2.716,5.337-4.832c1.148-1.13,0.89-2.732,1.503-3.501c-1.01-0.694,1.352-4.895,0.962-5.288
		c-1.208-1.224-3.685-0.833-5.607-0.892c-1.443-0.042-4.58-1.032-7.021-1.852c0,0-1.892,2.076-3.503,2.076
		c-2.626,0-7.692-0.345-10.877,1.373c-3.113,1.683-7.939,6.077-11.371,7.001c-1.875,0.505-6.111,2.545-7.121,3.624
		c-0.824,0.877-2.548,3.155-3.293,5.457c-0.65,2.001-0.349,4.069-0.836,4.665c-0.871,1.075-9.664-3.667-11.244-2.621
		c-1.587,1.04-4.267,6.984-5.127,7.122c0.138,1.635,2.255,3.897,1.75,6.25c-0.343,1.593-2.933,5.746-3.372,6.75
		c-0.727,1.659,0.74,6.226,0.746,8.5c0.006,1.392-4.851,1.8-6.244,1.999c-0.186,1.067-0.192,2.915,0,4.248
		c0.247,1.749,3.99,1.509,4.249,2.999c0.205,1.235,0.703,7.26,1.497,8.251c0.997,1.251,7.181,1.683,9.001,0.253
		c1.822-1.437,3.913-6.045,5.746-6.875c1.791-0.811,8.034,6.666,10,7.789c1.166,0.667,9.436,1.34,10.247,2.461
		c0.661,0.902,1.316,7.611,1.124,8.997c1.466,1.625,6.581,4.275,6.755,2.749c0.3-2.668-0.752-10.126-0.126-11.872
		c0.625-1.76,1.887-4.072,3.75-4.75c0.06,1.06,1.472,4.506,1.875,5.499c0.811,2.007,3.858-0.307,3.75,1.628
		c-0.09,1.481-3.028,5.379-2.128,8.745c0.65,2.417,2.981,4.23,3.504,4.747c0.998,1.377,4.928,3.874,5.871,5
		c1.479,1.779,1.25,6.257,1.25,6.257c1.851-0.77,8.931-4.006,11.43-4.381c-0.883-1.951-2.169-6.299-2.121-7.083
		c0.126-1.986,4.85-3.387,5.331-3.664c0.721-0.415,2.681-3.118,3.083-4.164c0.517-1.353-2.891-2.506-3.365-3.504
		c-0.722-1.532,1.31-3.756,2.861-4.32c0.847-0.307,0.859,1.911,1.838,2.404c1.443,0.732,2.277-0.235,3.383-1.071
		c1.329-0.997,3.612-7.68,4.531-9.51C253.892,328.364,251.126,326.396,248.405,325.524"/>
	<path fill="#0080FF" d="M359.572,244.399c-0.24-0.139-4.632-2.99-5-3.374c-0.943-0.905-4.23,3.53-5.727,3.561
		c-2.632,0.056-8.506,0.618-10.396,0.564c-1.96,0.021-6.129-1.328-7.135,0.577c-0.8,1.511-0.827,5.595-2.631,5.721
		c-1.496,0.106-3.559,0.289-4.736,1.575c-1.369,1.502-4.243,9.002-6.625,9.249c-1.746,0.187-1.819-2.944-4.246-4.622
		c-3.144-2.175-6.835-4.483-7.44-5.27c-1.689,0.366-4.573-0.644-5.372-1.578c-1.756-2.047-1.587-8.951-4.395-8.837
		c-1.537,0.06-5.479,4.411-7.371,5.505c-1.401,0.811-1.828-1.692-4.376-3.736c-1.148-0.922-3.931-1.21-5.332-2.004
		c-0.271-0.149,0.625-3.236,0.613-3.846c-1.353-0.048-5.288-0.492-6.539,0.06c-2.404,1.051-8.57,11.343-10.409,10.458
		c-1.352-0.659-3.834-5.091-5.162-4.333c-0.385,0.212-3.366,1.176-5.169,0.997c-1.791-0.18-2.403-1.509-3.468-1.47
		c-0.799-0.337-1.683-0.021-2.53,0.641c-1.856,1.449-3.515,4.549-3.666,5.997c-0.264,2.512,0.637,7.05,0.499,10.664
		c-0.096,2.485-4.813,6.854-6.334,8.669c-1.057,1.256-1.154,3.215-2.332,3.997c-0.961,0.637-1.995-0.108-2.596,0.165
		c-0.607,0.77-0.354,2.371-1.502,3.501c-2.145,2.115-4.875,3.275-5.331,4.832c-0.193,0.654-0.301,1.403-0.349,2.196
		c0,0,1.484,1.016,3.672,1.302c3.797,0.504,8.798,0.473,9.856,1.003c0.498,0.249,3.917,3.746,4.663,4.579
		c1.004,1.118-0.71,4.454-0.416,7.837c0.042,0.468,5.109,1.237,5.583,1.249c1.287,0.018,2.013-1.184,2.831-1.586
		c1.195-0.583,2.398-0.475,4.254-0.883c1.311-0.286,1.659-2.07,2.915-2.837c0.613-0.373,7.446-0.457,11.918,0.974
		c1.875,0.601,2.163,2.422,3.425,2.854c1.153,0.395,6.652-0.444,7.248-1.673c0.872-1.801-1.311-3.6-0.625-5.189
		c0.126-0.288,0.697-4.429,2.943-5.076c1.979-0.568,4.348-0.613,5.753,0.668c1.021,0.922,2.17,2.971,2.414,5
		c0.325,2.629,0.626,5.549,0,6.914c-1.566,3.413-4.501,4.165-5.995,6.749c-1.962,3.371-2.922,10.367-2.837,15.58
		c1.327-0.604,3.258,1.004,4.669,0.165c0.765-0.448,0.949-2.263,1.834-2.497c2.276-0.598,5.563,0.442,7.576-0.916
		c2.062-1.387,2.243-6.112,4.256-6.915c0.961-0.388,6.191,0.069,6.665,0.249c1.73,0.355,3.354,2.843,4.58,5.084
		c0.667,1.206,0.202,3.915,0.751,4.333c0.636,0.475,2.343,2.452,3.004,2.915c0,0,4.111-4.255,5.576-5.499
		c2.592-2.2,3.492-3.053,6.041-5.28c-1.088-1.947,2.354-7.554,3.377-9.97c0.445-1.051-3.25-3.422-2.83-3.999
		c1.486-2.047,6.418-2.07,8.161-3.498c1.424-1.166,2.001-3.579,3.499-4.67c1.111-0.803,4.723,1.076,5.836,0.168
		c1.525-1.244,1.129-7.194,3.167-8.164c0.73-0.351,2.103-0.772,2.996-1.836c1.096-1.298,1.694-3.239,2.335-3.336
		c1.284-0.18,5.528,2.404,6.434,2.837c0.578-0.427,3.774-1.316,4.039-2.56c0,0-2.379-1.935-2.56-3.377
		c-0.248-1.894,1.754-2.461,1.754-4.563c0-2.707-2.021-7.677-2.393-9.593c-0.379-1.998,2.885-5.791,3.385-8.141
		C364.639,250.922,360.647,245.021,359.572,244.399"/>
	<path fill="#0080FF" d="M220.928,322.675c2.639,0.386,7.915,0.096,10-1.752c0.746-0.664,0.494-3.506,1.082-3.747
		c1.419-0.585,6.666,0.98,9.346,2.582c0.552,0.328,0.498,4.415,0.92,4.829c0.642,0.649,3.449-0.157,5.247,0.421
		c2.716,0.871,5.486,2.839,5.751,3.248c1.437,0.204,2.782-0.73,3.996-0.497c2.494,0.467,4.67,2.092,7.5,2.249
		c1.912,0.102,5.854-1.16,7.837-1.083c1.147-2.013,1.94-2.95,3.997-4.585c1.437-1.142,4.229-2.313,5.913-3.083
		c-0.084-5.213,0.877-12.211,2.836-15.579c1.503-2.582,4.429-3.335,5.998-6.753c0.63-1.364,0.326-4.282,0-6.911
		c-0.246-2.031-1.394-4.074-2.416-5c-1.406-1.28-3.772-1.238-5.753-0.67c-2.247,0.646-2.812,4.787-2.937,5.079
		c-0.692,1.586,1.491,3.386,0.618,5.189c-0.594,1.231-6.094,2.066-7.242,1.67c-1.268-0.433-1.556-2.254-3.436-2.854
		c-4.466-1.428-11.299-1.346-11.913-0.974c-1.256,0.77-1.604,2.554-2.916,2.836c-1.856,0.409-3.058,0.304-4.254,0.884
		c-0.817,0.402-1.544,1.607-2.831,1.586c-0.475-0.009-5.542-0.78-5.583-1.252c-0.295-3.377,1.418-6.713,0.421-7.831
		c-0.752-0.832-4.171-4.333-4.67-4.582c-1.058-0.529-6.058-0.5-9.855-1.004c-2.188-0.286-3.672-1.298-3.672-1.298
		c-0.163,2.377,0.132,5.168-0.157,7.134c-0.282,1.965-3.551,3.308-4.664,5.499c-0.373,0.732-0.33,2.431-0.667,3.167
		c-1.009,2.202-7.831,3.017-8.293,4.894c-0.306,1.242,1.785,3.473,1.959,5.274c0.228,2.265-1.37,4.032-0.998,4.498
		c0.463,0.575,4.742,3.808,4.663,4.333C217.666,319.954,219.3,322.429,220.928,322.675"/>
	<path fill="#0080FF" d="M194.623,402.642c0.932-0.498,5.602-4.491,6.25-5.249c1.558-1.819,2.001-4.968,3.498-6.621
		c1.515-1.676,3.763-3.047,5.379-4.875c1.105-1.257,1.598-2.967,2.614-4.151c1.075-1.073,3.348-1.807,4.008-3.348
		c1.046-2.45,0.831-5.854,1.592-7.54c0.476-1.07,2.645-2.461,3.156-3.087c0.427-0.522,2.74,1.498,3.054,1.119
		c1.201-1.479,0.721-4.093,2.824-4.992c0,0,0.229-4.468-1.249-6.247c-0.938-1.129-4.875-3.626-5.879-5
		c-0.517-0.523-2.854-2.339-3.498-4.754c-0.895-3.361,2.039-7.259,2.128-8.746c0.108-1.936-2.938,0.378-3.75-1.626
		c-0.403-0.988-1.822-4.438-1.876-5.499c-1.861,0.679-3.124,2.99-3.755,4.748c-0.62,1.755,0.433,9.213,0.126,11.878
		c-0.168,1.523-5.282-1.127-6.743-2.749c0.187-1.383-0.475-8.096-1.13-9.003c-0.811-1.115-9.08-1.79-10.246-2.458
		c-1.972-1.124-8.21-8.6-10.001-7.789c-1.827,0.83-3.93,5.441-5.75,6.875c-1.821,1.43-7.999,0.998-8.998-0.253
		c-0.793-0.991-1.292-7.013-1.502-8.248c-0.252-1.494-3.996-1.25-4.249-3.002c-0.187-1.328-0.187-3.183,0-4.25
		c1.395-0.192,6.257-0.606,6.25-1.998c-0.005-2.271-1.479-6.842-0.751-8.5c0.445-1.005,3.036-5.151,3.377-6.746
		c0.504-2.353-1.61-4.619-1.75-6.253c-1.947-0.533-6.736-2.375-7.211-4.279c-0.709-2.837-4.189-4.192-5.042-6.719
		c-0.499-1.491,3.474-4.038,5.379-6.749c0.901-1.286,0.366-3.089,0.468-3.936c0,0-5.461,0.239-7.463-0.686
		c-0.649-0.301-2.332-4.94-5.252-8.504c-4.393-5.349-10.391-10.253-10.391-10.253c-1.948,4.204-4.754,8.877-6.34,11.034
		c-1.413,1.917-7.909,8.186-9.694,9.633c-2.271,1.845-9.081,2.239-12.698,5.336c-1.022,0.878-0.992,5.1-1.737,6.551
		c-0.824,1.623-3.426,4.935-3.011,6.574c0.625,1.377,5.933,1.329,7.5,2.874c0.788,0.775-0.313,4.771-0.655,5.896
		c1.184,1.388,4.273,5.628,4.411,6.92c0,3.197,4.549,8.997,4.741,12.431c0.151,2.627-2.115,7.085-2.495,9.518
		c-0.366,1.342-1.279,3.26-1.508,4.732c-0.181,1.232,1.382,2.797,1.376,4.875c-0.006,3.125-1.544,4.209-1.25,6
		c0.126,0.754,1.952,1.108,2.254,1.872c0.871,2.251-3.131,14.123-2.363,15.042c0.68,0.82,5.127-0.06,6.233,0.457
		c0.811,0.378,1.177,1.133,2.254,1.878c1.074,0.74,2.866,1.47,3.371,2.995c0.751,2.254,1.749,8.129,3.377,7.877
		c2.127-0.328,6.683-2.357,7.295-1.635c0.956,1.13-1.538,5.816-0.799,8.759c1.262-0.287,3.864-0.69,4.753-1.253
		c0.522-0.331,2.669,3.039,3.245,1.879c0.763-1.521,1.856-8.165,2.128-9c0.174-0.544,4.08,0.641,5.5,0.75
		c0.072,0.714,2.475,2.256,2.5,3.376c0.042,2.017-0.644,3.535-0.752,4.622c-0.061,0.607,1.376,1.833,1.25,2.626
		c-0.469,2.939-2.765,6.322-2.753,8.498c0.012,1.221,10.012,5.293,11.623,4.501c1.779-0.875,2.2-4.462,4.082-4.501
		c1.91-0.036,10.805,3.958,11.623,6.502c0.33,1.04,0.101,4.079,0.624,5c0.704,1.227,1.052,2.452,1.899,3.288
		c1.352-2.256,3.774-2.041,4.772-3.043c0.066,0.063,1.941-2.809,2.001-2.746C191.427,402.323,193.854,403.055,194.623,402.642
		 M225.623,390.897c-1.575-2.847-2.832-5.489-3.877-5.751c-0.457-0.113-4.123,4.375-5.247,5.871
		c-1.142,1.521-3.407-0.184-4.459,0.313c-1.815,0.852-4.729,2.566-7.151,4.333c-1.605,1.176-2.789,4.396-2.892,5.604
		c-0.246,3.127-2.673,5.539-4.621,7.875c-0.626,0.752-3.649,2.001-3.624,3.249c0.024,1.533,2.206,0.899,2.746,2.753
		c0.547,1.862,2.254,7.498,2.254,7.498c2.158-1.055,7.541-2.69,11.496-6.124c2.224-1.934,3.648-6.042,4.622-6.996
		c3.768-3.725,10.144-6.48,12.879-11.254C228.933,396.198,227.058,393.489,225.623,390.897z"/>
	<path fill="#0080FF" d="M484.901,386.944c-0.585,1.21-3.06,1.934-3.62,1.068c-0.847-1.315-0.903-4.193-0.12-5.812
		C482.272,382.324,485.157,386.385,484.901,386.944 M489.363,375.741c-2.198-0.096-2.26-1.537-4.613-2.831
		c-0.902,0.154-5.32,1.996-6.274,1.834c-2.152-0.371-12.856-2.578-14.353-2.165c-1.814,0.5-5.654,5.984-8.191,5.993
		c-1.545,0.003-3.479-2.722-4.18-3.999c0,0-1.301,1.847-2.449,2.299c-2.097,0.832-5.906,0.331-7.951,1.204
		c-0.582,0.249-1.032,4.165-1.977,4.5c-1.706,0.597-3.671,0.266-4.621,1.166c-1.01,0.951-0.046,2.055,0.162,3.497
		c0.089,0.6-2.83,2.219-3.954,3.168c-1.339,1.129-1.671,0.77-3.298,1.33c0,0-1.654-8.665-1.325-11.661
		c0.608-5.484,3.498-11.895,2.479-14.667c-1.221-3.313-6.854-5.036-12.207-6.163c-3.449-0.728-5.139-3.531-7.098-5
		c-0.906-0.683-3.859,1.589-5.445,1.665c-1.22,0.063-3.634-0.499-3.634-0.499s0.18-3.807,0.997-4.501
		c1.218-1.031,3.021-3.588,5.604-4.832c1.78-0.851,4.437-0.484,5.446-1.001c1.04-0.532-1.58-5.24-2.566-5.619
		c-2.35-0.896-4.235,0.066-7.5-1.713c-1.341-0.728-3.547-4.405-3.133-5.001c0.563-0.805,1.924-1.604,2.641-1.833
		c1.551-0.483,3.616,1.711,5.274,1.504c1.289-0.163,2.552-1.74,3.961-2.17c2.412-0.727,2.807,2.334,5.121,2.5
		c0.458,0.036,4.043-1.231,5.06-0.952c0.915,0.255,3.907,1.115,5.175,1.115c0,0,8.011,5.959,10.564,6.046
		c1.335,0.042,4.661-0.793,5.434-2.705c0.264-0.66,1.555-7.759,2.141-8.167c1.813-0.202,3.43,0.631,3.465,0.829
		c0.297,1.62,0.628,5.375,0.334,8.335c-0.175,1.747-1.041,2.675-0.992,4.166c0.089,2.794,2.498,5.21,3.299,6.833
		c0.522,1.058,2.967,0.205,4.783,0.667c2.121,0.541,3.666,2.362,4.787,3.165c1.739,1.246,1.319,6.499,1.319,6.499
		c0.161,1.837,0.251,4.171,0.822,4.502c0.999,0.577,2.73,1.688,4.46,2.002c1.755,0.312,2.361-2.304,3.299-2.002
		c1.893,0.607,4.069,3.942,5.936,4.663c0.693,0.268,1.824-0.174,3.14,0.168c0.569,0.151,1.531-2.548,2.14-2.332
		c2.048,0.712,6.112,1.333,7.266,2.665C489.623,369.298,489.69,373.794,489.363,375.741z"/>
	<path fill="#0080FF" d="M309.776,378.6l-0.252,5.12l-7.994-0.877c-0.744-1.45-1.876-5.748-2.379-7.998
		c-0.302-1.349-2.121-2.939-2.604-4.21c-1.015-2.699-1.903-5.164-2.39-6.666c0.029-0.007,0.065-0.025,0.102-0.055
		c2.193-1.328,9.448-3.805,10.644-3.816c1.08,2.119,3.01,7.031,4.128,8.997c-0.684,0.694-1.273,3.101-1.256,3.748
		C307.859,375.064,308.725,377.001,309.776,378.6 M353.315,328.766c-1.471,1.836-3.918,1.993-5.835,4
		c-2.156,2.269-3.694,6.424-3.497,9.168c0.239,3.359,2.001,6.83,2.664,8.664c0.175,0.478,1.439,7.388,1.004,8.335
		c-0.446,0.949-2.579,0.201-2.84,0.832c-0.505,1.265-0.756,2.792,0,3.997c-0.589,0.342-1.839,1.439-2.829,1.502
		c-1.374,0.088-2.578-0.977-3.666-1.332c0.133-2.704-0.108-6.676-2.501-8.666c0.122-0.125-6.614-2.878-6.501-2.998
		c-1.229-0.039-7.535-1.481-8.828-0.835c-1.336,0.668-1.449,2.488-2.17,3.333c-1.484,0.253-4.207-3.146-5.516-3.753
		c-1.307-0.598-2.892-2.238-4.147-2.248c-2.717-0.012-4.618,0.481-5.5,1.671c-1.754,2.013-7.854,8.457-8.377,9.91l-1.37-5.998
		c0.674-0.826,0.57-3.152,1.622-3.75c1.346-0.758,3.228-3.667,3.625-5.001c0.425-1.412,1.418-4.603,2.625-7.371
		c0.933-2.13,2.26-3.951,1.875-4.877c1.514-0.547,3.931-3.188,5.668-3.665c2.091-0.571,3.845-0.536,5.66-2.083
		c0.837-0.706,0.992-1.62,1.172-2.749c0,0,4.112-4.255,5.583-5.5c2.592-2.2,3.493-3.054,6.04-5.276
		c0.434,0.768,2.782,1.306,3.869,2.53c0.9,0.997,0.52,2.722,1.169,3.163c2.161,1.458,6.447-1.436,8.004-0.499
		c1.23,0.749,3.773,4.069,5.161,4.667c1.4,0.598,4.761-2.78,6.168-1.004C352.269,323.727,353.772,328.198,353.315,328.766z"/>
	<path fill="#0080FF" d="M298.64,383.827c-0.168-0.408,2.193-1.481,2.625-1.873c-0.737-1.451-1.874-5.75-2.373-7.998
		c-0.305-1.352-2.127-2.942-2.603-4.21c-1.016-2.693-1.904-5.165-2.397-6.662c-0.462,0.153-2.452,0.86-3.124,1.497
		c-0.391,0.321,2.505,3.476,2,4.123c-0.505,0.649-1.196,1.176-1.629,1.503c-1.033,0.79-1.568-3.799-2.71-4.391
		c-1.4-0.718-4.35,4.327-4.843,5.676c-0.284,0.752,0.998,1.043,1.761,1.214c1.188,0.268,1.376-1.626,2.618-1.124
		c0.663,0.261,0.494,4.067-0.126,4.749c-1.188,1.316-3.201,4.209-3.195,6.126c0.161,2.415,3.431,5.48,5.371,8.246
		c1.804-0.348,6.857-1.364,8.379-2.373C299.138,387.832,299.066,384.844,298.64,383.827"/>
	<path fill="#0080FF" d="M272.906,330.2c0.764,1.087-0.066,3.446-0.246,4.916c0.792,0.436,1.489,1.797,2,3.243
		c0.517,1.445,0.848,2.977,0.914,3.756c1.125,0.952,3.93,2.797,6.419,3.419c1.329,0.328,4.284-1.084,4.284-1.084
		c0.729-0.793,1.323-2.605,2.752-3.753c1.14-0.911,3.266-0.775,3.877-1.499c1.023-1.202,3.124-4.995,5.626-6.371
		c0.876-0.487,3.995-0.25,5.122,0.625c1.513-0.553,3.929-3.191,5.664-3.669c2.093-0.574,3.846-0.539,5.669-2.083
		c0.829-0.703,0.985-1.625,1.166-2.752c-0.662-0.46-2.362-2.434-3-2.915c-0.553-0.414-0.09-3.119-0.751-4.333
		c-1.227-2.235-2.849-4.723-4.579-5.081c-0.48-0.18-5.704-0.64-6.671-0.25c-2.007,0.805-2.188,5.528-4.248,6.913
		c-2.021,1.363-5.3,0.316-7.586,0.917c-0.876,0.235-1.07,2.05-1.826,2.5c-1.411,0.835-3.347-0.772-4.669-0.162
		c-1.683,0.764-4.478,1.935-5.92,3.077C274.848,327.254,274.06,328.187,272.906,330.2"/>
	<path fill="#0080FF" d="M398.033,396.671c-0.653-0.366-2.414-0.189-3.79-0.838c-2.428-1.141-2.585-2.296-3.631-3.331
		c0,0.123-1.813-5.456-1.813-5.334c-0.038-3.602-0.204-9.142-1.486-12.834l-0.895-0.045c-2.753,0.563-6.203,2.494-8.679,4.719
		c-1.587,1.422-3.905,4.658-5.108,5.998c-1.322,1.459-2.591-2.864-3.672-2.168c-2.183,1.401-8.139,5.937-10.329,7.499
		c-2.195,1.562-4.179,3.863-6.497,4.834c-0.564-1.273-4.568-7.901-5.339-9.67c-0.336-0.77-2.246-1.59-3.834-2.164
		c-1.362-0.499-4.681,0.281-6.996,0.166c-2.137-0.104-5.357-1.723-6.333-1.499c-1.49,0.404-2.835,4.666-4.334,5
		c-1.868,0.417-2.558-3.877-4.003-4.666c-1.103-0.611-4.03-0.773-5.827-1.833c-1.249-0.734-1.726-1.743-2.331-2.336
		c-1.138-1.099-3.103,0.125-3.878,0l-0.252,5.127l-7.999-0.876c-0.432,0.389-2.795,1.467-2.62,1.876
		c0.421,1.018,0.499,4.001-0.252,4.499c-1.513,1.012-6.575,2.025-8.378,2.375c0.289,1.095,3.842,6.228,4.124,7.334
		c0.534,2.127-1.401,3.918-1.834,5.912c-0.097,0.43,1.003,3.78,1.087,4.25c0.12,0.647-1.628,2.089-1.25,2.502
		c1.925,0.256,5.396-0.584,5.879,0.25c0.497,0.871-1.123,4.376-1.123,5.128c0.197,1.997,3.563,1.629,4.476,1.565
		c0.968-0.07,6.418,0.587,7.891,1.431c0.878,0.501-2.457,5.247-2.958,5.626c-0.426,0.317-3.311-0.319-3.838-0.251
		c-0.865,0.106-2.928,1.84-3.205,2.748c-0.371,1.25,1.876,1.855,2.635,2.877c0.804,1.091,1.719,2.41,1.996,3.622
		c0.305,1.356-1.877,6.001-1.938,7.001c-0.059,0.998,6.184-0.567,8.312-1.25c0.973-0.313,3.96-0.158,4.873-1.004
		c3.462-3.175,4.874-4.621,6.749-7.496c0.883-0.929,2.872-5.873,3.875-6.247c0.999-0.379,3.128,1.873,4.623,2.497
		c1.105,0.323,2.394-0.129,2.752-0.124c0.466,0.002-0.007,3.656,0.248,5.374c0.056,0.375,3.017,0.045,4.001,0.748
		c0.518,0.375,0.876,2.298,1.498,2.502c1.01,0.328,2.732,1.341,3.376,1.623c1.869-0.581,7.068-1.43,8.533-2.843
		c0.63-0.604-0.24-4.627,0.595-5.029c1.318-0.641,3.246,0.372,4.917,1.267c0.769,0.119,3.053,2.886,3.827,2.981
		c0.564,0.071,0.537-5.207,1.126-5.623c1.7-1.203,3.876-5.626,4.874-6.375c1.891-1.417,3.136-1.482,5.126-2.123
		c0.563-0.185,5.196,0.021,7.812-0.501c1.184-0.232,3.677-0.542,4.82-0.628c0.789-0.055,3.132,0.926,3.858,0.892
		c0.775-0.035,2.325-0.737,2.848-1.506c0.38-0.562-0.354-1.889,0.146-2.357c0.63-0.585,2.089-0.435,2.981-0.873
		c1.308-0.653,2.515-2.509,2.299-4.901c-0.124-1.377-2.594-1.875-4.084-1.625c-0.399,0.067-2.815,1.954-3.097,1.499
		c-0.42-0.688,1.783-4.414,1.736-5c-0.102-1.175-2.139-5.896-1.366-5.626c0.887,0.31,2.924-0.333,3.842-0.249
		c0.674,0.066,2.969,1.688,3.589,1.668c1.375-0.048,2.133,1.3,2.649,1.078C398.432,400.926,399.597,397.527,398.033,396.671"/>
	<path fill="#0080FF" d="M329.495,379.13c0.365-1.115,2.92-1.664,2.825-2.833c-0.133-1.704-2.073-5.469-1.493-6.333
		c0.697-1.046,7.298-6.416,7.834-6.501c0.131-2.704-0.109-6.676-2.502-8.666c0.12-0.123-6.624-2.875-6.503-2.995
		c-1.226-0.039-7.536-1.483-8.829-0.838c-1.332,0.667-1.452,2.487-2.168,3.335c-0.247,2.098-0.915,5.812-1.665,7.669
		c-0.45,1.1-3.473,6.009-4.837,6.991c-1.671,1.223-2.79-0.327-2.79-0.327c-0.679,0.691-1.273,3.095-1.251,3.748
		c0.085,2.22,0.951,4.158,2.003,5.751c0.77,0.119,2.735-1.107,3.869,0c0.613,0.59,1.09,1.59,2.34,2.331
		c1.795,1.058,4.715,1.228,5.827,1.83c1.445,0.796,2.128,5.088,4.003,4.672c1.503-0.336,2.838-4.598,4.333-5
		C330.491,381.963,329.158,380.131,329.495,379.13"/>
	<path fill="#0080FF" d="M309.138,368.658c0,0,1.119,1.553,2.794,0.336c1.359-0.991,4.384-5.895,4.834-6.998
		c0.75-1.856,1.416-5.568,1.672-7.669c-1.491,0.252-4.216-3.149-5.525-3.75c-1.309-0.602-2.896-2.24-4.146-2.249
		c-2.719-0.018-4.622,0.481-5.5,1.668c-1.755,2.016-7.854,8.458-8.378,9.917c1.287,0.568,0.072,3.104-0.515,3.56
		c2.191-1.328,9.451-3.8,10.642-3.812C306.097,361.781,308.027,366.696,309.138,368.658"/>
	<path fill="#0080FF" d="M264.253,345.166c0.047-0.597,0.444-4.948,1.166-6c0.948-1.382,2.698-0.833,4.333-1.917
		c1.394-0.929,2.566-2.634,2.752-4.079c0.174-1.47,1.009-3.835,0.246-4.919c-1.982-0.075-5.919,1.192-7.831,1.084
		c-2.836-0.156-5.006-1.779-7.506-2.25c-1.214-0.229-2.561,0.705-3.997,0.502c-0.913,1.832-3.204,8.516-4.525,9.507
		c-1.111,0.835-1.941,1.809-3.39,1.076c-0.973-0.498-0.992-2.716-1.838-2.41c-1.551,0.565-3.582,2.794-2.854,4.321
		c0.469,0.998,3.876,2.155,3.359,3.503c-0.397,1.05-2.362,3.753-3.077,4.165c-0.487,0.277-5.211,1.673-5.337,3.666
		c-0.048,0.782,1.243,5.132,2.122,7.085c0.564-0.01,7.433,0.526,9.248-0.126l3.877,2.249l2.128-0.995l2.872,1.121
		c0.757-1.71,1.869-5.896,2.832-7.913C259.15,352.171,264.199,345.836,264.253,345.166"/>
	<path fill="#0080FF" d="M270.191,356.227c0.792-2.031,3.966-6.749,4.495-8.663c0.323-1.163,0.511-5.626,0.42-6.752
		c-0.066-0.778-0.396-2.31-0.914-3.753c-0.511-1.444-1.208-2.81-2.006-3.249c-0.181,1.449-1.347,3.162-2.746,4.088
		c-1.636,1.082-3.384,0.535-4.334,1.917c-0.721,1.046-1.123,5.396-1.166,5.998c-0.055,0.667-5.102,7-5.415,7.668
		c-0.967,2.02-2.08,6.203-2.836,7.915l6.25,2.585C261.939,363.981,269.271,358.559,270.191,356.227"/>
	<path fill="#0080FF" d="M289.972,361.877l-6.247,1l-6.498-0.747l-4.749,1.332c0,0,0.596,1.295,0.662,2.498
		c0.103,1.691-0.379,3.437-1.039,3.292c-1.125-0.249-2.248-6.999-2.248-6.999l-2.999,2.75l-4.627-1.542c0,0,7.332-5.419,8.252-7.751
		c0.798-2.032,3.971-6.75,4.495-8.667c0.323-1.153,0.511-5.622,0.419-6.75c1.119,0.956,3.937,2.798,6.413,3.42
		c1.335,0.33,4.291-1.081,4.291-1.081c-0.305,0.333,1.748,7.887,1.748,8.497c0,1.375,5.879,1.502,5.879,1.502l1.376,5.995
		C294.024,358.15,291.019,361.085,289.972,361.877 M280.852,373c-1.124,0.126-2.958-4.466-2.812-5.064
		c0.311-1.311,2.013-2.157,2.746-1.432C281.908,367.602,281.718,370.564,280.852,373z M265.353,383.875
		c-0.463,1.307-1.581,1.355-2.002,2.124c0,0.243,0.866,2.504,0.626,2.753c-1.442,2.204-4.622-1.262-6.809-0.756
		c-0.752,0.19-3.679,0.686-3.438,0.44c0.95-0.806,5.072-4.234,6.124-6.37c0.553-1.131,0.716-2.854,0.879-3.44
		c0.408-1.488,3.628-2.976,4.374-2.25C266.224,377.478,266.218,381.439,265.353,383.875z"/>
	<path fill="#0080FF" d="M304.073,332.837c-1.125-0.877-4.244-1.114-5.127-0.625c-2.5,1.369-4.597,5.168-5.619,6.37
		c-0.612,0.721-2.738,0.589-3.877,1.502c-1.431,1.148-2.029,2.958-2.752,3.75c-0.307,0.337,1.75,7.888,1.75,8.498
		c0,1.375,5.878,1.502,5.878,1.502c0.673-0.829,0.569-3.154,1.621-3.75c1.347-0.763,3.228-3.671,3.624-5
		c0.427-1.412,1.419-4.604,2.627-7.375C303.124,335.584,304.451,333.76,304.073,332.837"/>
	<path fill="#0080FF" d="M352.961,454.889c-1.225,0.003-2.458-2.597-3.209-2.581c-1.394,0.018-4.05,3.288-4.417,2.581
		c-0.582-1.122,0.078-3.026,0.332-4.831c0.359-2.501,0.616-4.946,1.909-6.145c1.772-1.642,7.791-4.983,9.346-4.358
		c0.186,0.872-0.277,1.748,0.407,2.505c0.542,0.589,2.122,1.234,2.831,4.327C359.874,449.104,355.163,454.883,352.961,454.889
		 M387.188,457.885c-0.77,0.118-3.744,0.722-4.623,0.169c-1.214-0.765,2.32-3.341,0.991-3.837c-0.984-0.36-3.442-1.215-5.276-0.827
		c-1.178,0.242-1.897,1.803-2.481,1.665c-1.473-0.354-3.029-4.087-3.129-4.997c-0.093-0.825-2.395,0.47-4.839,0.33
		c-2.638-0.151-5.445-1.743-5.831-3.165c0.24-1.105-1.117-4.059,0-5.163c1.273-1.264,2.74-3.249,4.208-3.92
		c1.092-0.499,4.325-0.144,5.247,0c1.439,0.223,1.453,2.837,3.521,3.583c0.805,0.289,1.116-0.927,1.814-1.002
		c0.896-0.09,4.241,1.787,4.621,2.004c1.482,0.831,7.709-0.366,9.239,1.331c0.671,0.742-2.273,4.512-2.146,5.001
		c0.906,0.081,4.348-0.07,4.456,1.001C393.197,452.449,388.864,457.632,387.188,457.885z M395.269,459.054
		c-1.178-0.444-0.991-4.165-0.162-6.995c0,0.117,2.536-2.774,2.47-2.669c0.992-1.669,1.489-3.167,3.635-3.335
		c2.28-0.179,4.947,5.23,4.616,7.498C405.265,457.463,396.593,459.556,395.269,459.054z M409.089,446.013
		c-0.723-1.747,3.85-4.722,4.578-3.997c0.468,0.463,1.561,1.552,0.99,2.374C413.875,445.515,409.707,447.514,409.089,446.013z
		 M425.625,458.724c-1.288,1.377-6.112,2.947-8.737,3.827c-0.597,0.666-2.188,1.027-3.139,1.336c-1.813,0-6.105-1.486-6.761-2.836
		c-0.358-0.687,1.58-1.943,1.808-3.328c0.281-1.688-0.905-2.287-0.653-4.333c0.162-1.331,1.815-2.336,2.799-3.002
		c0.706-0.471,2.262-2.124,4.375-3.249c3.919-2.087,9.184-3.903,10.478-3.915c1.117-0.009,2.252,2.81,2.969,3.999
		c0.643,1.074,4.073,2.989,4.782,3.665C434.857,452.127,426.403,457.891,425.625,458.724z M425.698,410.417
		c0.305-1.312,2.57-2.559,3.293-1.836c1.117,1.1,1.244,4.582,0.83,6.334C428.708,415.039,425.553,411.008,425.698,410.417z
		 M447.807,403.249c-0.584,0.295-1.496-0.954-2.476-1.249c-1.257-0.382-2.567,0.043-2.809-0.751
		c-0.51-1.676-0.029-4.958,1.406-5.249c0.825-0.166,1.235,1.583,2.388,1.749c0.896,0.133,2.792-2.361,3.468-1.582
		C450.829,397.378,449.549,402.37,447.807,403.249z M456.22,406.084c-1.333,3.194-3.325,11.646-4.951,14.664
		c-0.902,1.668-3.697,3.637-4.785,5.334c-0.89,1.384,0.457,4.222,0.499,5.497c0.035,1.473,0.745,4.021,0,5.166
		c-0.666,1-5.047-0.457-6.688-0.457c-1.855,0-6.616,3.206-7.175,3.287c-3.275,0.499-5.938,0-7.753-0.327
		c-1.501-0.279-4.033-1.868-5.284-2.838c-1.495-1.156-3.429-4.597-3.627-6.833c-0.042-0.468,2.175-1.694,2.145-2.828
		c-0.024-0.857-2.483-1.517-1.688-2.573c1.111-1.472,2.133-2.635,2.517-2.762c0.403-0.13,3.253,2.157,3.794,1.834
		c1.635-0.978,0.57-2.966,2.476-3.167c0.872-0.095,5.079,0.004,5.938-1.168c0.485-0.665-0.31-2.217,0-3.331
		c0.274-1.012,4.934-2.474,5.442-2.669c1.559-0.586-0.257,3.257,0.168,4.834c0.337,1.283,2.808,1.611,3.793,1.831
		c0.812-1.657,0.633-5.832,2.476-8.495c1.155-1.667,8.998-9.591,9.567-9.499C454.17,401.757,456.881,404.5,456.22,406.084z"/>
	<path fill="#0080FF" d="M298.718,503.7c-0.476,1.71-1.737,5.763-3.192,6.995c-0.24,0.249,3.432,4.712,4.881,2.5
		c0.241-0.245,0.907-3.565,1.376-4.874c0.865-2.438,0.865-6.397-0.253-7.496C300.792,500.097,299.126,502.211,298.718,503.7
		 M322.274,482.453c0.083-0.757-1.566-0.829-1.873-2.377c-0.33-1.355,0.372-5.691-1.87-5.751c-2.517-0.061-5.606,3.533-6.35,3.748
		c-2.767,0.801-5.044,2.11-7.652,4.001c-1.484,1.078-2.859-3.921-2.192-5.307c0.816-1.688,3.443-2.067,3.693-4.065
		c0.067-0.541,0.104-3.303,0.873-5.626c0.771-2.309,4.146-4.888,3.877-4.75c-0.818,0.375-9.688,0.808-10.5,0.874
		c-1.796,0.154-4.129-2.347-3.997-3.374c0.198-1.583,2.142-3.61,3.493-3.498c0.697,0.058,1.821,1.563,2.505,0.876
		c0.734-0.744,2.08-5.29,3.246-5.374c1.581-0.113,3.569,1.61,4.749,1.37c0.719-1.286-1.372-5.755-2.435-7.679
		c-0.8-1.462-5.408-0.062-6.371-0.817c-1.19-0.928,0.62-4.875,0.62-4.875c-0.373-0.374-2.688-0.374-3.372-0.228
		c-0.414,0.088-3.6,2.663-4.315,3.103c-1.623,0.998-4.693,1.499-6.244,3.877c-1.556,2.376-2.062,5.847-2.879,7.247l-0.998,6.936
		c0,0,0.26,2.978,1.377,3.689c1.527,0.98,4.663,0.148,4.868,0.374c0.085,1.507-0.5,4.599-1.371,5.374
		c-1.453,1.29-4.657,1.085-6.248,2.002c-1.27,0.729-7.705,3.543-8.559,3.962c-0.547,0.275-0.985,3.37-1.568,3.409
		c-1.106,0.084-4.045,0.915-4.868,1.502c-1.797,1.274-0.48,8.206-0.877,8.874c-0.126,0.208,2.163,0.536,2.248,1.376
		c0.175,1.717,1.13,4.665,2.127,4.748c1.833,0.151,4.574-2.451,7.128-3.749c0.805-0.413,1.002,2.416,1.743,2.373
		c0.744-0.039,1.208-2.9,2.126-3.245c0.392-0.148,3.301,0.759,4.495-0.629c1.588-1.827,1.377-5.376,2.627-5.376
		c1.875,0.127,3.95,5.427,4.628,5.499c1.129,0.13,4.213-4.52,6.25-4.745c0.63-0.071,0.69,2.042,1.25,3.499
		c0.42,1.121,2.655-2.888,3.118-1.999c0.584,1.1,1.973,5.021,1.755,8.372c-0.204,3.112-3.021,5.433-2.626,6.127
		c0.385,0.674,5.434,1.021,6.065,0.282c0.498-0.473,0.787-1.678,0.432-2.033c-0.92-0.938-3.372,1.061-3.623-0.25
		c0.161-1.275,2.21-2.662,3.498-4.253c1.496-1.839,2.818-4.775,3.377-6.123c0.588-1.412,1.85-8.985,2.879-10.25
		c0.883-1.091,3.034,4.333,4.494,4.502C322.852,484.151,322.235,482.905,322.274,482.453z M252.035,454.702
		c-2.956-0.733-8.138-5.009-11.221-4.708c-1.183,0.114-0.642,1.962-0.535,2.875c0.337,2.834,0.403,8.623,2.26,10.458
		c1.315,1.307,6.28,0.957,8.245,0.624c0.89-0.146,2.836-2.252,3.251-3.999C254.559,457.747,253.477,455.061,252.035,454.702z
		 M270.905,470.45c3.149-0.765,7.032-3.235,7.664-4.644l3.838,1.021c0.145,0.313,1.185-5.876,1.185-5.876
		c-0.162-1.157-2.38-6.506-4.308-8.871c-1.624-1.993-2.795-2.112-3.127-2.379c-0.625-0.497-0.322-3.908,0.752-5.624
		c0.266-0.421,0.193-1.952,0.499-2.369c0.932-1.286,5.847-2.844,6.125-4.376c0.294-1.634-0.679-3.62-0.499-5.875
		c0.36-4.511,1.851-9.675,2.872-12.251c0.307-0.763-1.869-1.874-1.748-3.247c0.09-1.004,1.496-2.312,1.748-3.249
		c0.751-2.753,0.997-6.625,0.499-10.126l-5.872-6.627c-0.655,0.23-1.875,1.339-3,1.378c-1.345,0.044-2.661-0.999-4.122-0.999
		c-1.004,0-5.476,0.875-6.755,0.875c-1.497,0-3.341-1.26-4.501-0.75c-1.148,0.503-0.938,3.077-0.746,5.999
		c0.144,2.149,4.165,2.654,3.75,4.501c-0.222,0.965-4.128,4.366-4.626,5.249c-0.386,0.683,1.22,4.161,3.005,4.749
		c1.076,0.357,3.329,0.69,3.995-0.625c0.638-1.25,0.373-4.672,1.504-4.749c0.84-0.065,2.182,1.443,3.37,3.424
		c1.281,2.116,4.609,2.975,4.749,4.822c0.101,1.324,1.538,3.589,1.501,5.876c-0.072,3.892-1.125,9.497-1.875,9.624
		c-1.622,0.123-3.684-6.274-5.499-7.624c-0.342-0.033-0.253-2.625-0.253-2.625c-2.21-0.044-3.743,1.874-5,2.251
		c-1.417,0.426-3.815-5.254-4.874-7.375c-0.938-1.895-3.366-7.645-5-8.874c-0.715-0.542-5.331-1.252-6.244-1.376
		c-2.752-0.375-5.752-1-7.248-0.625c-0.656,0.166-0.806,1.513-1.756,1.626c-1.556,0.188-2.631-2.049-3.623-1.754
		c-1.25,0.378-0.95,3.621,0.126,4.003c1.357,0.489,5.006,4.522,5.126,5.251c0.246,1.574,0.625,4.751,0.126,5.497
		c-0.709,1.062-1.388,0.247-1.377,1.878c0.007,1.739,5.416,8.725,7.747,10.249c1.455,0.945,6.31,4.3,7.002,6.246
		c0.42,1.189,0.457,4.307,0.498,5.625c0.054,1.566,1.995,3.25,2.626,3.247c1.893,0.055,1.73-6.229,2.374-8.622
		c0.162-0.609,1.593-0.808,1.695-0.771c0.746,0.241,2.168,4.224,2.553,4.773c0.415,0.595,4.219,1.713,4.292,2.813
		c0.083,1.275-3.781-0.629-4.543,0.557c-0.506,0.788-0.5,3.004,0.251,4.502c0.38,0.768-0.72,4.03-1.316,6.313
		c-0.066,0.259-2.511-1.315-2.746-1.25c-0.685,0.186-3.534,3.566-2.999,4.25c0.715,0.92,5.956-1.62,5.938-1.563
		c-1.124,2.783-5.74,8.892-5.872,11.497c1.184-0.763,5.391-3.063,6.869-3.372C267.456,470.02,268.741,470.979,270.905,470.45z"/>
	<path fill="#0080FF" d="M216.318,443.043c-0.895,1.296-4.52,2.938-7.067,2.505c-0.559-0.098-0.439-1.431-1.184-1.627
		c-1.088-0.288-2.5,0.035-2.627-0.124c-1.249-1.565,0.746-4.666,1.089-4.685c1.039-0.065,2.476,0.936,3.16,0.868
		c0.878-0.077,1.972-1.003,2.687-0.934C213.915,439.194,216.902,442.196,216.318,443.043 M187.761,432.674
		c0,0-7.404,0.586-9.267,1.219c-1.911,0.65-3.642,1.745-4.55,2.658c-0.625,0.621-5.54-0.493-6.682-1.627
		c-1.189-1.181,3.756-7.545,3.996-9.248c0.138-0.951-7.067-1.302-8.623-1.377c-0.801-0.039-4.081,0.949-4.496,0.874
		c-1.377-0.249-0.655-2.602-3.125-2.875c-0.728-0.079-1.599,2.719-2.752,1.874c-1.858-1.36-4.021-2.627-4.874-3.872
		c-0.757-1.118,0.108-2.26,0.252-3.624c0.12-1.16,0.282-5.602,0.126-6.749c-0.15-1.122-2.026-1.008-3.125-2.002
		c-1.25-1.126-1.749-3.401-2.127-5.375c-0.175-0.91,2.596-4.49,2.5-5.376c-0.156-1.476-4.856-4.013-5.246-5.495
		c-0.487-1.852,1.219-2.112,0.871-4.129c-0.114-0.67-1.923-1.165-2.121-1.749c-0.241-0.704,0.216-2.398,0.372-3.122
		c1.262-0.288,3.865-0.691,4.754-1.25c0.523-0.334,2.662,3.034,3.245,1.872c0.765-1.518,1.857-8.158,2.128-8.997
		c0.175-0.547,4.081,0.64,5.499,0.749c0.072,0.717,2.476,2.261,2.494,3.375c0.047,2.017-0.637,3.536-0.746,4.623
		c-0.06,0.605,1.377,1.833,1.251,2.628c-0.464,2.942-2.766,6.32-2.753,8.497c0.006,1.224,10.006,5.291,11.629,4.503
		c1.772-0.877,2.194-4.464,4.074-4.503c1.912-0.035,10.805,3.957,11.623,6.504c0.331,1.036,0.102,4.082,0.625,4.996
		c0.704,1.229,1.051,2.454,1.9,3.286c-0.83-0.189-3.162,4.141-3.6,4.714c-1.046,1.349-0.271,3.005-0.877,4.495
		c-0.595,1.483-3.419,2.76-2.566,4.272c0.722,1.281,5.728,2.351,6.22,3.872C184.509,428.564,188.626,430.36,187.761,432.674z"/>
</g>
</svg>
